<svg xmlns="http://www.w3.org/2000/svg" viewBox="0 0 773.57 72.79"><defs><style>.cls-1{fill:#062c5d;}</style></defs><g id="Layer_2" data-name="Layer 2"><g id="Layer_1-2" data-name="Layer 1"><path class="cls-1" d="M5.4,11.46H11V67.54H5.4ZM9.33,62.37H35.06v5.17H9.33Z" transform="translate(-5.4 -11.46)"/><path class="cls-1" d="M48.28,66.27a12.25,12.25,0,0,1-5.1-5.34,18.61,18.61,0,0,1-1.75-8.43V43.28a20.86,20.86,0,0,1,1.7-8.87A12.41,12.41,0,0,1,48,28.81a14.94,14.94,0,0,1,7.78-1.92,14.62,14.62,0,0,1,7.52,1.83,11.77,11.77,0,0,1,4.76,5.36,20,20,0,0,1,1.64,8.51v7.32H45V44.78h19.4V42.24c0-3.22-.79-5.72-2.28-7.52A7.75,7.75,0,0,0,55.82,32a8.2,8.2,0,0,0-6.68,2.83q-2.36,2.84-2.35,8v9.79q0,4.91,2.51,7.6a9.1,9.1,0,0,0,7,2.7,8.1,8.1,0,0,0,5-1.48,7.58,7.58,0,0,0,2.78-4.11L69.28,59a11.09,11.09,0,0,1-4.48,6.79,14.52,14.52,0,0,1-8.48,2.35A16.36,16.36,0,0,1,48.28,66.27Z" transform="translate(-5.4 -11.46)"/><path class="cls-1" d="M76,27.5H93.62v5H76Zm6.39,37.55q-2.27-2.67-2.26-7.92V15.85h5.55V57.21a6.06,6.06,0,0,0,1.16,4,4.24,4.24,0,0,0,3.44,1.39h3.39v5.17H89.45Q84.59,67.74,82.34,65.05Z" transform="translate(-5.4 -11.46)"/><path class="cls-1" d="M126.41,54.39a8.69,8.69,0,0,0,2.18,6.31A8.27,8.27,0,0,0,134.82,63a8.48,8.48,0,0,0,6.19-2.1,8.12,8.12,0,0,0,2.14-6.07l.54,6.75a10.45,10.45,0,0,1-4.11,4.84,12.77,12.77,0,0,1-6.92,1.75q-5.64,0-8.72-3.61t-3.09-10.16V27.5h5.56ZM143.15,27.5h5.52v40h-5.52Z" transform="translate(-5.4 -11.46)"/><path class="cls-1" d="M163.75,67.12a12.17,12.17,0,0,1-4.86-3.05,13.3,13.3,0,0,1-3-4.94l4.51-2a12.67,12.67,0,0,0,4.19,4.69,10.31,10.31,0,0,0,5.69,1.6c3.06,0,5.4-.63,7-1.87a6.35,6.35,0,0,0,2.45-5.38,4.74,4.74,0,0,0-1.21-3.5,7.52,7.52,0,0,0-3.09-1.81,32.5,32.5,0,0,0-5-1.06l-.37-.06-.48-.06a.55.55,0,0,0-.23-.09l-.23,0A31.72,31.72,0,0,1,162.94,48a9.23,9.23,0,0,1-4.17-3.12,9.91,9.91,0,0,1-1.7-6.17,12.54,12.54,0,0,1,1.55-6.5,9.84,9.84,0,0,1,4.61-4,18.38,18.38,0,0,1,7.5-1.36,17.61,17.61,0,0,1,5.79.88,11.93,11.93,0,0,1,4.37,2.66,12.07,12.07,0,0,1,2.84,4.44l-4.55,2A11,11,0,0,0,175.53,33a9.19,9.19,0,0,0-4.95-1.35q-4.1,0-6.22,1.75a6.32,6.32,0,0,0-2.12,5.15A4.61,4.61,0,0,0,163.48,42a7.25,7.25,0,0,0,3.18,1.77,40.77,40.77,0,0,0,5.3,1l.1,0a.3.3,0,0,0,.14,0,.52.52,0,0,0,.21,0,.59.59,0,0,1,.21,0A36,36,0,0,1,179,46.4a9,9,0,0,1,4.28,3.21A10.72,10.72,0,0,1,185,56.13a12.19,12.19,0,0,1-1.67,6.59,10.33,10.33,0,0,1-5,4,20.74,20.74,0,0,1-8,1.37A19.91,19.91,0,0,1,163.75,67.12Z" transform="translate(-5.4 -11.46)"/><path class="cls-1" d="M212.16,11.46h5.55V67.54h-5.55Zm3.66,43,20.1-27h6.4L215.44,61.87Zm10.11-8.4,3.2-5.25,15,26.69h-6.52Z" transform="translate(-5.4 -11.46)"/><path class="cls-1" d="M248.92,27.5h5.55v40h-5.55Zm22.76,13.74c0-3-.75-5.26-2.24-6.83A8.47,8.47,0,0,0,263,32.05a8.37,8.37,0,0,0-6.33,2.3c-1.46,1.53-2.2,3.76-2.2,6.69l-.81-6.71a12.35,12.35,0,0,1,4.69-5.67,13,13,0,0,1,6.92-1.81q5.87,0,8.92,3.7t3,10.72V67.54h-5.55Z" transform="translate(-5.4 -11.46)"/><path class="cls-1" d="M292.91,66.42a11.21,11.21,0,0,1-4.78-5,17.48,17.48,0,0,1-1.64-7.87V41.24a17,17,0,0,1,1.64-7.78,11.36,11.36,0,0,1,4.78-4.92,17.75,17.75,0,0,1,15.12,0,11.48,11.48,0,0,1,4.81,4.92,16.9,16.9,0,0,1,1.66,7.78V53.7a17,17,0,0,1-1.66,7.79A11.34,11.34,0,0,1,308,66.42a17.66,17.66,0,0,1-15.12,0Zm13.81-5.9a9.69,9.69,0,0,0,2.22-6.79V41.2a9.5,9.5,0,0,0-2.24-6.75,8.12,8.12,0,0,0-6.25-2.4,8,8,0,0,0-6.21,2.4,9.62,9.62,0,0,0-2.19,6.75V53.73a9.76,9.76,0,0,0,2.19,6.81A8,8,0,0,0,300.45,63,8.06,8.06,0,0,0,306.72,60.52Z" transform="translate(-5.4 -11.46)"/><path class="cls-1" d="M319.51,27.5H325l8,32.44L342,27.5h3.55l8.95,32.44,8.06-32.44h5.52l-11,40h-5l-8.3-28.77-8.29,28.77h-5Z" transform="translate(-5.4 -11.46)"/><path class="cls-1" d="M390.49,27.5h5.71l11.18,35.65-2.47,7.32Zm31.4,0L406.76,76.92a10.84,10.84,0,0,1-2.29,4.2,8.66,8.66,0,0,1-3.76,2.37,17.48,17.48,0,0,1-5.52.76h-1V79h1a7.68,7.68,0,0,0,5-1.47,10,10,0,0,0,2.87-4.78L416.18,27.5Z" transform="translate(-5.4 -11.46)"/><path class="cls-1" d="M432.55,66.42a11.21,11.21,0,0,1-4.78-5,17.35,17.35,0,0,1-1.64-7.87V41.24a16.9,16.9,0,0,1,1.64-7.78,11.36,11.36,0,0,1,4.78-4.92,17.75,17.75,0,0,1,15.12,0,11.48,11.48,0,0,1,4.81,4.92,16.9,16.9,0,0,1,1.65,7.78V53.7a17,17,0,0,1-1.65,7.79,11.34,11.34,0,0,1-4.81,4.93,17.66,17.66,0,0,1-15.12,0Zm13.81-5.9a9.69,9.69,0,0,0,2.22-6.79V41.2a9.5,9.5,0,0,0-2.24-6.75,8.12,8.12,0,0,0-6.25-2.4,8,8,0,0,0-6.21,2.4,9.62,9.62,0,0,0-2.2,6.75V53.73a9.77,9.77,0,0,0,2.2,6.81A8,8,0,0,0,440.09,63,8.06,8.06,0,0,0,446.36,60.52Z" transform="translate(-5.4 -11.46)"/><path class="cls-1" d="M468.17,54.39a8.73,8.73,0,0,0,2.18,6.31A8.29,8.29,0,0,0,476.58,63a8.51,8.51,0,0,0,6.2-2.1,8.16,8.16,0,0,0,2.14-6.07l.54,6.75a10.45,10.45,0,0,1-4.11,4.84,12.8,12.8,0,0,1-6.93,1.75q-5.62,0-8.71-3.61t-3.09-10.16V27.5h5.55ZM484.92,27.5h5.51v40h-5.51Z" transform="translate(-5.4 -11.46)"/><path class="cls-1" d="M500.65,27.5h5.56v40h-5.56ZM520,32.34a7.21,7.21,0,0,0-2.22-.32q-5.32,0-8.35,2.68a9.92,9.92,0,0,0-3.18,7.5l-.81-7.72A15.61,15.61,0,0,1,519,26.85a7.23,7.23,0,0,1,2.47.4,5.67,5.67,0,0,1,1.93,1.18l-1.78,4.9A4.1,4.1,0,0,0,520,32.34Z" transform="translate(-5.4 -11.46)"/><path class="cls-1" d="M549.37,12.57H555v5.52h-5.6Zm0,14.93H555v40h-5.6Z" transform="translate(-5.4 -11.46)"/><path class="cls-1" d="M566.15,27.5h5.56v40h-5.56Zm22.76,13.74c0-3-.74-5.26-2.24-6.83a8.45,8.45,0,0,0-6.44-2.36,8.33,8.33,0,0,0-6.32,2.3q-2.2,2.3-2.2,6.69l-.81-6.71a12.39,12.39,0,0,1,4.68-5.67,13,13,0,0,1,6.93-1.81q5.87,0,8.91,3.7t3.05,10.72V67.54h-5.56Z" transform="translate(-5.4 -11.46)"/><path class="cls-1" d="M601.6,27.5h17.67v5H601.6ZM608,65.05q-2.26-2.67-2.26-7.92V15.85h5.56V57.21a6.06,6.06,0,0,0,1.15,4,4.24,4.24,0,0,0,3.44,1.39h3.39v5.17H615.1Q610.24,67.74,608,65.05Z" transform="translate(-5.4 -11.46)"/><path class="cls-1" d="M633.83,66.27a12.28,12.28,0,0,1-5.09-5.34A18.61,18.61,0,0,1,627,52.5V43.28a21,21,0,0,1,1.69-8.87,12.37,12.37,0,0,1,4.92-5.6,14.92,14.92,0,0,1,7.77-1.92,14.69,14.69,0,0,1,7.53,1.83,11.77,11.77,0,0,1,4.76,5.36,20.12,20.12,0,0,1,1.64,8.51v7.32H630.57V44.78H650V42.24c0-3.22-.79-5.72-2.28-7.52a7.76,7.76,0,0,0-6.33-2.7,8.18,8.18,0,0,0-6.67,2.83q-2.36,2.84-2.35,8v9.79q0,4.91,2.5,7.6a9.14,9.14,0,0,0,7,2.7,8.14,8.14,0,0,0,5-1.48,7.63,7.63,0,0,0,2.78-4.11L654.84,59a11.13,11.13,0,0,1-4.48,6.79,14.52,14.52,0,0,1-8.48,2.35A16.43,16.43,0,0,1,633.83,66.27Z" transform="translate(-5.4 -11.46)"/><path class="cls-1" d="M664.59,27.5h5.56v40h-5.56Zm19.31,4.84a7.21,7.21,0,0,0-2.22-.32q-5.32,0-8.35,2.68a9.92,9.92,0,0,0-3.18,7.5l-.81-7.72a15.61,15.61,0,0,1,13.58-7.63,7.23,7.23,0,0,1,2.47.4,5.58,5.58,0,0,1,1.93,1.18l-1.78,4.9A4.1,4.1,0,0,0,683.9,32.34Z" transform="translate(-5.4 -11.46)"/><path class="cls-1" d="M698.91,66.27a12.22,12.22,0,0,1-5.09-5.34,18.61,18.61,0,0,1-1.76-8.43V43.28a21,21,0,0,1,1.7-8.87,12.37,12.37,0,0,1,4.92-5.6,14.87,14.87,0,0,1,7.77-1.92A14.62,14.62,0,0,1,714,28.72a11.77,11.77,0,0,1,4.76,5.36,20,20,0,0,1,1.64,8.51v7.32H695.65V44.78h19.4V42.24c0-3.22-.78-5.72-2.28-7.52a7.75,7.75,0,0,0-6.32-2.7,8.16,8.16,0,0,0-6.67,2.83q-2.35,2.84-2.36,8v9.79q0,4.91,2.51,7.6a9.1,9.1,0,0,0,7,2.7,8.15,8.15,0,0,0,5-1.48,7.61,7.61,0,0,0,2.77-4.11L719.91,59a11.12,11.12,0,0,1-4.47,6.79A14.57,14.57,0,0,1,707,68.12,16.36,16.36,0,0,1,698.91,66.27Z" transform="translate(-5.4 -11.46)"/><path class="cls-1" d="M734.53,67.12a12.17,12.17,0,0,1-4.86-3.05,13.3,13.3,0,0,1-3-4.94l4.51-2a12.67,12.67,0,0,0,4.19,4.69,10.33,10.33,0,0,0,5.69,1.6c3.06,0,5.4-.63,7-1.87a6.37,6.37,0,0,0,2.45-5.38,4.75,4.75,0,0,0-1.22-3.5,7.54,7.54,0,0,0-3.08-1.81,32.93,32.93,0,0,0-5-1.06l-.36-.06-.49-.06a.5.5,0,0,0-.23-.09l-.23,0A32.09,32.09,0,0,1,733.72,48a9.23,9.23,0,0,1-4.17-3.12,9.91,9.91,0,0,1-1.69-6.17,12.54,12.54,0,0,1,1.54-6.5,9.84,9.84,0,0,1,4.61-4,18.38,18.38,0,0,1,7.5-1.36,17.61,17.61,0,0,1,5.79.88,11.45,11.45,0,0,1,7.21,7.1l-4.55,2A10.87,10.87,0,0,0,746.31,33a9.19,9.19,0,0,0-4.95-1.35q-4.1,0-6.21,1.75A6.29,6.29,0,0,0,733,38.57,4.64,4.64,0,0,0,734.26,42a7.25,7.25,0,0,0,3.18,1.77,40.64,40.64,0,0,0,5.31,1l.09,0a.32.32,0,0,0,.14,0,.56.56,0,0,0,.21,0,.56.56,0,0,1,.21,0,36,36,0,0,1,6.33,1.46A9,9,0,0,1,754,49.61a10.65,10.65,0,0,1,1.74,6.52,12.1,12.1,0,0,1-1.68,6.59,10.33,10.33,0,0,1-5,4,20.74,20.74,0,0,1-8,1.37A19.91,19.91,0,0,1,734.53,67.12Z" transform="translate(-5.4 -11.46)"/><path class="cls-1" d="M761.3,27.5H779v5H761.3Zm6.38,37.55q-2.25-2.67-2.25-7.92V15.85H771V57.21a6.06,6.06,0,0,0,1.16,4,4.22,4.22,0,0,0,3.43,1.39H779v5.17H774.8Q769.94,67.74,767.68,65.05Z" transform="translate(-5.4 -11.46)"/></g></g></svg>