<svg xmlns="http://www.w3.org/2000/svg" viewBox="0 0 418.7 24.37"><defs><style>.cls-1{fill:#e6e6e6;}</style></defs><g id="Layer_2" data-name="Layer 2"><g id="Layer_1-2" data-name="Layer 1"><path class="cls-1" d="M4.74,16.35a5.9,5.9,0,0,1-2.53-2.58,8.84,8.84,0,0,1-.87-4.08,8.8,8.8,0,0,1,.87-4.07A5.93,5.93,0,0,1,4.73,3a8.5,8.5,0,0,1,4-.88,8.53,8.53,0,0,1,4,.88,5.93,5.93,0,0,1,2.52,2.58,8.93,8.93,0,0,1,.86,4.07,9,9,0,0,1-.86,4.08,5.9,5.9,0,0,1-2.53,2.58,8.4,8.4,0,0,1-4,.88A8.34,8.34,0,0,1,4.74,16.35ZM12,15.23a4.93,4.93,0,0,0,2.09-2.15,7.32,7.32,0,0,0,.72-3.39,7.64,7.64,0,0,0-.72-3.45A5,5,0,0,0,12,4.06a6.82,6.82,0,0,0-3.3-.75,6.76,6.76,0,0,0-3.3.75,5,5,0,0,0-2.1,2.18,7.64,7.64,0,0,0-.72,3.45,7.32,7.32,0,0,0,.72,3.39,5,5,0,0,0,2.1,2.15,6.88,6.88,0,0,0,3.3.73A6.93,6.93,0,0,0,12,15.23ZM6.26,12.66a3.88,3.88,0,0,1-1-2.82V9.4a3.81,3.81,0,0,1,1-2.8A3.62,3.62,0,0,1,9,5.6a3.91,3.91,0,0,1,1.6.32,3.41,3.41,0,0,1,1.24.93L11,7.93a2.82,2.82,0,0,0-.93-.69A2.78,2.78,0,0,0,9,7a2.14,2.14,0,0,0-1.66.62A2.55,2.55,0,0,0,6.77,9.4v.44a2.75,2.75,0,0,0,.58,1.85A2.12,2.12,0,0,0,9,12.34a2.34,2.34,0,0,0,1.13-.28,3.52,3.52,0,0,0,1-.83l.8,1.1a3.69,3.69,0,0,1-1.3,1A3.88,3.88,0,0,1,9,13.67,3.59,3.59,0,0,1,6.26,12.66Z" transform="translate(-1.34 -2.16)"/><path class="cls-1" d="M25.73,20l6.68-8.74a8.3,8.3,0,0,0,1-1.68,3.74,3.74,0,0,0,.36-1.46V8A2.87,2.87,0,0,0,33,5.85a3.24,3.24,0,0,0-2.31-.77,3.1,3.1,0,0,0-2.25.83,3.84,3.84,0,0,0-1.05,2.35v0H25.51v0a6.73,6.73,0,0,1,.9-2.6A4.61,4.61,0,0,1,28.16,4a5.22,5.22,0,0,1,2.48-.57A6.21,6.21,0,0,1,33.35,4a3.86,3.86,0,0,1,1.71,1.58,5.06,5.06,0,0,1,.58,2.51h0a4.74,4.74,0,0,1-.48,1.9,10.8,10.8,0,0,1-1.35,2.2l-5.87,7.56h7.8v1.63h-10Z" transform="translate(-1.34 -2.16)"/><path class="cls-1" d="M40.2,20.23a5.16,5.16,0,0,1-1.28-3.71V8.45a5.1,5.1,0,0,1,1.29-3.72A5,5,0,0,1,44,3.4a5.05,5.05,0,0,1,3.78,1.32,5.11,5.11,0,0,1,1.29,3.73v8.07a5.05,5.05,0,0,1-1.3,3.71A5,5,0,0,1,44,21.56,5.06,5.06,0,0,1,40.2,20.23ZM46.48,19a3.6,3.6,0,0,0,.81-2.52V8.45a3.61,3.61,0,0,0-.81-2.53A3.21,3.21,0,0,0,44,5a3.22,3.22,0,0,0-2.5.88,3.61,3.61,0,0,0-.81,2.53v8.07A3.6,3.6,0,0,0,41.48,19a3.22,3.22,0,0,0,2.5.88A3.21,3.21,0,0,0,46.48,19Z" transform="translate(-1.34 -2.16)"/><path class="cls-1" d="M52.44,20l6.68-8.74a8.3,8.3,0,0,0,1-1.68,3.74,3.74,0,0,0,.36-1.46V8a2.87,2.87,0,0,0-.82-2.19,3.25,3.25,0,0,0-2.31-.77,3.08,3.08,0,0,0-2.25.83,3.85,3.85,0,0,0-1.06,2.35v0H52.22v0a6.73,6.73,0,0,1,.9-2.6A4.54,4.54,0,0,1,54.87,4a5.22,5.22,0,0,1,2.48-.57A6.21,6.21,0,0,1,60.06,4a3.86,3.86,0,0,1,1.71,1.58,5.06,5.06,0,0,1,.58,2.51h0a4.74,4.74,0,0,1-.48,1.9,10.8,10.8,0,0,1-1.35,2.2l-5.87,7.56h7.8v1.63h-10Z" transform="translate(-1.34 -2.16)"/><path class="cls-1" d="M66.91,20.23a5.12,5.12,0,0,1-1.28-3.71V8.45a5.1,5.1,0,0,1,1.29-3.72,6,6,0,0,1,7.55,0,5.11,5.11,0,0,1,1.29,3.73v8.07a5.05,5.05,0,0,1-1.3,3.71,6,6,0,0,1-7.55,0ZM73.19,19A3.6,3.6,0,0,0,74,16.52V8.45a3.61,3.61,0,0,0-.81-2.53,4,4,0,0,0-5,0,3.61,3.61,0,0,0-.81,2.53v8.07A3.6,3.6,0,0,0,68.19,19a4,4,0,0,0,5,0Z" transform="translate(-1.34 -2.16)"/><path class="cls-1" d="M99.74,3.63h1.85V21.37H99.83V6.13l.18.78-5.34,12H93.42L88.07,7.15l.19-1V21.37H86.5V3.63h1.84L94,16.44Z" transform="translate(-1.34 -2.16)"/><path class="cls-1" d="M106.35,20.53a3.55,3.55,0,0,1-1.22-2.89,3.52,3.52,0,0,1,1.11-2.78,4.67,4.67,0,0,1,3.16-1h4.21l.17,1.63h-4.37a2.85,2.85,0,0,0-1.88.56,1.91,1.91,0,0,0-.67,1.57,1.91,1.91,0,0,0,.84,1.66,4,4,0,0,0,2.36.6,7.69,7.69,0,0,0,2.54-.33q.9-.33.9-.93l.26,1.66a3.56,3.56,0,0,1-1,.68,5.71,5.71,0,0,1-1.36.43,8.47,8.47,0,0,1-1.64.15A5.21,5.21,0,0,1,106.35,20.53Zm7.15-7.19a3.26,3.26,0,0,0-.82-2.38,3.1,3.1,0,0,0-2.34-.85,5.38,5.38,0,0,0-1.77.29,4.87,4.87,0,0,0-1.54.83l-1.28-.88A4.69,4.69,0,0,1,107.65,9a6.87,6.87,0,0,1,2.62-.48,6.14,6.14,0,0,1,2.69.55,3.89,3.89,0,0,1,1.71,1.62,5.16,5.16,0,0,1,.59,2.54v8.14H113.5Z" transform="translate(-1.34 -2.16)"/><path class="cls-1" d="M120.69,21a3.8,3.8,0,0,1-1.5-1.75,6.73,6.73,0,0,1-.51-2.76V13.68a6.89,6.89,0,0,1,.5-2.79,3.83,3.83,0,0,1,1.46-1.77,4.21,4.21,0,0,1,2.3-.6,5.65,5.65,0,0,1,2.54.54,4.07,4.07,0,0,1,1.75,1.78L127,13.28a3.32,3.32,0,0,0-.39-1.57,3.07,3.07,0,0,0-1.11-1.21,3.18,3.18,0,0,0-1.73-.47,3.14,3.14,0,0,0-2.45,1,3.89,3.89,0,0,0-.87,2.71v2.74a3.79,3.79,0,0,0,.87,2.66,3.17,3.17,0,0,0,2.45.94,3.09,3.09,0,0,0,1.71-.47,3.2,3.2,0,0,0,1.13-1.24,3.47,3.47,0,0,0,.39-1.6l.17,2.65a3.05,3.05,0,0,1-1.52,1.67,5.8,5.8,0,0,1-2.57.51A4.4,4.4,0,0,1,120.69,21Zm0,5A4.13,4.13,0,0,1,119,24.5l1.2-1.08a4,4,0,0,0,1.38,1.16A4.06,4.06,0,0,0,126,24a3.73,3.73,0,0,0,1-2.76V8.7h1.76V21a6.45,6.45,0,0,1-.65,3,4.25,4.25,0,0,1-1.86,1.89,6.2,6.2,0,0,1-2.94.65A5.83,5.83,0,0,1,120.73,26Z" transform="translate(-1.34 -2.16)"/><path class="cls-1" d="M132.52,3.63h1.76V21.37h-1.76Zm3.1,17.42a3,3,0,0,1-1.51-1.67l.17-2.65a3.47,3.47,0,0,0,.39,1.6,3.18,3.18,0,0,0,1.12,1.24A3.53,3.53,0,0,0,140,19.1a3.79,3.79,0,0,0,.87-2.66V13.7A3.89,3.89,0,0,0,140,11a3.5,3.5,0,0,0-4.16-.49,3.19,3.19,0,0,0-1.12,1.22,3.28,3.28,0,0,0-.39,1.56L134,10.84a4.07,4.07,0,0,1,1.75-1.78,5.7,5.7,0,0,1,2.55-.54,4.26,4.26,0,0,1,2.3.6,3.89,3.89,0,0,1,1.46,1.77,7.06,7.06,0,0,1,.5,2.79v2.76a6.73,6.73,0,0,1-.51,2.76A3.88,3.88,0,0,1,140.56,21a4.36,4.36,0,0,1-2.36.61A5.81,5.81,0,0,1,135.62,21.05Z" transform="translate(-1.34 -2.16)"/><path class="cls-1" d="M148.16,20.91A4.26,4.26,0,0,1,146.37,19a6.63,6.63,0,0,1-.62-3V14a6.52,6.52,0,0,1,.62-3,4.26,4.26,0,0,1,1.79-1.87,6.53,6.53,0,0,1,5.64,0A4.24,4.24,0,0,1,155.58,11a6.39,6.39,0,0,1,.62,3v2.1a6.44,6.44,0,0,1-.62,3,4.29,4.29,0,0,1-1.78,1.87,6.44,6.44,0,0,1-5.64,0Zm5.37-2a4,4,0,0,0,.91-2.83V14a4,4,0,0,0-.91-2.82,3.75,3.75,0,0,0-5.12,0,4,4,0,0,0-.9,2.82v2.1a4.09,4.09,0,0,0,.9,2.83,3.75,3.75,0,0,0,5.12,0Z" transform="translate(-1.34 -2.16)"/><path class="cls-1" d="M158.76,8.7h6.34v1.52h-6.34ZM160.11,7a3.79,3.79,0,0,1,.72-2.52A2.75,2.75,0,0,1,163,3.63h2.08V5.26h-1.78a1.35,1.35,0,0,0-1.09.42A1.94,1.94,0,0,0,161.87,7V21.37h-1.76Z" transform="translate(-1.34 -2.16)"/><path class="cls-1" d="M166.69,8.7H173v1.52h-6.33ZM168,7a3.73,3.73,0,0,1,.73-2.52A2.72,2.72,0,0,1,171,3.63H173V5.26h-1.78a1.35,1.35,0,0,0-1.09.42A1.94,1.94,0,0,0,169.79,7V21.37H168Z" transform="translate(-1.34 -2.16)"/><path class="cls-1" d="M176.32,3.63h1.76V5.38h-1.76Zm0,5.07h1.76V21.37h-1.76Z" transform="translate(-1.34 -2.16)"/><path class="cls-1" d="M182.23,8.7H184V21.37h-1.75Zm8.42,5a3.65,3.65,0,0,0-.89-2.62,3.27,3.27,0,0,0-2.49-.93,3.39,3.39,0,0,0-2.43.83,3.1,3.1,0,0,0-.86,2.34l-.25-2.44a4.15,4.15,0,0,1,1.78-1.81,5.83,5.83,0,0,1,2.58-.55,3.94,3.94,0,0,1,3.19,1.35,5.79,5.79,0,0,1,1.13,3.81v7.69h-1.76Z" transform="translate(-1.34 -2.16)"/><path class="cls-1" d="M196.07,19.37h2v2h-2Z" transform="translate(-1.34 -2.16)"/><path class="cls-1" d="M213.65,3.63h2.12l6.54,17.74h-1.95l-5.65-15.9-5.65,15.9h-2Zm-3.53,11.8h9.34v1.63h-9.34Z" transform="translate(-1.34 -2.16)"/><path class="cls-1" d="M226.51,18a1.82,1.82,0,0,0,.4,1.25,1.39,1.39,0,0,0,1.11.45h1.17v1.63h-1.47a2.76,2.76,0,0,1-2.19-.88,3.58,3.58,0,0,1-.77-2.47V3.63h1.75Z" transform="translate(-1.34 -2.16)"/><path class="cls-1" d="M233.75,18a1.77,1.77,0,0,0,.4,1.25,1.38,1.38,0,0,0,1.1.45h1.18v1.63H235a2.76,2.76,0,0,1-2.19-.88A3.59,3.59,0,0,1,232,18V3.63h1.76Z" transform="translate(-1.34 -2.16)"/><path class="cls-1" d="M246,8.7h1.75V21.37H246Zm6.47,1.66a4.07,4.07,0,0,0-1.37-.21,3.44,3.44,0,0,0-2.47.85,3.14,3.14,0,0,0-.88,2.35l-.25-2.44a4.87,4.87,0,0,1,1.82-1.76,5,5,0,0,1,2.48-.63,4.52,4.52,0,0,1,1.56.25,3.49,3.49,0,0,1,1.23.74L253.41,11A2.6,2.6,0,0,0,252.42,10.36Z" transform="translate(-1.34 -2.16)"/><path class="cls-1" d="M257,3.63h1.76V5.38H257Zm0,5.07h1.76V21.37H257Z" transform="translate(-1.34 -2.16)"/><path class="cls-1" d="M264.54,21A3.8,3.8,0,0,1,263,19.2a6.57,6.57,0,0,1-.52-2.76V13.68a7.06,7.06,0,0,1,.5-2.79,3.89,3.89,0,0,1,1.46-1.77,4.26,4.26,0,0,1,2.3-.6,5.7,5.7,0,0,1,2.55.54,4.07,4.07,0,0,1,1.75,1.78l-.26,2.44a3.31,3.31,0,0,0-.38-1.57,3.39,3.39,0,0,0-5.29-.72,3.89,3.89,0,0,0-.87,2.71v2.74a3.79,3.79,0,0,0,.87,2.66,3.28,3.28,0,0,0,5.28-.77,3.47,3.47,0,0,0,.39-1.6l.18,2.65a3.09,3.09,0,0,1-1.52,1.67,5.8,5.8,0,0,1-2.57.51A4.4,4.4,0,0,1,264.54,21Zm0,5a4.1,4.1,0,0,1-1.74-1.49L264,23.42a4.24,4.24,0,0,0,1.38,1.16,3.77,3.77,0,0,0,1.7.41,3.69,3.69,0,0,0,2.75-1,3.73,3.73,0,0,0,1-2.76V8.7h1.76V21a6.45,6.45,0,0,1-.64,3,4.35,4.35,0,0,1-1.86,1.89,6.2,6.2,0,0,1-2.94.65A5.88,5.88,0,0,1,264.57,26Z" transform="translate(-1.34 -2.16)"/><path class="cls-1" d="M276.37,3.63h1.75V21.37h-1.75Zm8.42,10.07a3.65,3.65,0,0,0-.89-2.62,3.27,3.27,0,0,0-2.49-.93A3.39,3.39,0,0,0,279,11a3.1,3.1,0,0,0-.86,2.34l-.25-2.44a4.15,4.15,0,0,1,1.78-1.81,5.83,5.83,0,0,1,2.58-.55,3.93,3.93,0,0,1,3.19,1.35,5.79,5.79,0,0,1,1.13,3.81v7.69h-1.76Z" transform="translate(-1.34 -2.16)"/><path class="cls-1" d="M289.35,8.7h5.72v1.52h-5.72Zm2,11.89a3.81,3.81,0,0,1-.72-2.51V5h1.76V18.1a1.93,1.93,0,0,0,.36,1.26,1.36,1.36,0,0,0,1.09.44h1.2v1.63h-1.44A2.78,2.78,0,0,1,291.38,20.59Z" transform="translate(-1.34 -2.16)"/><path class="cls-1" d="M300.85,21.36a8.65,8.65,0,0,1-1.8-.6,6.55,6.55,0,0,1-1.48-.94l1-1.23a9.63,9.63,0,0,0,2.15,1.08,6.37,6.37,0,0,0,2.11.38,5.29,5.29,0,0,0,2.82-.62,2,2,0,0,0,1-1.76,1.55,1.55,0,0,0-.48-1.24,2.51,2.51,0,0,0-1.21-.56,18.2,18.2,0,0,0-2-.25h-.25l-.25,0h-.2a11.92,11.92,0,0,1-2.1-.36,2.83,2.83,0,0,1-1.41-.92,2.9,2.9,0,0,1-.57-1.94,3.51,3.51,0,0,1,.6-2.07A3.65,3.65,0,0,1,300.47,9a7.45,7.45,0,0,1,2.74-.45,8.49,8.49,0,0,1,1.66.16,8.59,8.59,0,0,1,1.59.48,7.46,7.46,0,0,1,1.4.75l-1,1.21a8.41,8.41,0,0,0-1.88-.81,6.55,6.55,0,0,0-1.83-.29,4.35,4.35,0,0,0-2.48.6,1.91,1.91,0,0,0-.88,1.68,1.32,1.32,0,0,0,.48,1.13,2.53,2.53,0,0,0,1.2.5c.48.08,1.15.14,2,.19h.28l.08,0a10.43,10.43,0,0,1,2.26.33,3,3,0,0,1,1.57,1,3.31,3.31,0,0,1,.64,2.18,3.45,3.45,0,0,1-.64,2.1,4,4,0,0,1-1.85,1.33,8.58,8.58,0,0,1-3,.46A10.1,10.1,0,0,1,300.85,21.36Z" transform="translate(-1.34 -2.16)"/><path class="cls-1" d="M318.16,8.7h1.76V21.37h-1.76Zm6.48,1.66a4.11,4.11,0,0,0-1.37-.21,3.44,3.44,0,0,0-2.47.85,3.11,3.11,0,0,0-.88,2.35l-.25-2.44a4.87,4.87,0,0,1,1.82-1.76A5,5,0,0,1,324,8.52a4.58,4.58,0,0,1,1.57.25,3.49,3.49,0,0,1,1.23.74L325.62,11A2.63,2.63,0,0,0,324.64,10.36Z" transform="translate(-1.34 -2.16)"/><path class="cls-1" d="M330.77,20.89A4.38,4.38,0,0,1,328.88,19a6.6,6.6,0,0,1-.66-3.07V14.45a7.47,7.47,0,0,1,.63-3.21,4.58,4.58,0,0,1,1.83-2,5.66,5.66,0,0,1,2.88-.69,5.17,5.17,0,0,1,2.71.68,4.32,4.32,0,0,1,1.71,2,7.54,7.54,0,0,1,.59,3.15v1.46h-9.15V14.22h7.52V14.1a4.34,4.34,0,0,0-.89-2.91,3.1,3.1,0,0,0-2.49-1,3.5,3.5,0,0,0-2.74,1.09,4.51,4.51,0,0,0-1,3.08v1.61a4.05,4.05,0,0,0,1,2.95,3.91,3.91,0,0,0,2.9,1,4.36,4.36,0,0,0,1.74-.37,4.91,4.91,0,0,0,1.53-1l1.2,1.14a6.66,6.66,0,0,1-2.1,1.4,6.11,6.11,0,0,1-2.37.5A6.23,6.23,0,0,1,330.77,20.89Z" transform="translate(-1.34 -2.16)"/><path class="cls-1" d="M344.36,21.36a8.65,8.65,0,0,1-1.8-.6,6.33,6.33,0,0,1-1.48-.94l1-1.23a9.63,9.63,0,0,0,2.15,1.08,6.33,6.33,0,0,0,2.11.38,5.25,5.25,0,0,0,2.81-.62,2,2,0,0,0,1-1.76,1.55,1.55,0,0,0-.48-1.24,2.55,2.55,0,0,0-1.22-.56,18.2,18.2,0,0,0-2-.25h-.25l-.25,0h-.19a11.92,11.92,0,0,1-2.1-.36,2.83,2.83,0,0,1-1.41-.92,2.9,2.9,0,0,1-.57-1.94,3.58,3.58,0,0,1,.59-2.07A3.68,3.68,0,0,1,344,9a7.45,7.45,0,0,1,2.74-.45,8.46,8.46,0,0,1,3.25.64,7.78,7.78,0,0,1,1.4.75l-1,1.21a8.41,8.41,0,0,0-1.88-.81,6.55,6.55,0,0,0-1.83-.29,4.39,4.39,0,0,0-2.48.6,1.93,1.93,0,0,0-.87,1.68,1.32,1.32,0,0,0,.47,1.13,2.61,2.61,0,0,0,1.2.5c.49.08,1.15.14,2,.19h.28l.07,0a10.43,10.43,0,0,1,2.27.33,3.06,3.06,0,0,1,1.57,1,3.31,3.31,0,0,1,.63,2.18,3.44,3.44,0,0,1-.63,2.1,4,4,0,0,1-1.86,1.33,8.48,8.48,0,0,1-2.94.46A10,10,0,0,1,344.36,21.36Z" transform="translate(-1.34 -2.16)"/><path class="cls-1" d="M357.14,20.89a4.45,4.45,0,0,1-1.9-1.94,6.72,6.72,0,0,1-.65-3.07V14.45a7.47,7.47,0,0,1,.63-3.21,4.61,4.61,0,0,1,1.82-2,5.7,5.7,0,0,1,2.89-.69,5.13,5.13,0,0,1,2.7.68,4.4,4.4,0,0,1,1.72,2,7.7,7.7,0,0,1,.59,3.15v1.46h-9.15V14.22h7.52V14.1a4.34,4.34,0,0,0-.89-2.91,3.1,3.1,0,0,0-2.49-1,3.47,3.47,0,0,0-2.74,1.09,4.51,4.51,0,0,0-1,3.08v1.61a4.05,4.05,0,0,0,1,2.95,3.9,3.9,0,0,0,2.89,1,4.29,4.29,0,0,0,1.74-.37,4.84,4.84,0,0,0,1.54-1l1.19,1.14a6.66,6.66,0,0,1-2.1,1.4,6,6,0,0,1-2.37.5A6.21,6.21,0,0,1,357.14,20.89Z" transform="translate(-1.34 -2.16)"/><path class="cls-1" d="M368.36,8.7h1.76V21.37h-1.76Zm6.47,1.66a4.07,4.07,0,0,0-1.37-.21A3.4,3.4,0,0,0,371,11a3.11,3.11,0,0,0-.88,2.35l-.26-2.44a4.83,4.83,0,0,1,1.83-1.76,5,5,0,0,1,2.47-.63,4.62,4.62,0,0,1,1.57.25,3.54,3.54,0,0,1,1.22.74L375.82,11A2.6,2.6,0,0,0,374.83,10.36Z" transform="translate(-1.34 -2.16)"/><path class="cls-1" d="M387.22,8.7h1.87l-5,12.67h-1.39l-5-12.67h1.86l3.84,10.39Z" transform="translate(-1.34 -2.16)"/><path class="cls-1" d="M393.47,20.89a4.45,4.45,0,0,1-1.9-1.94,6.72,6.72,0,0,1-.65-3.07V14.45a7.47,7.47,0,0,1,.63-3.21,4.55,4.55,0,0,1,1.82-2,5.69,5.69,0,0,1,2.88-.69A5.17,5.17,0,0,1,399,9.2a4.4,4.4,0,0,1,1.72,2,7.7,7.7,0,0,1,.59,3.15v1.46h-9.16V14.22h7.52V14.1a4.34,4.34,0,0,0-.88-2.91,3.11,3.11,0,0,0-2.5-1,3.47,3.47,0,0,0-2.73,1.09,4.51,4.51,0,0,0-1,3.08v1.61a4.06,4.06,0,0,0,1,2.95,3.89,3.89,0,0,0,2.89,1,4.29,4.29,0,0,0,1.74-.37,4.69,4.69,0,0,0,1.53-1l1.2,1.14a6.66,6.66,0,0,1-2.1,1.4,6,6,0,0,1-2.37.5A6.21,6.21,0,0,1,393.47,20.89Z" transform="translate(-1.34 -2.16)"/><path class="cls-1" d="M406.34,21a3.88,3.88,0,0,1-1.51-1.75,6.73,6.73,0,0,1-.51-2.76V13.68a7.06,7.06,0,0,1,.5-2.79,3.83,3.83,0,0,1,1.46-1.77,4.26,4.26,0,0,1,2.3-.6,5.7,5.7,0,0,1,2.55.54,4.12,4.12,0,0,1,1.75,1.78l-.26,2.44a3.43,3.43,0,0,0-.38-1.57,3.1,3.1,0,0,0-1.12-1.21,3.53,3.53,0,0,0-4.18.49,3.93,3.93,0,0,0-.86,2.71v2.74a3.83,3.83,0,0,0,.86,2.66,3.17,3.17,0,0,0,2.46.94,3.13,3.13,0,0,0,1.71-.47,3.18,3.18,0,0,0,1.12-1.24,3.47,3.47,0,0,0,.39-1.6l.17,2.65a3,3,0,0,1-1.51,1.67,5.81,5.81,0,0,1-2.58.51A4.34,4.34,0,0,1,406.34,21Zm6.28-17.32h1.76V21.37h-1.76Z" transform="translate(-1.34 -2.16)"/><path class="cls-1" d="M418,19.37h2v2h-2Z" transform="translate(-1.34 -2.16)"/></g></g></svg>