<svg xmlns="http://www.w3.org/2000/svg" xmlns:xlink="http://www.w3.org/1999/xlink" viewBox="0 0 263.84 226.38"><defs><style>.cls-1{fill:none;stroke:#062c5d;stroke-miterlimit:10;stroke-width:2px;}.cls-2{fill:url(#New_Gradient_Swatch_5);}.cls-3{fill:#fff;}</style><linearGradient id="New_Gradient_Swatch_5" x1="31.75" y1="-11.16" x2="252.29" y2="217.22" gradientUnits="userSpaceOnUse"><stop offset="0" stop-color="#17d2e3"/><stop offset="0.17" stop-color="#15bed3"/><stop offset="0.52" stop-color="#119bb7"/><stop offset="0.81" stop-color="#0f86a5"/><stop offset="1" stop-color="#0e7e9f"/><stop offset="1" stop-color="#0b6087"/><stop offset="1" stop-color="#08416e"/><stop offset="1" stop-color="#05285a"/><stop offset="1" stop-color="#03174c"/><stop offset="1" stop-color="#020c44"/><stop offset="1" stop-color="#020941"/></linearGradient></defs><g id="Layer_2" data-name="Layer 2"><g id="Layer_1-2" data-name="Layer 1"><rect class="cls-1" x="1" y="22.52" width="244.03" height="202.86"/><rect class="cls-2" x="20.19" width="243.65" height="206.07"/><path class="cls-3" d="M117.68,122.21h-3.07V91.4h3.07Z"/><path class="cls-3" d="M128.08,121.41a7.51,7.51,0,0,1-3.16-3.27,11.22,11.22,0,0,1-1.09-5.17V100.64a11.29,11.29,0,0,1,1.09-5.18,7.54,7.54,0,0,1,3.16-3.26,11.68,11.68,0,0,1,10,0,7.54,7.54,0,0,1,3.16,3.26,11.29,11.29,0,0,1,1.09,5.18V113a11.22,11.22,0,0,1-1.09,5.17,7.51,7.51,0,0,1-3.16,3.27,11.68,11.68,0,0,1-10,0Zm8.33-2.57a5.07,5.07,0,0,0,2.11-2.21,7.85,7.85,0,0,0,.72-3.51V100.49a7.85,7.85,0,0,0-.72-3.51,5,5,0,0,0-2.11-2.21,7.63,7.63,0,0,0-6.68,0A5,5,0,0,0,127.61,97a7.71,7.71,0,0,0-.73,3.51v12.63a7.71,7.71,0,0,0,.73,3.51,5,5,0,0,0,2.12,2.21,7.63,7.63,0,0,0,6.68,0Z"/><path class="cls-3" d="M144.75,91.4H163.1v2.84H144.75Zm7.63,1.88h3.07v28.93h-3.07Z"/></g></g></svg>