<svg xmlns="http://www.w3.org/2000/svg" xmlns:xlink="http://www.w3.org/1999/xlink" viewBox="0 0 2188.03 2476.61"><defs><style>.cls-1{fill:url(#New_Gradient_Swatch_2);}.cls-2{clip-path:url(#clip-path);}.cls-3{fill:url(#linear-gradient);}</style><linearGradient id="New_Gradient_Swatch_2" x1="-287.91" y1="464.01" x2="2207.91" y2="2012.6" gradientUnits="userSpaceOnUse"><stop offset="0" stop-color="#17d2e3"/><stop offset="0.07" stop-color="#14b4cb"/><stop offset="0.21" stop-color="#0e81a1"/><stop offset="0.35" stop-color="#0a567f"/><stop offset="0.48" stop-color="#073464"/><stop offset="0.6" stop-color="#041c51"/><stop offset="0.72" stop-color="#030e45"/><stop offset="0.82" stop-color="#020941"/><stop offset="0.83" stop-color="#020a42"/></linearGradient><clipPath id="clip-path" transform="translate(28.84)"><rect class="cls-1" width="1920" height="2476.61"/></clipPath><linearGradient id="linear-gradient" x1="-116.84" y1="624.78" x2="1765.18" y2="1792.52" gradientTransform="matrix(1.17, -0.06, -0.06, 1.06, 228.77, -275.78)" gradientUnits="userSpaceOnUse"><stop offset="0.17" stop-color="#020a42"/><stop offset="0.18" stop-color="#020941"/><stop offset="0.28" stop-color="#030e45"/><stop offset="0.4" stop-color="#041c51"/><stop offset="0.52" stop-color="#073464"/><stop offset="0.65" stop-color="#0a567f"/><stop offset="0.79" stop-color="#0e81a1"/><stop offset="0.93" stop-color="#14b4cb"/><stop offset="1" stop-color="#17d2e3"/></linearGradient></defs><g id="Layer_2" data-name="Layer 2"><g id="Layer_1-2" data-name="Layer 1"><rect class="cls-1" x="28.84" width="1920" height="2476.61"/><g class="cls-2"><path class="cls-3" d="M-28.84,873.56l.2-2.36C66.13,865.59,151,772.37,170.27,685.9c15.27-68.35,5.12-136.08-4.68-201.59-2.72-18.17-5.53-36.95-7.75-55.44-13.29-110.73,4.93-194.61,55.69-256.44,41.74-50.84,107.75-85.38,172.28-90.12s126.39,20.4,161.45,65.61c41.51,53.55,43.76,126.21,45.93,196.49.63,20.27,1.28,41.24,2.87,61.3,7.39,92.9,56.69,186.79,150.23,187.12,27.6.1,57.33-8.06,86.08-16,46.78-12.84,91-25,126.06-4,54.88,32.7,32.43,115.08,10.78,174.2-11.77,32.11-44.8,139,23.87,165.46,27.65,10.68,61,2.55,93.18-5.31,30.68-7.48,62.4-15.22,90.16-7.36,40,11.33,57.44,51.85,57,87-.51,38.36-17.45,76.65-34.76,112.59q-3.66,7.58-7.38,15.22c-29.63,61-60.26,124.07-55.28,185.74,3.16,38.93,27.91,75.63,63.09,93.46,18.18,9.22,47,17.35,81.17,3.79,56.79-22.53,83-85.17,97.72-130.32,2.36-7.22,4.66-14.48,7-21.76,14.77-46.61,30-94.81,62.12-135.61,36.5-46.41,105.36-82.08,157.43-61.45,47,18.63,59.07,73.71,55.12,115.21-2.62,27.43-10.59,55.14-18.3,81.95-5.43,18.91-11.06,38.47-14.76,57.76-23.84,124.58,37.65,249,149.55,302.51s268.88,33.62,381.72-48.4l1.39,1.78C2045.52,1641.9,1887.4,1662,1774.66,1608S1600,1428.8,1624,1303.3c3.72-19.4,9.35-39,14.81-58,7.68-26.7,15.61-54.3,18.21-81.52,3.89-40.81-7.87-94.92-53.85-113.14-50.88-20.16-118.34,14.91-154.15,60.46-31.78,40.4-47,88.37-61.67,134.76-2.31,7.28-4.61,14.55-7,21.78-14.93,45.69-41.47,109.09-99.45,132.1a100.21,100.21,0,0,1-83.34-3.83c-35.79-18.14-61-55.45-64.18-95.07-5-62.28,25.75-125.66,55.53-187q3.7-7.62,7.37-15.21c17.19-35.68,34-73.69,34.51-111.58.45-34.36-16.51-74-55.48-85-27.1-7.68-58.46,0-88.79,7.37-32.63,8-66.36,16.19-94.75,5.23-70.43-27.17-37-135.56-25-168.13,21.4-58.41,43.64-139.76-9.95-171.69-34.21-20.39-77.86-8.41-124.08,4.27-28.94,7.94-58.86,16.15-86.85,16.06-94.93-.35-145-95.16-152.4-189-1.6-20.12-2.25-41.11-2.88-61.41-2.16-69.95-4.38-142.28-45.52-195.33C510.48,104.82,449.37,80,385.64,84.68s-128.93,38.79-170.17,89c-50.28,61.25-68.3,144.53-55.08,254.59,2.21,18.46,5,37.23,7.74,55.38,9.83,65.7,20,133.63,4.63,202.39C153.22,773.54,67.33,867.87-28.84,873.56Z" transform="translate(28.84)"/></g></g></g></svg>