<svg xmlns="http://www.w3.org/2000/svg" viewBox="0 0 1096.91 1032.18"><defs><style>.cls-1{opacity:0.38;}.cls-2,.cls-3{fill:none;stroke-miterlimit:10;stroke-width:0.82px;}.cls-2{stroke:#17e3e3;}.cls-3{stroke:#0068ff;}.cls-4{fill:#17e3e3;}.cls-5{fill:#0068ff;}</style></defs><g id="Layer_2" data-name="Layer 2"><g id="Layer_1-2" data-name="Layer 1"><g class="cls-1"><polygon class="cls-2" points="960.74 393.28 887.07 297.18 840.27 423.74 960.74 393.28"/><polygon class="cls-2" points="887.07 297.18 1063.98 300.21 960.74 393.28 887.07 297.18"/><polygon class="cls-2" points="778.33 606.84 666.28 419.31 840.27 423.74 778.33 606.84"/><polygon class="cls-2" points="778.33 606.84 648.41 632.13 666.28 419.31 778.33 606.84"/><polygon class="cls-2" points="778.33 606.84 716.12 722.86 648.41 632.13 778.33 606.84"/><polygon class="cls-3" points="716.12 722.86 556.82 814.59 648.41 632.13 716.12 722.86"/><polygon class="cls-3" points="556.82 814.59 430.54 687.78 648.41 632.13 556.82 814.59"/><polygon class="cls-2" points="556.82 814.59 683.22 828.76 716.12 722.86 556.82 814.59"/><polygon class="cls-3" points="683.22 828.76 519.86 909.3 556.82 814.59 683.22 828.76"/><polygon class="cls-3" points="519.86 909.3 388.52 923.32 556.82 814.59 519.86 909.3"/><polygon class="cls-3" points="519.86 909.3 374.88 993.82 388.52 923.32 519.86 909.3"/><polygon class="cls-3" points="519.86 909.3 471.24 1028.38 374.88 993.82 519.86 909.3"/><polygon class="cls-2" points="887.07 297.18 1093.81 173.98 1063.98 300.21 887.07 297.18"/><polygon class="cls-2" points="887.07 297.18 845.51 182.68 1093.81 173.98 887.07 297.18"/><polygon class="cls-2" points="887.07 297.18 676.47 326.19 845.51 182.68 887.07 297.18"/><polygon class="cls-2" points="887.07 297.18 666.28 419.31 840.27 423.74 887.07 297.18"/><polygon class="cls-2" points="666.28 419.31 676.47 326.19 887.07 297.18 666.28 419.31"/><polygon class="cls-3" points="666.28 419.31 445.4 532.99 648.41 632.13 666.28 419.31"/><polygon class="cls-3" points="430.54 687.78 445.4 532.99 648.41 632.13 430.54 687.78"/><polygon class="cls-3" points="744.15 0.41 777.17 106.07 901.63 0.41 744.15 0.41"/><polygon class="cls-2" points="759.86 293.58 490.01 278.92 685.4 55.28 759.86 293.58"/><polygon class="cls-2" points="676.47 326.19 445.4 532.99 666.28 419.31 676.47 326.19"/><polygon class="cls-2" points="445.4 532.99 406.63 311.52 676.47 326.19 445.4 532.99"/><polygon class="cls-2" points="445.4 532.99 187.38 529.61 406.63 311.52 445.4 532.99"/><polygon class="cls-2" points="445.4 532.99 309.01 691.15 430.54 687.78 445.4 532.99"/><polygon class="cls-3" points="309.01 691.15 187.38 529.61 445.4 532.99 309.01 691.15"/><polygon class="cls-3" points="556.82 814.59 311.68 819.68 430.54 687.78 556.82 814.59"/><polygon class="cls-3" points="388.52 923.32 311.68 819.68 556.82 814.59 388.52 923.32"/><polygon class="cls-3" points="388.52 923.32 202.04 936.9 311.68 819.68 388.52 923.32"/><polygon class="cls-3" points="202.04 936.9 374.88 993.82 388.52 923.32 202.04 936.9"/><polygon class="cls-3" points="311.68 819.68 309.01 691.15 430.54 687.78 311.68 819.68"/><polygon class="cls-2" points="187.38 529.61 236.58 334.35 406.63 311.52 187.38 529.61"/><polygon class="cls-2" points="406.63 311.52 461.49 49.97 602.02 87.88 406.63 311.52"/><polygon class="cls-2" points="247.08 0.41 395.92 226.47 443.35 0.41 247.08 0.41"/><polygon class="cls-2" points="236.58 334.35 226.49 37.93 406.63 311.52 236.58 334.35"/><polygon class="cls-2" points="0.41 412.54 0.41 438.19 187.38 529.61 236.58 334.35 0.41 412.54"/><polygon class="cls-3" points="17.54 666.12 10.58 479.89 228.84 586.61 17.54 666.12"/><polygon class="cls-2" points="0.41 412.54 236.58 334.35 2.73 241.98 0.41 254.47 0.41 412.54"/><polygon class="cls-2" points="0.41 209.23 184.42 281.92 76.91 93.79 0.41 151.77 0.41 209.23"/><polygon class="cls-2" points="129.07 146.22 226.49 37.93 236.58 334.35 129.07 146.22"/><path class="cls-4" d="M233.3,332a4,4,0,0,1,5.59-1,4.14,4.14,0,0,1,1,5.69,4,4,0,0,1-5.59,1A4.12,4.12,0,0,1,233.3,332Z"/><path class="cls-4" d="M403.34,309.18a4,4,0,0,1,5.59-1,4.14,4.14,0,0,1,1,5.69,4,4,0,0,1-5.59,1A4.14,4.14,0,0,1,403.34,309.18Z"/><path class="cls-4" d="M598.73,85.54a4,4,0,0,1,5.59-1,4.12,4.12,0,0,1,1,5.69,4,4,0,0,1-5.58,1A4.13,4.13,0,0,1,598.73,85.54Z"/><path class="cls-4" d="M682.34,53.09a4,4,0,0,1,5.59-1,4.14,4.14,0,0,1,1,5.69,4,4,0,0,1-5.59,1A4.15,4.15,0,0,1,682.34,53.09Z"/><path class="cls-5" d="M774.08,103.87a4,4,0,0,1,5.59-1,4.13,4.13,0,0,1,1,5.69,4,4,0,0,1-5.59,1A4.14,4.14,0,0,1,774.08,103.87Z"/><path class="cls-4" d="M458.19,47.65a4,4,0,0,1,5.59-1,4.13,4.13,0,0,1,1,5.69,4,4,0,0,1-5.59,1A4.14,4.14,0,0,1,458.19,47.65Z"/><path class="cls-4" d="M392.64,224.12a4,4,0,0,1,5.59-1,4.14,4.14,0,0,1,1,5.69,4,4,0,0,1-5.59,1A4.14,4.14,0,0,1,392.64,224.12Z"/><path class="cls-4" d="M223.2,35.59a4,4,0,0,1,5.59-1,4.14,4.14,0,0,1,1,5.69,4,4,0,0,1-5.59,1A4.14,4.14,0,0,1,223.2,35.59Z"/><path class="cls-4" d="M73.77,91.56a4,4,0,0,1,5.59-1,4.13,4.13,0,0,1,1,5.69,4,4,0,0,1-5.59,1A4.13,4.13,0,0,1,73.77,91.56Z"/><path class="cls-4" d="M6.63,478.51a4,4,0,0,1,5.59-1,4.13,4.13,0,0,1,1,5.69,4,4,0,0,1-5.59,1A4.13,4.13,0,0,1,6.63,478.51Z"/><path class="cls-4" d="M14.3,663.81a4,4,0,0,1,5.59-1,4.13,4.13,0,0,1,1,5.69,4,4,0,0,1-5.59,1A4.13,4.13,0,0,1,14.3,663.81Z"/><path class="cls-4" d="M225.55,585.12a4,4,0,0,1,5.59-1,4.14,4.14,0,0,1,1,5.69,4,4,0,0,1-5.59,1A4.14,4.14,0,0,1,225.55,585.12Z"/><path class="cls-4" d="M385.24,921a4,4,0,0,1,5.59-1,4.14,4.14,0,0,1,1,5.69,4,4,0,0,1-5.59,1A4.12,4.12,0,0,1,385.24,921Z"/><path class="cls-4" d="M198.76,934.55a4,4,0,0,1,5.59-1,4.14,4.14,0,0,1,1,5.69,4,4,0,0,1-5.59,1A4.14,4.14,0,0,1,198.76,934.55Z"/><path class="cls-4" d="M371.59,991.48a4,4,0,0,1,5.59-1,4.14,4.14,0,0,1,1,5.7,4,4,0,0,1-5.59,1A4.13,4.13,0,0,1,371.59,991.48Z"/><path class="cls-4" d="M468.15,1025.75a4,4,0,0,1,5.58-1,4.13,4.13,0,0,1,1,5.69,4,4,0,0,1-5.59,1A4.12,4.12,0,0,1,468.15,1025.75Z"/><path class="cls-4" d="M1089.61,173a4,4,0,0,1,5.59-1,4.13,4.13,0,0,1,1,5.69,4,4,0,0,1-5.59,1A4.14,4.14,0,0,1,1089.61,173Z"/><path class="cls-4" d="M842.23,180.33a4,4,0,0,1,5.59-1,4.14,4.14,0,0,1,1,5.69,4,4,0,0,1-5.59,1A4.15,4.15,0,0,1,842.23,180.33Z"/><path class="cls-4" d="M883.78,294.83a4,4,0,0,1,5.59-1,4.13,4.13,0,0,1,1,5.69,4,4,0,0,1-5.59,1A4.13,4.13,0,0,1,883.78,294.83Z"/><path class="cls-4" d="M645.13,629.78a4,4,0,0,1,5.59-1,4.14,4.14,0,0,1,1,5.69,4,4,0,0,1-5.59,1A4.13,4.13,0,0,1,645.13,629.78Z"/><path class="cls-4" d="M486.73,276.57a4,4,0,0,1,5.58-1,4.13,4.13,0,0,1,1,5.69,4,4,0,0,1-5.59,1A4.13,4.13,0,0,1,486.73,276.57Z"/></g></g></g></svg>