<svg xmlns="http://www.w3.org/2000/svg" viewBox="0 0 419.03 24.37"><defs><style>.cls-1{fill:#e6e6e6;}</style></defs><g id="Layer_2" data-name="Layer 2"><g id="Layer_1-2" data-name="Layer 1"><path class="cls-1" d="M4.74,16.35a6,6,0,0,1-2.53-2.59,8.77,8.77,0,0,1-.87-4.07,8.83,8.83,0,0,1,.87-4.07A6,6,0,0,1,4.73,3.05a8.38,8.38,0,0,1,4-.89,8.41,8.41,0,0,1,4,.89,6,6,0,0,1,2.52,2.57,9,9,0,0,1,.86,4.07,8.9,8.9,0,0,1-.86,4.07,6,6,0,0,1-2.53,2.59,8.4,8.4,0,0,1-4,.89A8.34,8.34,0,0,1,4.74,16.35Zm6.88-1.77a4.43,4.43,0,0,0,1.85-1.91,6.4,6.4,0,0,0,.64-3,6.83,6.83,0,0,0-.63-3,4.37,4.37,0,0,0-1.85-1.93A5.84,5.84,0,0,0,8.73,4a5.9,5.9,0,0,0-2.91.67A4.35,4.35,0,0,0,4,6.64a6.83,6.83,0,0,0-.64,3.05,6.54,6.54,0,0,0,.64,3,4.33,4.33,0,0,0,1.84,1.9,6,6,0,0,0,2.91.65A5.93,5.93,0,0,0,11.62,14.58ZM6.26,12.67a3.92,3.92,0,0,1-1-2.83V9.4a3.83,3.83,0,0,1,1-2.8A3.66,3.66,0,0,1,9,5.6a3.91,3.91,0,0,1,1.6.32,3.41,3.41,0,0,1,1.24.93L10.71,8.36a3.67,3.67,0,0,0-.83-.56A2.12,2.12,0,0,0,9,7.62a1.54,1.54,0,0,0-1.2.47A1.89,1.89,0,0,0,7.39,9.4v.44a2.11,2.11,0,0,0,.42,1.4,1.48,1.48,0,0,0,1.2.49,2,2,0,0,0,.9-.21,4.27,4.27,0,0,0,.91-.69L12,12.33a3.69,3.69,0,0,1-1.3,1A3.88,3.88,0,0,1,9,13.67,3.62,3.62,0,0,1,6.26,12.67Z" transform="translate(-1.34 -2.16)"/><path class="cls-1" d="M25.73,19.21,31.92,11a6,6,0,0,0,.84-1.47,3.9,3.9,0,0,0,.3-1.42V8a2.13,2.13,0,0,0-.63-1.64,2.47,2.47,0,0,0-1.77-.59,2.45,2.45,0,0,0-1.75.64,2.92,2.92,0,0,0-.82,1.82H25.51a6.72,6.72,0,0,1,.9-2.61A4.61,4.61,0,0,1,28.16,4a5.22,5.22,0,0,1,2.48-.57A6.2,6.2,0,0,1,33.35,4a3.8,3.8,0,0,1,1.71,1.58,5,5,0,0,1,.58,2.5h0a5.56,5.56,0,0,1-.39,2,8.74,8.74,0,0,1-1.08,2L29,19h6.71v2.37h-10Z" transform="translate(-1.34 -2.16)"/><path class="cls-1" d="M40.2,20.23a5.16,5.16,0,0,1-1.28-3.71V8.45a5.12,5.12,0,0,1,1.29-3.72A5,5,0,0,1,44,3.41a5.09,5.09,0,0,1,3.78,1.31,5.12,5.12,0,0,1,1.29,3.73v8.07a5.05,5.05,0,0,1-1.3,3.71A5,5,0,0,1,44,21.56,5,5,0,0,1,40.2,20.23Zm5.73-1.73a2.84,2.84,0,0,0,.63-2V8.45a2.91,2.91,0,0,0-.62-2,2.56,2.56,0,0,0-2-.68A2.52,2.52,0,0,0,42,6.46a2.86,2.86,0,0,0-.62,2v8.07a2.84,2.84,0,0,0,.63,2,2.48,2.48,0,0,0,1.94.69A2.52,2.52,0,0,0,45.93,18.5Z" transform="translate(-1.34 -2.16)"/><path class="cls-1" d="M52.44,19.21,58.63,11a6,6,0,0,0,.84-1.47,3.9,3.9,0,0,0,.3-1.42V8a2.13,2.13,0,0,0-.63-1.64,2.47,2.47,0,0,0-1.77-.59,2.45,2.45,0,0,0-1.75.64,2.92,2.92,0,0,0-.82,1.82H52.22a6.72,6.72,0,0,1,.9-2.61A4.54,4.54,0,0,1,54.87,4a5.22,5.22,0,0,1,2.48-.57A6.2,6.2,0,0,1,60.06,4a3.8,3.8,0,0,1,1.71,1.58,5,5,0,0,1,.58,2.5h0a5.56,5.56,0,0,1-.39,2,8.74,8.74,0,0,1-1.08,2l-5.14,7h6.71v2.37h-10Z" transform="translate(-1.34 -2.16)"/><path class="cls-1" d="M66.91,20.23a5.12,5.12,0,0,1-1.28-3.71V8.45a5.12,5.12,0,0,1,1.29-3.72,5,5,0,0,1,3.77-1.32,5.09,5.09,0,0,1,3.78,1.31,5.12,5.12,0,0,1,1.29,3.73v8.07a5.05,5.05,0,0,1-1.3,3.71,5,5,0,0,1-3.77,1.33A5,5,0,0,1,66.91,20.23Zm5.73-1.73a2.84,2.84,0,0,0,.63-2V8.45a2.86,2.86,0,0,0-.63-2,3.14,3.14,0,0,0-3.9,0,2.86,2.86,0,0,0-.62,2v8.07a2.83,2.83,0,0,0,.62,2,3.1,3.1,0,0,0,3.9,0Z" transform="translate(-1.34 -2.16)"/><path class="cls-1" d="M99.26,3.63h2.33V21.38H99.16V8.08l.12.78L94.91,18.91H93.18l-4.37-9.8.12-1v13.3H86.5V3.63h2.33L94,15.35Z" transform="translate(-1.34 -2.16)"/><path class="cls-1" d="M106.29,20.59a3.61,3.61,0,0,1-1.16-2.95,3.57,3.57,0,0,1,1.06-2.82,4.72,4.72,0,0,1,3.21-.94H113l.17,2h-3.76a2.12,2.12,0,0,0-1.46.44,1.69,1.69,0,0,0-.48,1.32,1.65,1.65,0,0,0,.64,1.43,3.34,3.34,0,0,0,2,.46,5.73,5.73,0,0,0,2.13-.3,1,1,0,0,0,.7-.95l.26,1.78a2.86,2.86,0,0,1-.82.84,3.5,3.5,0,0,1-1.11.49,5.72,5.72,0,0,1-1.43.17A5.39,5.39,0,0,1,106.29,20.59Zm6.6-7.25a2.67,2.67,0,0,0-.66-1.93,2.52,2.52,0,0,0-1.89-.69,4.92,4.92,0,0,0-1.48.23,4.34,4.34,0,0,0-1.29.65l-1.82-1.25A4.89,4.89,0,0,1,107.65,9a6.87,6.87,0,0,1,2.62-.48,6,6,0,0,1,2.69.56,3.81,3.81,0,0,1,1.71,1.61,5.16,5.16,0,0,1,.59,2.54v8.15h-2.37Z" transform="translate(-1.34 -2.16)"/><path class="cls-1" d="M120.68,21a3.81,3.81,0,0,1-1.49-1.76,6.92,6.92,0,0,1-.51-2.79V13.65a7,7,0,0,1,.5-2.8,3.76,3.76,0,0,1,1.46-1.76,4.22,4.22,0,0,1,2.3-.61,3.77,3.77,0,0,1,2,.59,4.24,4.24,0,0,1,1.51,1.65l-.25,2.59a2.93,2.93,0,0,0-.3-1.38,2,2,0,0,0-.85-.88,2.93,2.93,0,0,0-1.35-.29,2.43,2.43,0,0,0-1.91.76,3.2,3.2,0,0,0-.67,2.17v2.75a3.07,3.07,0,0,0,.67,2.13,2.46,2.46,0,0,0,1.91.75A2.7,2.7,0,0,0,125.1,19a2,2,0,0,0,.85-.89,3.09,3.09,0,0,0,.3-1.41l.17,2.67A3.67,3.67,0,0,1,125.18,21a3.51,3.51,0,0,1-2.12.64A4.5,4.5,0,0,1,120.68,21Zm0,5A4.22,4.22,0,0,1,119,24.5L120.67,23a3.37,3.37,0,0,0,1.16,1,2.9,2.9,0,0,0,1.42.37,2.94,2.94,0,0,0,2.21-.79,3,3,0,0,0,.79-2.23V8.71h2.49V21a6.44,6.44,0,0,1-.65,3,4.25,4.25,0,0,1-1.86,1.89,6.2,6.2,0,0,1-2.94.65A6,6,0,0,1,120.73,26Z" transform="translate(-1.34 -2.16)"/><path class="cls-1" d="M132.52,3.63H135V21.38h-2.49ZM136.13,21a3.35,3.35,0,0,1-1.29-1.61l.17-2.64a3.1,3.1,0,0,0,.29,1.39,2.12,2.12,0,0,0,.85.88,2.81,2.81,0,0,0,1.35.3,2.44,2.44,0,0,0,1.91-.75,3.05,3.05,0,0,0,.68-2.12V13.7a3.16,3.16,0,0,0-.68-2.16,2.39,2.39,0,0,0-1.91-.77,2.93,2.93,0,0,0-1.35.29,2,2,0,0,0-.85.86,3,3,0,0,0-.29,1.36l-.26-2.44a4.49,4.49,0,0,1,1.5-1.71,3.67,3.67,0,0,1,2.07-.61,4.18,4.18,0,0,1,2.3.61,3.82,3.82,0,0,1,1.46,1.76,7.08,7.08,0,0,1,.5,2.8v2.75a6.73,6.73,0,0,1-.51,2.76A3.9,3.9,0,0,1,140.56,21a4.45,4.45,0,0,1-2.36.6A3.74,3.74,0,0,1,136.13,21Z" transform="translate(-1.34 -2.16)"/><path class="cls-1" d="M148.16,20.91A4.28,4.28,0,0,1,146.37,19a6.67,6.67,0,0,1-.62-3V14a6.52,6.52,0,0,1,.62-3,4.26,4.26,0,0,1,1.79-1.87,6.53,6.53,0,0,1,5.64,0A4.24,4.24,0,0,1,155.58,11a6.39,6.39,0,0,1,.62,3v2.1a6.44,6.44,0,0,1-.62,3,4.24,4.24,0,0,1-1.78,1.87,6.44,6.44,0,0,1-5.64,0ZM153,18.37a3.39,3.39,0,0,0,.71-2.29V14A3.33,3.33,0,0,0,153,11.7a2.92,2.92,0,0,0-4,0,3.28,3.28,0,0,0-.72,2.28v2.1a3.34,3.34,0,0,0,.72,2.29,2.9,2.9,0,0,0,4,0Z" transform="translate(-1.34 -2.16)"/><path class="cls-1" d="M158.76,8.71h6.34v2.12h-6.34ZM160.11,7a3.64,3.64,0,0,1,.77-2.52,3.14,3.14,0,0,1,2.39-.83h1.83V6h-1.78a.61.61,0,0,0-.54.27,1.23,1.23,0,0,0-.18.7V21.38h-2.49Z" transform="translate(-1.34 -2.16)"/><path class="cls-1" d="M166.69,8.71H173v2.12h-6.33ZM168,7a3.59,3.59,0,0,1,.78-2.52,3.11,3.11,0,0,1,2.38-.83H173V6h-1.78a.62.62,0,0,0-.54.27,1.23,1.23,0,0,0-.18.7V21.38H168Z" transform="translate(-1.34 -2.16)"/><path class="cls-1" d="M175.94,3.63h2.49V6.12h-2.49Zm0,5.08h2.49V21.38h-2.49Z" transform="translate(-1.34 -2.16)"/><path class="cls-1" d="M182.21,8.71h2.49V21.38h-2.49Zm7.69,5a2.92,2.92,0,0,0-.69-2.08,3,3,0,0,0-3.84-.08,2.39,2.39,0,0,0-.67,1.82l-.26-2.45A4.61,4.61,0,0,1,186,9.14a3.74,3.74,0,0,1,2.09-.62,3.93,3.93,0,0,1,3.19,1.35,5.8,5.8,0,0,1,1.13,3.82v7.69H189.9Z" transform="translate(-1.34 -2.16)"/><path class="cls-1" d="M195.75,18.76h2.61v2.62h-2.61Z" transform="translate(-1.34 -2.16)"/><path class="cls-1" d="M213.63,3.63h2.13l6.54,17.75h-2.69L214.69,7.06l-4.92,14.32h-2.68ZM210.1,15.11h9.34v2.37H210.1Z" transform="translate(-1.34 -2.16)"/><path class="cls-1" d="M227.23,18.1a1.16,1.16,0,0,0,.2.72.73.73,0,0,0,.57.25h1.17v2.37h-1.46a2.77,2.77,0,0,1-2.19-.88,3.61,3.61,0,0,1-.78-2.48V3.63h2.49Z" transform="translate(-1.34 -2.16)"/><path class="cls-1" d="M234.47,18.1a1.16,1.16,0,0,0,.2.72.7.7,0,0,0,.57.25h1.17v2.37h-1.47a2.8,2.8,0,0,1-2.19-.88,3.66,3.66,0,0,1-.77-2.48V3.63h2.49Z" transform="translate(-1.34 -2.16)"/><path class="cls-1" d="M245.93,8.71h2.49V21.38h-2.49Zm6.14,2.39a3,3,0,0,0-1.16-.21,2.52,2.52,0,0,0-1.84.65,2.48,2.48,0,0,0-.65,1.82l-.25-2.45a4.67,4.67,0,0,1,1.51-1.76,3.57,3.57,0,0,1,2-.63,4.83,4.83,0,0,1,1.57.25,3.5,3.5,0,0,1,1.22.74l-1.62,2.2A2.11,2.11,0,0,0,252.07,11.1Z" transform="translate(-1.34 -2.16)"/><path class="cls-1" d="M256.6,3.63h2.49V6.12H256.6Zm0,5.08h2.49V21.38H256.6Z" transform="translate(-1.34 -2.16)"/><path class="cls-1" d="M264.52,21a3.78,3.78,0,0,1-1.5-1.76,6.92,6.92,0,0,1-.51-2.79V13.65a7.15,7.15,0,0,1,.5-2.8,3.76,3.76,0,0,1,1.46-1.76,4.24,4.24,0,0,1,2.3-.61,3.83,3.83,0,0,1,2.06.59,4.29,4.29,0,0,1,1.5,1.65l-.25,2.59a2.93,2.93,0,0,0-.3-1.38,1.94,1.94,0,0,0-.84-.88,3,3,0,0,0-1.35-.29,2.4,2.4,0,0,0-1.91.76,3.15,3.15,0,0,0-.68,2.17v2.75a3,3,0,0,0,.68,2.13,2.43,2.43,0,0,0,1.91.75,2.72,2.72,0,0,0,1.35-.31,2,2,0,0,0,.84-.89,3.09,3.09,0,0,0,.3-1.41l.17,2.67A3.6,3.6,0,0,1,269,21a3.49,3.49,0,0,1-2.12.64A4.44,4.44,0,0,1,264.52,21Zm0,5a4.22,4.22,0,0,1-1.75-1.5L264.5,23a3.37,3.37,0,0,0,1.16,1,2.93,2.93,0,0,0,1.43.37,3,3,0,0,0,2.21-.79,3,3,0,0,0,.78-2.23V8.71h2.49V21a6.56,6.56,0,0,1-.64,3,4.32,4.32,0,0,1-1.87,1.89,6.2,6.2,0,0,1-2.94.65A6,6,0,0,1,264.56,26Z" transform="translate(-1.34 -2.16)"/><path class="cls-1" d="M276.35,3.63h2.49V21.38h-2.49ZM284,13.7a2.92,2.92,0,0,0-.69-2.08,2.58,2.58,0,0,0-2-.73,2.62,2.62,0,0,0-1.88.63,2.35,2.35,0,0,0-.67,1.8l-.25-2.44a4.49,4.49,0,0,1,1.53-1.74,3.76,3.76,0,0,1,2.09-.62,3.92,3.92,0,0,1,3.19,1.35,5.8,5.8,0,0,1,1.13,3.82v7.69H284Z" transform="translate(-1.34 -2.16)"/><path class="cls-1" d="M289.34,8.71h5.71V11h-5.71Zm2,11.88a3.8,3.8,0,0,1-.71-2.51V5h2.49V18.1a1.24,1.24,0,0,0,.18.72.64.64,0,0,0,.54.25h1.19v2.37h-1.44A2.81,2.81,0,0,1,291.36,20.59Z" transform="translate(-1.34 -2.16)"/><path class="cls-1" d="M300.84,21.34a8,8,0,0,1-1.83-.66,7.11,7.11,0,0,1-1.58-1.1l1.48-1.82a8.2,8.2,0,0,0,2,1.17,5.31,5.31,0,0,0,2,.39,4.36,4.36,0,0,0,2.22-.45,1.52,1.52,0,0,0,.73-1.38,1.06,1.06,0,0,0-.4-.91,2.32,2.32,0,0,0-1-.41c-.4-.07-1-.13-1.68-.19h-.61a9.2,9.2,0,0,1-2.09-.36,2.76,2.76,0,0,1-1.42-1,3.26,3.26,0,0,1-.57-2.06,4.18,4.18,0,0,1,.55-2.24A3.29,3.29,0,0,1,300.31,9,7.18,7.18,0,0,1,303,8.52a8.88,8.88,0,0,1,1.88.19,8.39,8.39,0,0,1,1.72.54,8.31,8.31,0,0,1,1.57.91L306.71,12a8.08,8.08,0,0,0-1.87-.92,5.85,5.85,0,0,0-1.8-.3,3.4,3.4,0,0,0-1.91.43,1.47,1.47,0,0,0-.63,1.3.88.88,0,0,0,.36.77,2.14,2.14,0,0,0,.91.34q.54.09,1.56.15h.46a11,11,0,0,1,2.27.36,3.09,3.09,0,0,1,1.57,1.06,3.61,3.61,0,0,1,.63,2.29,4.1,4.1,0,0,1-.59,2.27,3.49,3.49,0,0,1-1.76,1.35,8.38,8.38,0,0,1-3,.45A10.12,10.12,0,0,1,300.84,21.34Z" transform="translate(-1.34 -2.16)"/><path class="cls-1" d="M318.15,8.71h2.49V21.38h-2.49Zm6.14,2.39a3,3,0,0,0-1.16-.21,2.52,2.52,0,0,0-1.84.65,2.48,2.48,0,0,0-.65,1.82l-.26-2.45a4.69,4.69,0,0,1,1.52-1.76A3.55,3.55,0,0,1,324,8.52a4.88,4.88,0,0,1,1.57.25,3.7,3.7,0,0,1,1.22.74l-1.62,2.2A2.11,2.11,0,0,0,324.29,11.1Z" transform="translate(-1.34 -2.16)"/><path class="cls-1" d="M330.78,20.9a4.4,4.4,0,0,1-1.9-1.94,6.58,6.58,0,0,1-.65-3.08V14.45a7.47,7.47,0,0,1,.62-3.21,4.5,4.5,0,0,1,1.83-2,5.59,5.59,0,0,1,2.88-.7,4.64,4.64,0,0,1,2.71.79,4.91,4.91,0,0,1,1.71,2.3,9.69,9.69,0,0,1,.6,3.6V16H330V14h6.18a4.24,4.24,0,0,0-.8-2.41,2.24,2.24,0,0,0-1.85-.86,2.7,2.7,0,0,0-2.19.93,3.94,3.94,0,0,0-.78,2.62v1.61a3.32,3.32,0,0,0,.83,2.42,3.18,3.18,0,0,0,2.36.84,3.84,3.84,0,0,0,1.5-.31,4.14,4.14,0,0,0,1.33-.85l1.64,1.64a7,7,0,0,1-2.11,1.39,6.07,6.07,0,0,1-2.36.5A6.33,6.33,0,0,1,330.78,20.9Z" transform="translate(-1.34 -2.16)"/><path class="cls-1" d="M344.37,21.34a7.88,7.88,0,0,1-1.84-.66,7.05,7.05,0,0,1-1.57-1.1l1.48-1.82a8.33,8.33,0,0,0,2,1.17,5.39,5.39,0,0,0,2,.39,4.32,4.32,0,0,0,2.21-.45,1.53,1.53,0,0,0,.74-1.38,1.06,1.06,0,0,0-.4-.91,2.38,2.38,0,0,0-1-.41c-.4-.07-1-.13-1.69-.19h-.61a9.3,9.3,0,0,1-2.09-.36,2.8,2.8,0,0,1-1.42-1,3.26,3.26,0,0,1-.57-2.06,4.27,4.27,0,0,1,.55-2.24A3.32,3.32,0,0,1,343.84,9a7.12,7.12,0,0,1,2.72-.45,8.91,8.91,0,0,1,1.89.19,8.11,8.11,0,0,1,1.71.54,8.38,8.38,0,0,1,1.58.91L350.24,12a8.14,8.14,0,0,0-1.88-.92,5.76,5.76,0,0,0-1.8-.3,3.36,3.36,0,0,0-1.9.43,1.46,1.46,0,0,0-.64,1.3.88.88,0,0,0,.36.77,2.19,2.19,0,0,0,.91.34q.56.09,1.56.15h.47a10.92,10.92,0,0,1,2.26.36,3.05,3.05,0,0,1,1.57,1.06,3.61,3.61,0,0,1,.64,2.29,4.1,4.1,0,0,1-.59,2.27,3.53,3.53,0,0,1-1.76,1.35,8.42,8.42,0,0,1-3,.45A10,10,0,0,1,344.37,21.34Z" transform="translate(-1.34 -2.16)"/><path class="cls-1" d="M357.14,20.9A4.38,4.38,0,0,1,355.25,19a6.58,6.58,0,0,1-.66-3.08V14.45a7.47,7.47,0,0,1,.63-3.21,4.5,4.5,0,0,1,1.83-2,5.54,5.54,0,0,1,2.88-.7,4.66,4.66,0,0,1,2.71.79,4.91,4.91,0,0,1,1.71,2.3,9.7,9.7,0,0,1,.59,3.6V16H356.4V14h6.18a4.31,4.31,0,0,0-.8-2.41,2.24,2.24,0,0,0-1.85-.86,2.67,2.67,0,0,0-2.19.93,3.94,3.94,0,0,0-.78,2.62v1.61a3.32,3.32,0,0,0,.83,2.42,3.16,3.16,0,0,0,2.36.84,3.84,3.84,0,0,0,1.5-.31A4.25,4.25,0,0,0,363,18l1.63,1.64a6.85,6.85,0,0,1-2.11,1.39,6,6,0,0,1-2.35.5A6.34,6.34,0,0,1,357.14,20.9Z" transform="translate(-1.34 -2.16)"/><path class="cls-1" d="M368.36,8.71h2.49V21.38h-2.49Zm6.14,2.39a3,3,0,0,0-1.16-.21,2.48,2.48,0,0,0-1.83.65,2.45,2.45,0,0,0-.66,1.82l-.25-2.45a4.67,4.67,0,0,1,1.51-1.76,3.57,3.57,0,0,1,2.05-.63,4.83,4.83,0,0,1,1.57.25,3.64,3.64,0,0,1,1.23.74l-1.63,2.2A2,2,0,0,0,374.5,11.1Z" transform="translate(-1.34 -2.16)"/><path class="cls-1" d="M386.49,8.71h2.6l-4.76,12.67h-1.88L377.69,8.71h2.6l3.1,9Z" transform="translate(-1.34 -2.16)"/><path class="cls-1" d="M393.49,20.9a4.45,4.45,0,0,1-1.9-1.94,6.71,6.71,0,0,1-.65-3.08V14.45a7.47,7.47,0,0,1,.63-3.21,4.53,4.53,0,0,1,1.82-2,5.59,5.59,0,0,1,2.88-.7,4.61,4.61,0,0,1,2.71.79,5,5,0,0,1,1.72,2.3,9.91,9.91,0,0,1,.59,3.6V16h-8.54V14h6.17a4.24,4.24,0,0,0-.8-2.41,2.22,2.22,0,0,0-1.85-.86,2.7,2.7,0,0,0-2.19.93,4,4,0,0,0-.77,2.62v1.61a3.28,3.28,0,0,0,.83,2.42,3.16,3.16,0,0,0,2.35.84,3.85,3.85,0,0,0,1.51-.31,4.25,4.25,0,0,0,1.33-.85L401,19.67a6.85,6.85,0,0,1-2.11,1.39,6,6,0,0,1-2.36.5A6.33,6.33,0,0,1,393.49,20.9Z" transform="translate(-1.34 -2.16)"/><path class="cls-1" d="M406.35,21a3.81,3.81,0,0,1-1.49-1.76,6.75,6.75,0,0,1-.52-2.79V13.65a7.15,7.15,0,0,1,.5-2.8,3.82,3.82,0,0,1,1.46-1.76,4.26,4.26,0,0,1,2.3-.61,3.8,3.8,0,0,1,2.06.59,4.31,4.31,0,0,1,1.51,1.65l-.26,2.59a3.06,3.06,0,0,0-.29-1.38,2,2,0,0,0-.85-.88,2.93,2.93,0,0,0-1.35-.29,2.41,2.41,0,0,0-1.91.76,3.21,3.21,0,0,0-.68,2.17v2.75a3.08,3.08,0,0,0,.68,2.13,2.44,2.44,0,0,0,1.91.75,2.7,2.7,0,0,0,1.35-.31,2,2,0,0,0,.85-.89,3.22,3.22,0,0,0,.29-1.41l.17,2.67A3.53,3.53,0,0,1,410.84,21a3.48,3.48,0,0,1-2.11.64A4.5,4.5,0,0,1,406.35,21Zm5.56-17.36h2.49V21.38h-2.49Z" transform="translate(-1.34 -2.16)"/><path class="cls-1" d="M417.76,18.76h2.61v2.62h-2.61Z" transform="translate(-1.34 -2.16)"/></g></g></svg>