<svg xmlns="http://www.w3.org/2000/svg" viewBox="0 0 670.36 186.61"><defs><style>.cls-1{fill:#f2f2f2;}.cls-2{fill:#fff;}</style></defs><g id="Layer_2" data-name="Layer 2"><g id="Layer_1-2" data-name="Layer 1"><path class="cls-1" d="M38,19.58H49.43l35.33,95.83H70.26L43.7,38.1,17.14,115.41H2.64Zm-19,62H69.34V94.38H18.92Z" transform="translate(-2.64 -18.59)"/><path class="cls-1" d="M99.26,19.51h13.45v95.9H99.26Zm5.87,42.58h32.69a12.56,12.56,0,0,0,6.78-1.85A12.18,12.18,0,0,0,149.19,55a18,18,0,0,0,1.61-7.81,18.07,18.07,0,0,0-1.61-7.81,12.29,12.29,0,0,0-4.55-5.24,12.55,12.55,0,0,0-6.82-1.84H105.13V19.51h32.16a30,30,0,0,1,14.6,3.43,24,24,0,0,1,9.75,9.72,29.62,29.62,0,0,1,3.46,14.53,29.42,29.42,0,0,1-3.49,14.53,24.26,24.26,0,0,1-9.79,9.73,29.94,29.94,0,0,1-14.53,3.42H105.13Zm26.1,9.82,13.37-3,24.52,46.53h-16Z" transform="translate(-2.64 -18.59)"/><path class="cls-1" d="M174.07,19.58h67.62V32.36H174.07Zm27.09,7.84H214.6v88H201.16Z" transform="translate(-2.64 -18.59)"/><path class="cls-1" d="M268.32,115.41H254.87V19.58h13.45Z" transform="translate(-2.64 -18.59)"/><path class="cls-1" d="M292,19.58h13.45v95.83H292Zm6.59,0h53.72V32.36H298.63Zm0,42.7H345.1V75.07H298.63Z" transform="translate(-2.64 -18.59)"/><path class="cls-1" d="M382.27,115.41H368.83V19.58h13.44Z" transform="translate(-2.64 -18.59)"/><path class="cls-1" d="M419.87,112a29.92,29.92,0,0,1-11.69-12.52A40.67,40.67,0,0,1,404,80.67V54.38a40.67,40.67,0,0,1,4.16-18.79A30.12,30.12,0,0,1,419.87,23a33.81,33.81,0,0,1,17.5-4.45,32.88,32.88,0,0,1,15.16,3.52,31.91,31.91,0,0,1,11.57,10,37.25,37.25,0,0,1,6.29,15H456.62a21.37,21.37,0,0,0-4.19-8,20.57,20.57,0,0,0-6.88-5.44,18.54,18.54,0,0,0-25.31,8.87,27.25,27.25,0,0,0-2.44,11.9V80.67a27.33,27.33,0,0,0,2.44,11.87,18.09,18.09,0,0,0,17.13,10.74,19.61,19.61,0,0,0,8.21-1.78,19.31,19.31,0,0,0,6.85-5.27,20.93,20.93,0,0,0,4.19-8.31h13.77a37,37,0,0,1-6.32,15,32.25,32.25,0,0,1-11.6,10,32.82,32.82,0,0,1-15.1,3.53A34.09,34.09,0,0,1,419.87,112Z" transform="translate(-2.64 -18.59)"/><path class="cls-1" d="M501.64,115.41H488.19V19.58h13.45Z" transform="translate(-2.64 -18.59)"/><path class="cls-1" d="M550.14,19.58h11.47l35.33,95.83h-14.5L555.88,38.1l-26.56,77.31h-14.5Zm-19,62h50.42V94.38H531.1Z" transform="translate(-2.64 -18.59)"/><path class="cls-1" d="M611.44,19.58h13.45v95.83H611.44Zm6.72,83H673v12.79H618.16Z" transform="translate(-2.64 -18.59)"/><path class="cls-2" d="M14.49,204.71H7.82V157.14h6.67Z" transform="translate(-2.64 -18.59)"/><path class="cls-2" d="M26.27,157.14h6.05l23.26,36.78-.79.85V157.14H61.4v47.54H55.29l-23.2-36.22.79-.85v37.07H26.27Z" transform="translate(-2.64 -18.59)"/><path class="cls-2" d="M69.25,157.14h33.57v6.35H69.25ZM82.7,161h6.67v43.67H82.7Z" transform="translate(-2.64 -18.59)"/><path class="cls-2" d="M109.36,157.14H116v47.57h-6.68Zm3.24,0h27.32v6.35H112.6Zm0,20.78h23.72v6.34H112.6Zm0,20.44h27.32v6.35H112.6Z" transform="translate(-2.64 -18.59)"/><path class="cls-2" d="M149.41,157.14h6.67v47.57h-6.67Zm3.33,41.22H180v6.35H152.74Z" transform="translate(-2.64 -18.59)"/><path class="cls-2" d="M187.81,157.14h6.68v47.57h-6.68Zm3.34,41.22h27.22v6.35H191.15Z" transform="translate(-2.64 -18.59)"/><path class="cls-2" d="M232.89,204.71h-6.67V157.14h6.67Z" transform="translate(-2.64 -18.59)"/><path class="cls-2" d="M277.19,179.1v8.3a20.37,20.37,0,0,1-2.06,9.35,14.93,14.93,0,0,1-5.84,6.24,17,17,0,0,1-8.75,2.21,18.14,18.14,0,0,1-8.85-2.08,14.59,14.59,0,0,1-5.91-5.87,18,18,0,0,1-2.09-8.8v-14a20.26,20.26,0,0,1,2.06-9.33,15,15,0,0,1,5.84-6.23,17.06,17.06,0,0,1,8.75-2.21,16.5,16.5,0,0,1,7.54,1.75,16,16,0,0,1,5.78,5,18.5,18.5,0,0,1,3.14,7.43h-7.23a10.32,10.32,0,0,0-2-4.11,9.63,9.63,0,0,0-3.3-2.62,9.1,9.1,0,0,0-3.93-.9,9.47,9.47,0,0,0-5.17,1.41,9.23,9.23,0,0,0-3.43,3.94,13.53,13.53,0,0,0-1.21,5.91v14a11.13,11.13,0,0,0,1.24,5.38,8.88,8.88,0,0,0,3.52,3.59,10.52,10.52,0,0,0,5.25,1.27,10,10,0,0,0,5.17-1.32,8.83,8.83,0,0,0,3.43-3.85,13.63,13.63,0,0,0,1.21-6v-2.06H260.7V179.1Z" transform="translate(-2.64 -18.59)"/><path class="cls-2" d="M287.33,157.14H294v47.57h-6.68Zm3.24,0h27.32v6.35H290.57Zm0,20.78h23.72v6.34H290.57Zm0,20.44h27.32v6.35H290.57Z" transform="translate(-2.64 -18.59)"/><path class="cls-2" d="M327.37,157.14h6.06l23.26,36.78-.79.85V157.14h6.61v47.54h-6.12L333.2,168.46l.78-.85v37.07h-6.61Z" transform="translate(-2.64 -18.59)"/><path class="cls-2" d="M381.17,203a14.85,14.85,0,0,1-5.8-6.22,20.09,20.09,0,0,1-2.06-9.32V174.42a20.13,20.13,0,0,1,2.06-9.33,15,15,0,0,1,5.8-6.23,16.84,16.84,0,0,1,8.69-2.21,16.39,16.39,0,0,1,7.52,1.75,15.93,15.93,0,0,1,5.75,5,18.76,18.76,0,0,1,3.12,7.43h-6.84a10.53,10.53,0,0,0-5.49-6.68,9.22,9.22,0,0,0-12.57,4.4,13.68,13.68,0,0,0-1.21,5.91v13.05a13.68,13.68,0,0,0,1.21,5.89,9,9,0,0,0,8.51,5.33,9.65,9.65,0,0,0,7.48-3.5,10.28,10.28,0,0,0,2.07-4.12h6.84a18.56,18.56,0,0,1-3.14,7.43,16,16,0,0,1-5.76,4.95,16.23,16.23,0,0,1-7.49,1.75A16.92,16.92,0,0,1,381.17,203Z" transform="translate(-2.64 -18.59)"/><path class="cls-2" d="M415.08,157.14h6.68v47.57h-6.68Zm3.24,0h27.32v6.35H418.32Zm0,20.78H442v6.34H418.32Zm0,20.44h27.32v6.35H418.32Z" transform="translate(-2.64 -18.59)"/></g></g></svg>