<svg xmlns="http://www.w3.org/2000/svg" xmlns:xlink="http://www.w3.org/1999/xlink" viewBox="0 0 1999.5 1067.57"><defs><style>.cls-1{fill:url(#radial-gradient);}.cls-13,.cls-15,.cls-16,.cls-17,.cls-18,.cls-19,.cls-2,.cls-21,.cls-22,.cls-6{fill:none;}.cls-3{isolation:isolate;}.cls-11,.cls-4{fill:#f1f1f1;}.cls-5{fill:url(#linear-gradient);}.cls-13,.cls-6{stroke:#f1f1f1;}.cls-13,.cls-15,.cls-16,.cls-6{stroke-miterlimit:10;}.cls-6{stroke-width:1.5px;}.cls-7{mask:url(#mask);}.cls-8{mix-blend-mode:overlay;}.cls-9{clip-path:url(#clip-path);}.cls-10{fill:#fff;}.cls-11{font-size:36.06px;font-family:Montserrat-Bold, Montserrat;font-weight:700;}.cls-12{letter-spacing:0.01em;}.cls-14{fill:#17e3e3;}.cls-15,.cls-16{stroke:#17e3e3;}.cls-15{stroke-width:0.92px;}.cls-17,.cls-18,.cls-19,.cls-21,.cls-22{stroke:#152a77;stroke-linecap:round;stroke-linejoin:round;}.cls-17{stroke-width:2.84px;}.cls-18{stroke-width:3.11px;}.cls-19{stroke-width:3px;}.cls-20{fill:#152a77;}.cls-21{stroke-width:3.16px;}.cls-22{stroke-width:4.73px;}</style><radialGradient id="radial-gradient" cx="481.06" cy="917.34" r="604.13" gradientUnits="userSpaceOnUse"><stop offset="0" stop-color="#bcbec0"/><stop offset="1"/></radialGradient><linearGradient id="linear-gradient" x1="594.62" y1="157.54" x2="1484.39" y2="1428.26" gradientUnits="userSpaceOnUse"><stop offset="0" stop-color="#17d2e3"/><stop offset="0.03" stop-color="#15bbd1"/><stop offset="0.09" stop-color="#1092af"/><stop offset="0.15" stop-color="#0c6d91"/><stop offset="0.22" stop-color="#094e78"/><stop offset="0.3" stop-color="#073464"/><stop offset="0.38" stop-color="#052154"/><stop offset="0.48" stop-color="#031349"/><stop offset="0.6" stop-color="#020b43"/><stop offset="0.82" stop-color="#020941"/><stop offset="0.83" stop-color="#020a42"/></linearGradient><mask id="mask" x="0" y="418.8" width="1286.89" height="997.08" maskUnits="userSpaceOnUse"><g transform="translate(79.24)"><rect class="cls-1" x="-18.81" y="418.8" width="999.74" height="997.08"/></g></mask><clipPath id="clip-path" transform="translate(79.24)"><rect class="cls-2" y="436.03" width="962.32" height="962.31"/></clipPath></defs><g class="cls-3"><g id="Layer_2" data-name="Layer 2"><g id="Layer_1-2" data-name="Layer 1"><rect class="cls-4" x="79.5" width="1920" height="518.23"/><rect class="cls-5" x="79.5" y="518.23" width="1920" height="549.33"/><line class="cls-6" x1="1235.42" y1="595.79" x2="1999.5" y2="595.79"/><line class="cls-6" x1="79.5" y1="595.79" x2="859.49" y2="595.79"/><g class="cls-7"><g class="cls-8"><g class="cls-9"><path class="cls-10" d="M336.85,773l1.95-.49L228,875.67l-.22.28L110.64,825.81l-1.61-.66ZM335,774.54l-222.47,51,115,49.08Z" transform="translate(79.24)"/><path class="cls-10" d="M460.61,562.24l.37-.68,45.65,53.88.34.44L338.3,772.76l-2.68,2.63Zm.54,1.09L340.45,769.58,505.53,615.74Z" transform="translate(79.24)"/><path class="cls-10" d="M109.69,651.77l1-.82.61,174.39,0,.72L-53.46,804.43l-.34,0-.2-.81Zm0,1.62-162,150.15,162.69,21.19Z" transform="translate(79.24)"/><path class="cls-10" d="M109.52,652.1l.06-.87L337.43,772.78l.59.32-.86.9L111,825.9l-.66.18Zm1.14.84.78,171.79,224.39-51.44Z" transform="translate(79.24)"/><path class="cls-10" d="M336.42,773.14l.77-.18.34-.86L506,615.33l2.1-1.92L398.12,842.23l-.14.17L228,876l-.19,0-1.19-.55ZM504.53,618.25l-166,154.46-.74,1.12-.61.17-108,100.65,168.06-33.19Z" transform="translate(79.24)"/><path class="cls-10" d="M110.42,825.26l-.06-.75L227.77,874.9l.88.27-1.37,1-127,52.11-.76.39Zm.87.87-10.4,100.81,125.6-51.43Z" transform="translate(79.24)"/><path class="cls-10" d="M113.28,825.15-9.57,867l-.41.11-43.9-62.9-.69-1Zm-4.88.41L-52.25,804.63-9.54,866Z" transform="translate(79.24)"/><path class="cls-10" d="M226.75,875.43l1.22-.6L337.07,935l1.12.6L87.7,1006.25l-2.26.55Zm1,.58-.35.12L89.55,1004.58,335.4,935.26Z" transform="translate(79.24)"/><path class="cls-10" d="M100.38,927.31l2.54,1.37-75.2-9.11-.18,1.49-39-56.33Zm-2.94-.46L-7.89,868.11l35.05,50.33Z" transform="translate(79.24)"/><path class="cls-10" d="M110.71,824.92l.76-.4-10.85,103.4-.08.81L-10,866.88l-1.09-.53Zm-.49,1.17L-8.46,866.52,99.66,926.84Z" transform="translate(79.24)"/><polygon class="cls-10" points="95.19 1066.62 106.75 920.93 166.11 1005.76 134.41 1066.62 135.66 1066.62 167.38 1005.59 167.17 1005.5 105.96 917.88 105.93 919.4 94.19 1066.62 95.19 1066.62"/><polygon class="cls-10" points="135.67 1066.62 167 1006.42 291.85 1066.62 294.23 1066.62 166.51 1005.1 166.26 1005.51 134.48 1066.62 135.67 1066.62"/><path class="cls-10" d="M397.05,841.68l.33-.52,155.68,34.07L336.13,936.36Zm.88.86-59.36,91.83,209.91-59Z" transform="translate(79.24)"/><path class="cls-10" d="M336.69,934.9l.12,0,.07.18,213.64-60.25.83-.22.42,145,.06.64-464.34-14-3.47-.22ZM550.17,876l-212.4,59.69-.53.73-.65-.45L91.16,1005.29l459.59,13.78Z" transform="translate(79.24)"/><path class="cls-10" d="M506.51,614l44.76,261.06.25,1-154-33.61-.61-.15Zm-.49,3.6L398.37,841.43,550,874.6Z" transform="translate(79.24)"/><path class="cls-10" d="M550.19,875.24l-.11-2.1,60.16,104.55.31.42-58.82,42-.85.6Zm.95,2.08.73,141.21,57.18-40.59Z" transform="translate(79.24)"/><path class="cls-10" d="M755.39,873.71l1.85.06L610.14,978.45l-.46.39L550.24,875.49l-.43-.84Zm-1.61,1.08-202.13.91,58.29,101.49Z" transform="translate(79.24)"/><path class="cls-10" d="M693.72,585.11l1-.08-52,105.33-.39.44L506.08,616.3l-1.58-.82Zm-.91,1.25L508,616l134,73.45Z" transform="translate(79.24)"/><path class="cls-10" d="M641.64,689.84l.4-.28,195.33,37.87h.29l.64.75L551.06,875.73l-1.58.89Zm.84.88L552.05,874,836.21,728.15Z" transform="translate(79.24)"/><path class="cls-10" d="M693.28,585.43l.33-.8L837.68,727.48l1.25,1.13L642.24,690.72l-.82-.22Zm.66,1.08L643,689.8l192.64,37.12Z" transform="translate(79.24)"/><path class="cls-10" d="M505.72,615.88l-.14-1.09,136.85,74.87.39.26L551.18,875.46l-.76,1.57Zm1.23.83L551,873.58l90.38-183.32Z" transform="translate(79.24)"/><path class="cls-10" d="M397.62,841.37l1.21-.19-61,94.49-.06.05-1.18.28L227.66,875.93l-1.39-.66ZM337,934.84l59.43-92.11L229.38,875.62l107.43,59.24Z" transform="translate(79.24)"/><polygon class="cls-10" points="291.83 1066.62 294.22 1066.62 169.3 1006.42 628.74 1020.01 556.45 1066.62 558.48 1066.62 632.34 1019.12 630.6 1019.15 164.2 1005.04 166.59 1006.28 291.83 1066.62"/><path class="cls-10" d="M609.94,977.19l29.9,51.86.38.88-89-9.68-1.44-.32Zm-.26,1.65-56.86,40.34,85.5,9.51Z" transform="translate(79.24)"/><path class="cls-10" d="M1187.13,805.42l.79-.19.12.53-15.75,57.77-.23.51-188,9.67L980,874Zm-.44,1.36L988,872.56l183.13-9.69Z" transform="translate(79.24)"/><path class="cls-10" d="M1186.94,805.76l.6-2,14.94,58.55-30.85,1.74-.72,0Zm.44,2.4-15,54.69,28.5-1.64Z" transform="translate(79.24)"/><path class="cls-10" d="M1111.29,509.91l.85-2,.34,1.47,1.44-.38-1.22,1.19,75.5,296.08L984.14,873.68l-.92.48Zm.54,1.8L984.88,872.33l201.81-66.8Z" transform="translate(79.24)"/><path class="cls-10" d="M461,561.56l232.95,23.53,4.18.37L506.4,616.32l-.32.1-45.44-53.7-.14-.22Zm228.59,24.11L462.08,562.74l44.38,52.39Z" transform="translate(79.24)"/><path class="cls-10" d="M837.21,727.59l.45-.17L984.42,872.89l.94.9-229.71,1h0l-205,1-2.26-.07ZM755.75,872.83l.26,1,226.72-1.22L837.35,728.72,553,874.63l202.23-.86Z" transform="translate(79.24)"/><path class="cls-10" d="M922.6,490.56l1.09-.4L838.32,728.09l-.23.63-.93-.38L692.86,585.5Zm-.75,1.57L694.76,585.86,837.51,727.38Z" transform="translate(79.24)"/><path class="cls-10" d="M922.35,490.91l0-.42,189.71,19,.75.31-.5.7L838.21,728.39l-1.64,1.24Zm.85.88L838.93,726.3l271.52-215.83Z" transform="translate(79.24)"/><path class="cls-10" d="M837.21,727.59,1113,508.51l-128.39,365-.29.79L837.1,728.48l-.47-.48Zm273.55-215.76L838.3,728.17,983.75,872.11Z" transform="translate(79.24)"/><path class="cls-10" d="M99.68,927.6l0-.25L227,875.23l2.74-1.19L87.81,1006.14l-1.08,1.09Zm.92.61-12.18,76L224.54,877.32Z" transform="translate(79.24)"/><path class="cls-10" d="M26.68,918.21l73.47,9,.61,0L88,1005.76l-.21,1.46-61-87.53-.2-.09Zm72.86,10.07L28,919.66l59.17,84.64Z" transform="translate(79.24)"/><path class="cls-10" d="M-10.27,866.47l-.57-2.43,38.47,55.12,0,.14-8.28,104.08Zm1.48,2.37,27.84,146.38,7.52-95.62Z" transform="translate(79.24)"/><path class="cls-10" d="M95.89,1002.89a6.84,6.84,0,0,0-8.36-5,6.74,6.74,0,0,0-5,8.4,6.85,6.85,0,0,0,8.43,5A6.93,6.93,0,0,0,95.89,1002.89Z" transform="translate(79.24)"/><path class="cls-10" d="M107.42,925.93A6.7,6.7,0,0,0,99.13,921a6.91,6.91,0,0,0,3.43,13.38A6.72,6.72,0,0,0,107.42,925.93Z" transform="translate(79.24)"/><path class="cls-10" d="M24.75,1015.75a7,7,0,0,0-8.44-5.09,7,7,0,0,0,3.43,13.47A7,7,0,0,0,24.75,1015.75Z" transform="translate(79.24)"/><path class="cls-10" d="M345.18,932.69a6.92,6.92,0,0,0-8.32-5.13,7.07,7.07,0,0,0-5,8.5,7,7,0,0,0,8.46,5A6.79,6.79,0,0,0,345.18,932.69Z" transform="translate(79.24)"/><path class="cls-10" d="M235.27,874.54a6.84,6.84,0,0,0-8.39-5.09,7,7,0,0,0,3.46,13.48A6.79,6.79,0,0,0,235.27,874.54Z" transform="translate(79.24)"/><path class="cls-10" d="M-3,864a6.77,6.77,0,0,0-8.36-5.06,6.78,6.78,0,0,0-4.83,8.44,6.79,6.79,0,0,0,8.24,5A6.8,6.8,0,0,0-3,864Z" transform="translate(79.24)"/><path class="cls-10" d="M115.67,823.46a6.78,6.78,0,0,0-8.38-5,6.91,6.91,0,1,0,3.45,13.39A6.84,6.84,0,0,0,115.67,823.46Z" transform="translate(79.24)"/><path class="cls-10" d="M-46.85,802.75a6.73,6.73,0,0,0-8.27-4.88,6.65,6.65,0,0,0-5,8.25,6.75,6.75,0,0,0,8.38,5.06A6.83,6.83,0,0,0-46.85,802.75Z" transform="translate(79.24)"/><path class="cls-10" d="M-65.53,865.58a6.92,6.92,0,0,0-8.51-5A6.72,6.72,0,0,0-79,869a6.62,6.62,0,0,0,8.31,4.75A6.8,6.8,0,0,0-65.53,865.58Z" transform="translate(79.24)"/><path class="cls-10" d="M116.28,651.69A6.88,6.88,0,0,0,103,655.1a6.88,6.88,0,1,0,13.33-3.41Z" transform="translate(79.24)"/><path class="cls-10" d="M404.53,840.88a6.84,6.84,0,0,0-8.31-5.06,7,7,0,0,0-5.09,8.46,6.9,6.9,0,0,0,8.49,4.93A6.78,6.78,0,0,0,404.53,840.88Z" transform="translate(79.24)"/><path class="cls-10" d="M343.44,771.37a6.92,6.92,0,1,0-4.89,8.36A6.92,6.92,0,0,0,343.44,771.37Z" transform="translate(79.24)"/><path class="cls-10" d="M512.74,615.91a6.92,6.92,0,0,0-8.41-4.95,6.92,6.92,0,0,0,3.41,13.41A7,7,0,0,0,512.74,615.91Z" transform="translate(79.24)"/><path class="cls-10" d="M468.12,561.69a6.83,6.83,0,1,0-13.24,3.38,6.83,6.83,0,1,0,13.24-3.38Z" transform="translate(79.24)"/><path class="cls-10" d="M648.66,688.06a6.92,6.92,0,1,0-5,8.44A6.93,6.93,0,0,0,648.66,688.06Z" transform="translate(79.24)"/><path class="cls-10" d="M699.58,584.62a7,7,0,0,0-13.49,3.46,7,7,0,1,0,13.49-3.46Z" transform="translate(79.24)"/><path class="cls-10" d="M845,726.46a6.78,6.78,0,0,0-8.37-4.87,6.85,6.85,0,0,0-5,8.32A6.91,6.91,0,1,0,845,726.46Z" transform="translate(79.24)"/><path class="cls-10" d="M1117.78,508a6.92,6.92,0,1,0-13.41,3.42,6.92,6.92,0,0,0,13.41-3.42Z" transform="translate(79.24)"/><path class="cls-10" d="M930.4,488.43a7,7,0,0,0-8.39-4.95,7,7,0,0,0-5,8.38,6.92,6.92,0,1,0,13.4-3.43Z" transform="translate(79.24)"/><path class="cls-10" d="M558.57,1016.8a7,7,0,0,0-8.41-5,6.86,6.86,0,0,0-4.9,8.42,6.6,6.6,0,0,0,8.3,4.94A6.71,6.71,0,0,0,558.57,1016.8Z" transform="translate(79.24)"/><path class="cls-10" d="M646.75,1028.71a6.92,6.92,0,1,0-5,8.34A6.85,6.85,0,0,0,646.75,1028.71Z" transform="translate(79.24)"/><path class="cls-10" d="M762.37,873.08a6.84,6.84,0,0,0-8.39-4.92,6.89,6.89,0,1,0,8.39,4.92Z" transform="translate(79.24)"/><path class="cls-10" d="M991.35,872.1A6.9,6.9,0,1,0,978,875.51a6.9,6.9,0,0,0,13.36-3.41Z" transform="translate(79.24)"/><path class="cls-10" d="M1193.62,804a6.94,6.94,0,1,0-4.92,8.5A6.92,6.92,0,0,0,1193.62,804Z" transform="translate(79.24)"/><path class="cls-10" d="M1207.49,861.05a5.2,5.2,0,1,0-10.08,2.59,5.21,5.21,0,0,0,10.08-2.59Z" transform="translate(79.24)"/><path class="cls-10" d="M1178.74,862.32a6.87,6.87,0,1,0-5,8.33A6.79,6.79,0,0,0,1178.74,862.32Z" transform="translate(79.24)"/><path class="cls-10" d="M558.27,873.16a6.94,6.94,0,1,0-4.95,8.5A6.93,6.93,0,0,0,558.27,873.16Z" transform="translate(79.24)"/><polygon class="cls-10" points="68.56 865.99 26.02 805.07 8.12 865.77 6.93 865.7 25.28 803.91 25.45 803.44 26.06 803.27 69.72 866.02 68.56 865.99"/><polygon class="cls-10" points="70.86 868.23 6.99 866.72 7.55 865.59 70.61 867.27 70.86 868.23"/></g></g></g><text class="cls-11" transform="translate(946.06 604.75)">M<tspan class="cls-12" x="34.44" y="0">a</tspan><tspan x="56.91" y="0">gboffin</tspan></text><rect class="cls-13" x="926.82" y="558.4" width="231.17" height="66.95"/><path d="M723,37.8h2l4,19.34,3.42-19.34h2.88l-4.7,23.43h-3.06l-3.45-17-3.64,17h-3.08L712.75,37.8h2.88L719,57.14Z" transform="translate(79.24)"/><path d="M738.87,60.7a5.08,5.08,0,0,1-2.12-2.23A7.76,7.76,0,0,1,736,55V51.08a8.62,8.62,0,0,1,.71-3.69,5.09,5.09,0,0,1,2-2.33,6.2,6.2,0,0,1,3.25-.81,5.93,5.93,0,0,1,3.14.8,5.08,5.08,0,0,1,2,2.33,9.19,9.19,0,0,1,.68,3.7V54h-10V51.63h7.33v-1a4.44,4.44,0,0,0-.84-2.89,2.87,2.87,0,0,0-2.35-1,3,3,0,0,0-2.5,1.09,4.78,4.78,0,0,0-.89,3.07V55a4,4,0,0,0,1,2.85,3.46,3.46,0,0,0,2.65,1,3.06,3.06,0,0,0,1.84-.54,2.77,2.77,0,0,0,1-1.52l2.53.8a4.68,4.68,0,0,1-1.84,2.86,6.09,6.09,0,0,1-3.57,1A6.75,6.75,0,0,1,738.87,60.7Z" transform="translate(79.24)"/><path d="M759.48,37.8h2.75V61.23h-2.75Zm4.09,22.93A3.9,3.9,0,0,1,762,58.61l.22-3a4.28,4.28,0,0,0,.36,1.82,2.7,2.7,0,0,0,1,1.2,3.07,3.07,0,0,0,1.65.43,2.9,2.9,0,0,0,2.32-1,4,4,0,0,0,.82-2.71v-5a4,4,0,0,0-.82-2.71,2.9,2.9,0,0,0-2.32-1,3.06,3.06,0,0,0-1.65.42,2.63,2.63,0,0,0-1,1.19,4.16,4.16,0,0,0-.36,1.76l-.34-2.75A5.13,5.13,0,0,1,763.73,45a4.77,4.77,0,0,1,2.66-.79,4.56,4.56,0,0,1,2.57.71A4.46,4.46,0,0,1,770.59,47a8.86,8.86,0,0,1,.55,3.31v5.05a8.35,8.35,0,0,1-.58,3.29,4.47,4.47,0,0,1-1.68,2.09,4.75,4.75,0,0,1-2.65.72A4.65,4.65,0,0,1,763.57,60.73Z" transform="translate(79.24)"/><path d="M777.43,55.71a3.24,3.24,0,0,0,.79,2.33,3,3,0,0,0,2.3.84,3.09,3.09,0,0,0,2.28-.78,3,3,0,0,0,.78-2.23l.23,2.8a4.3,4.3,0,0,1-4.27,2.81,4.44,4.44,0,0,1-3.6-1.5,6.42,6.42,0,0,1-1.25-4.24V44.51h2.74Zm6.15-11.2h2.73V61.23h-2.73Z" transform="translate(79.24)"/><path d="M790.77,38.1h2.75v2.73h-2.75Zm0,6.41h2.75V61.23h-2.75Z" transform="translate(79.24)"/><path d="M800.74,56.84a2,2,0,0,0,.4,1.36,1.32,1.32,0,0,0,1.1.49h1.27v2.54H801.9A3.63,3.63,0,0,1,799,60.07a4.78,4.78,0,0,1-1-3.27v-19h2.75Z" transform="translate(79.24)"/><path d="M808.41,60.81a4.31,4.31,0,0,1-1.66-2,7.84,7.84,0,0,1-.58-3.19V50.24a8.38,8.38,0,0,1,.57-3.26,4.3,4.3,0,0,1,1.63-2,4.63,4.63,0,0,1,2.59-.71,4.71,4.71,0,0,1,2.6.76,5.23,5.23,0,0,1,1.86,2.21L815.08,50a4.05,4.05,0,0,0-.35-1.75,2.74,2.74,0,0,0-1.05-1.18,3.11,3.11,0,0,0-1.64-.43,2.87,2.87,0,0,0-2.3,1,4,4,0,0,0-.81,2.68v5.28a3.73,3.73,0,0,0,.81,2.56,2.91,2.91,0,0,0,2.3.91,3,3,0,0,0,1.64-.43,2.78,2.78,0,0,0,1-1.18,4,4,0,0,0,.36-1.74l.23,2.9a4.34,4.34,0,0,1-1.61,2.14,4.53,4.53,0,0,1-2.66.76A4.76,4.76,0,0,1,808.41,60.81Zm6.67-23h2.76V61.23h-2.76Z" transform="translate(79.24)"/><path d="M829.86,37.8h2.76V61.23h-2.76Zm9.07,12.51a3.69,3.69,0,0,0-.82-2.6,3.59,3.59,0,0,0-4.7-.05,3.52,3.52,0,0,0-.79,2.5l-.34-2.9A5.1,5.1,0,0,1,834.13,45a4.94,4.94,0,0,1,2.72-.76,4.41,4.41,0,0,1,3.59,1.51,6.66,6.66,0,0,1,1.25,4.34V61.23h-2.76Z" transform="translate(79.24)"/><path d="M848.41,60.7a5.08,5.08,0,0,1-2.12-2.23,7.75,7.75,0,0,1-.74-3.52V51.08a8.77,8.77,0,0,1,.71-3.69,5.16,5.16,0,0,1,2.06-2.33,6.16,6.16,0,0,1,3.24-.81,5.94,5.94,0,0,1,3.15.8,5.08,5.08,0,0,1,2,2.33,9.19,9.19,0,0,1,.68,3.7V54h-10V51.63h7.33v-1a4.44,4.44,0,0,0-.83-2.89,2.89,2.89,0,0,0-2.36-1,3,3,0,0,0-2.49,1.09,4.78,4.78,0,0,0-.89,3.07V55a4,4,0,0,0,1,2.85,3.45,3.45,0,0,0,2.64,1,3.09,3.09,0,0,0,1.85-.54,2.82,2.82,0,0,0,1-1.52l2.53.8a4.65,4.65,0,0,1-1.85,2.86,6.09,6.09,0,0,1-3.57,1A6.73,6.73,0,0,1,848.41,60.7Z" transform="translate(79.24)"/><path d="M862.05,60.23a4.85,4.85,0,0,1-1.32-3.69,5.31,5.31,0,0,1,1.36-3.94,5.54,5.54,0,0,1,4.06-1.34H870l.22,2.3h-4.06a2.77,2.77,0,0,0-2.11.75,3.16,3.16,0,0,0-.71,2.23,2.39,2.39,0,0,0,.78,2,3.55,3.55,0,0,0,2.32.66,4.65,4.65,0,0,0,2.55-.58,2,2,0,0,0,.86-1.73l.34,1.87a3.65,3.65,0,0,1-.8,1.54,3.34,3.34,0,0,1-1.42.92,6.24,6.24,0,0,1-2,.3A5.44,5.44,0,0,1,862.05,60.23Zm7.8-10.42a3.23,3.23,0,0,0-.81-2.34,3.05,3.05,0,0,0-2.3-.84,3.47,3.47,0,0,0-1.89.51,3.19,3.19,0,0,0-1.22,1.4l-2.32-.7a4.62,4.62,0,0,1,1.9-2.65,6.11,6.11,0,0,1,3.52-1,6.84,6.84,0,0,1,3.12.66,4.48,4.48,0,0,1,2,1.88,6.13,6.13,0,0,1,.68,3V61.23h-2.65Z" transform="translate(79.24)"/><path d="M879.52,56.84a2,2,0,0,0,.4,1.36,1.32,1.32,0,0,0,1.1.49h1.27v2.54h-1.61a3.63,3.63,0,0,1-2.89-1.16,4.78,4.78,0,0,1-1-3.27v-19h2.75Z" transform="translate(79.24)"/><path d="M884.06,44.51h7.38V47h-7.38Zm2.66,15.69a5,5,0,0,1-1-3.32V39.64h2.76V56.92a2,2,0,0,0,.39,1.34,1.34,1.34,0,0,0,1.11.46h1.41v2.59H889.7A3.73,3.73,0,0,1,886.72,60.2Z" transform="translate(79.24)"/><path d="M895.07,37.8h2.76V61.23h-2.76Zm9.07,12.51a3.69,3.69,0,0,0-.82-2.6,3.59,3.59,0,0,0-4.7-.05,3.52,3.52,0,0,0-.79,2.5l-.34-2.9A5.1,5.1,0,0,1,899.34,45a4.94,4.94,0,0,1,2.72-.76,4.41,4.41,0,0,1,3.59,1.51,6.66,6.66,0,0,1,1.25,4.34V61.23h-2.76Z" transform="translate(79.24)"/><path d="M911.36,38.1h2.76v2.73h-2.76Zm0,6.41h2.76V61.23h-2.76Z" transform="translate(79.24)"/><path d="M921,60.7a5.14,5.14,0,0,1-2.12-2.23,7.76,7.76,0,0,1-.73-3.52V51.08a8.62,8.62,0,0,1,.71-3.69,5.09,5.09,0,0,1,2.05-2.33,6.2,6.2,0,0,1,3.25-.81,5.93,5.93,0,0,1,3.14.8,5.08,5.08,0,0,1,2,2.33,9,9,0,0,1,.68,3.7V54h-10V51.63h7.33v-1a4.44,4.44,0,0,0-.84-2.89,2.87,2.87,0,0,0-2.35-1,3,3,0,0,0-2.5,1.09,4.78,4.78,0,0,0-.89,3.07V55a4,4,0,0,0,1,2.85,3.46,3.46,0,0,0,2.65,1,3.06,3.06,0,0,0,1.84-.54,2.77,2.77,0,0,0,1-1.52l2.53.8A4.68,4.68,0,0,1,928,60.5a6.09,6.09,0,0,1-3.57,1A6.77,6.77,0,0,1,921,60.7Z" transform="translate(79.24)"/><path d="M933.89,44.51h2.75V61.23h-2.75ZM941.8,47a3,3,0,0,0-.94-.14,4.4,4.4,0,0,0-3.07,1,3.67,3.67,0,0,0-1.15,2.8l-.34-3.23a6.24,6.24,0,0,1,2.22-2.36,5.71,5.71,0,0,1,3-.84,3,3,0,0,1,1,.17,2.54,2.54,0,0,1,.81.49l-.9,2.52A1.8,1.8,0,0,0,941.8,47Z" transform="translate(79.24)"/><path d="M943.59,58.24h3v4.54l-3,3.3Z" transform="translate(79.24)"/><path d="M958.27,37.8H961V61.23h-2.75Zm9.07,12.51a3.73,3.73,0,0,0-.82-2.6,3.59,3.59,0,0,0-4.7-.05,3.52,3.52,0,0,0-.8,2.5l-.34-2.9A5.05,5.05,0,0,1,962.54,45a4.94,4.94,0,0,1,2.72-.76,4.39,4.39,0,0,1,3.58,1.51,6.6,6.6,0,0,1,1.25,4.34V61.23h-2.75Z" transform="translate(79.24)"/><path d="M975.15,60.23a4.85,4.85,0,0,1-1.32-3.69,5.31,5.31,0,0,1,1.36-3.94,5.54,5.54,0,0,1,4.06-1.34h3.85l.22,2.3h-4.06a2.77,2.77,0,0,0-2.11.75,3.16,3.16,0,0,0-.71,2.23,2.39,2.39,0,0,0,.78,2,3.55,3.55,0,0,0,2.32.66,4.65,4.65,0,0,0,2.55-.58,2,2,0,0,0,.86-1.73l.34,1.87a3.65,3.65,0,0,1-.8,1.54,3.34,3.34,0,0,1-1.42.92,6.24,6.24,0,0,1-2,.3A5.44,5.44,0,0,1,975.15,60.23ZM983,49.81a3.23,3.23,0,0,0-.81-2.34,3.05,3.05,0,0,0-2.3-.84,3.47,3.47,0,0,0-1.89.51,3.19,3.19,0,0,0-1.22,1.4l-2.32-.7a4.57,4.57,0,0,1,1.9-2.65,6.11,6.11,0,0,1,3.52-1,6.77,6.77,0,0,1,3.11.66,4.45,4.45,0,0,1,2,1.88,6.13,6.13,0,0,1,.67,3V61.23H983Z" transform="translate(79.24)"/><path d="M989.87,44.51h2.75V68h-2.75ZM994,60.73a4,4,0,0,1-1.57-2.12l.23-3A4.44,4.44,0,0,0,993,57.4a2.83,2.83,0,0,0,1,1.2,3.13,3.13,0,0,0,1.66.43,2.91,2.91,0,0,0,2.32-1,4.1,4.1,0,0,0,.82-2.71v-5a4.1,4.1,0,0,0-.82-2.71,2.91,2.91,0,0,0-2.32-1,3.12,3.12,0,0,0-1.66.42,2.75,2.75,0,0,0-1,1.19,4.32,4.32,0,0,0-.35,1.76l-.34-2.75A5,5,0,0,1,994.11,45a4.68,4.68,0,0,1,2.67-.79,4.58,4.58,0,0,1,2.57.71A4.45,4.45,0,0,1,1001,47a8.65,8.65,0,0,1,.56,3.31v5.05a8.35,8.35,0,0,1-.58,3.29,4.53,4.53,0,0,1-1.68,2.09,4.75,4.75,0,0,1-2.65.72A4.65,4.65,0,0,1,994,60.73Z" transform="translate(79.24)"/><path d="M1005.48,44.51h2.75V68h-2.75Zm4.09,16.22a3.9,3.9,0,0,1-1.56-2.12l.22-3a4.28,4.28,0,0,0,.36,1.82,2.77,2.77,0,0,0,1,1.2,3.12,3.12,0,0,0,1.65.43,2.9,2.9,0,0,0,2.32-1,4,4,0,0,0,.82-2.71v-5a4,4,0,0,0-.82-2.71,2.9,2.9,0,0,0-2.32-1,3.11,3.11,0,0,0-1.65.42,2.69,2.69,0,0,0-1,1.19,4.16,4.16,0,0,0-.36,1.76l-.33-2.75a5.05,5.05,0,0,1,1.82-2.28,4.68,4.68,0,0,1,2.67-.79,4.56,4.56,0,0,1,2.57.71,4.4,4.4,0,0,1,1.63,2.08,8.85,8.85,0,0,1,.56,3.31v5.05a8.53,8.53,0,0,1-.58,3.29,4.49,4.49,0,0,1-1.69,2.09,4.73,4.73,0,0,1-2.65.72A4.65,4.65,0,0,1,1009.57,60.73Z" transform="translate(79.24)"/><path d="M1021.29,38.1H1024v2.73h-2.75Zm0,6.41H1024V61.23h-2.75Z" transform="translate(79.24)"/><path d="M1031,60.7a5.06,5.06,0,0,1-2.11-2.23,7.75,7.75,0,0,1-.74-3.52V51.08a8.77,8.77,0,0,1,.71-3.69,5.1,5.1,0,0,1,2.06-2.33,6.13,6.13,0,0,1,3.24-.81,5.91,5.91,0,0,1,3.14.8,5,5,0,0,1,2,2.33,9,9,0,0,1,.69,3.7V54h-10V51.63h7.33v-1a4.44,4.44,0,0,0-.84-2.89,2.86,2.86,0,0,0-2.35-1,3,3,0,0,0-2.5,1.09,4.77,4.77,0,0,0-.88,3.07V55a4,4,0,0,0,1,2.85,3.42,3.42,0,0,0,2.64,1,3.09,3.09,0,0,0,1.85-.54,2.82,2.82,0,0,0,1-1.52l2.53.8a4.69,4.69,0,0,1-1.85,2.86,6.09,6.09,0,0,1-3.57,1A6.8,6.8,0,0,1,1031,60.7Z" transform="translate(79.24)"/><path d="M1043.81,44.51h2.76V61.23h-2.76Zm7.91,2.49a2.89,2.89,0,0,0-.93-.14,4.43,4.43,0,0,0-3.08,1,3.67,3.67,0,0,0-1.14,2.8l-.34-3.23a6.29,6.29,0,0,1,2.21-2.36,5.72,5.72,0,0,1,3-.84,3.09,3.09,0,0,1,1,.17,2.39,2.39,0,0,1,.8.49l-.9,2.52A1.72,1.72,0,0,0,1051.72,47Z" transform="translate(79.24)"/><path d="M1062.55,44.51h2.76l2.93,12.84,3.51-12.84h1.87l3.51,12.84,2.95-12.84h2.76l-4.56,16.72H1076l-3.33-11.78-3.32,11.78h-2.27Z" transform="translate(79.24)"/><path d="M1087.87,60.77a4.82,4.82,0,0,1-2-2.07,7.19,7.19,0,0,1-.7-3.28V50.23a7.06,7.06,0,0,1,.7-3.25,4.64,4.64,0,0,1,2-2,6.54,6.54,0,0,1,3.15-.71,6.61,6.61,0,0,1,3.16.71,4.61,4.61,0,0,1,2,2,7.19,7.19,0,0,1,.68,3.25v5.23a7.19,7.19,0,0,1-.68,3.25,4.76,4.76,0,0,1-2,2.06,6.61,6.61,0,0,1-3.16.71A6.54,6.54,0,0,1,1087.87,60.77ZM1093.3,58a3.64,3.64,0,0,0,.82-2.55V50.26a3.59,3.59,0,0,0-.82-2.52,2.91,2.91,0,0,0-2.29-.89,2.88,2.88,0,0,0-2.28.89,3.68,3.68,0,0,0-.8,2.52v5.17a3.68,3.68,0,0,0,.81,2.55,2.87,2.87,0,0,0,2.27.9A2.92,2.92,0,0,0,1093.3,58Z" transform="translate(79.24)"/><path d="M1100.82,44.51h2.76V61.23h-2.76Zm7.91,2.49a2.93,2.93,0,0,0-.93-.14,4.43,4.43,0,0,0-3.08,1,3.67,3.67,0,0,0-1.14,2.8l-.34-3.23a6.29,6.29,0,0,1,2.21-2.36,5.71,5.71,0,0,1,3-.84,3.15,3.15,0,0,1,1,.17,2.39,2.39,0,0,1,.8.49l-.9,2.52A1.72,1.72,0,0,0,1108.73,47Z" transform="translate(79.24)"/><path d="M1113,37.8h2.75V61.23H1113Zm1.48,17.6,8-10.89h3.11L1114.4,58.87Zm3.88-3.22L1120,50l6.32,11.28h-3.08Z" transform="translate(79.24)"/><path d="M1128.38,44.51h2.75V68h-2.75Zm4.09,16.22a4,4,0,0,1-1.57-2.12l.23-3a4.44,4.44,0,0,0,.35,1.82,2.83,2.83,0,0,0,1,1.2,3.13,3.13,0,0,0,1.66.43,2.91,2.91,0,0,0,2.32-1,4.1,4.1,0,0,0,.82-2.71v-5a4.1,4.1,0,0,0-.82-2.71,2.91,2.91,0,0,0-2.32-1,3.12,3.12,0,0,0-1.66.42,2.75,2.75,0,0,0-1,1.19,4.32,4.32,0,0,0-.35,1.76l-.34-2.75a5,5,0,0,1,1.83-2.28,4.68,4.68,0,0,1,2.67-.79,4.58,4.58,0,0,1,2.57.71,4.45,4.45,0,0,1,1.62,2.08,8.65,8.65,0,0,1,.56,3.31v5.05a8.35,8.35,0,0,1-.58,3.29,4.53,4.53,0,0,1-1.68,2.09,4.75,4.75,0,0,1-2.65.72A4.62,4.62,0,0,1,1132.47,60.73Z" transform="translate(79.24)"/><path d="M1146.74,56.84a2.1,2.1,0,0,0,.4,1.36,1.32,1.32,0,0,0,1.1.49h1.28v2.54h-1.62a3.63,3.63,0,0,1-2.89-1.16,4.78,4.78,0,0,1-1-3.27v-19h2.75Z" transform="translate(79.24)"/><path d="M1153.2,60.23a4.85,4.85,0,0,1-1.32-3.69,5.27,5.27,0,0,1,1.37-3.94,5.5,5.5,0,0,1,4-1.34h3.85l.23,2.3h-4.07a2.79,2.79,0,0,0-2.11.75,3.16,3.16,0,0,0-.71,2.23,2.37,2.37,0,0,0,.79,2,3.5,3.5,0,0,0,2.31.66,4.62,4.62,0,0,0,2.55-.58,2,2,0,0,0,.86-1.73l.34,1.87a3.54,3.54,0,0,1-.8,1.54,3.34,3.34,0,0,1-1.42.92,6.24,6.24,0,0,1-2,.3A5.44,5.44,0,0,1,1153.2,60.23Zm7.8-10.42a3.23,3.23,0,0,0-.81-2.34,3.05,3.05,0,0,0-2.3-.84,3.47,3.47,0,0,0-1.89.51,3.19,3.19,0,0,0-1.22,1.4l-2.32-.7a4.62,4.62,0,0,1,1.9-2.65,6.11,6.11,0,0,1,3.52-1,6.84,6.84,0,0,1,3.12.66,4.48,4.48,0,0,1,2,1.88,6.13,6.13,0,0,1,.68,3V61.23H1161Z" transform="translate(79.24)"/><path d="M1170.33,60.77a4.82,4.82,0,0,1-2.1-2.09,7.12,7.12,0,0,1-.72-3.33V50.44a7.18,7.18,0,0,1,.72-3.35,4.81,4.81,0,0,1,2.1-2.11,6.93,6.93,0,0,1,3.32-.73,7.21,7.21,0,0,1,2.76.48,4.33,4.33,0,0,1,1.88,1.43,5.36,5.36,0,0,1,.94,2.33l-2.58.8a3.22,3.22,0,0,0-1-1.83,2.89,2.89,0,0,0-1.93-.63,3.38,3.38,0,0,0-2.54.93,3.64,3.64,0,0,0-.91,2.68v4.91a3.61,3.61,0,0,0,.89,2.62,3.39,3.39,0,0,0,2.56.91,3.12,3.12,0,0,0,2-.59,3,3,0,0,0,1.06-1.78l2.53.84a5.25,5.25,0,0,1-1,2.28,4.25,4.25,0,0,1-1.87,1.39,7.61,7.61,0,0,1-2.77.46A7.17,7.17,0,0,1,1170.33,60.77Z" transform="translate(79.24)"/><path d="M1184.8,60.7a5.14,5.14,0,0,1-2.12-2.23A7.89,7.89,0,0,1,1182,55V51.08a8.77,8.77,0,0,1,.71-3.69,5.14,5.14,0,0,1,2-2.33,6.2,6.2,0,0,1,3.25-.81,5.91,5.91,0,0,1,3.14.8,5,5,0,0,1,2,2.33,9,9,0,0,1,.69,3.7V54h-10V51.63h7.33v-1a4.44,4.44,0,0,0-.84-2.89,2.87,2.87,0,0,0-2.35-1,3,3,0,0,0-2.5,1.09,4.77,4.77,0,0,0-.88,3.07V55a4,4,0,0,0,1,2.85,3.42,3.42,0,0,0,2.64,1,3.09,3.09,0,0,0,1.85-.54,2.82,2.82,0,0,0,1-1.52l2.53.8a4.69,4.69,0,0,1-1.85,2.86,6.09,6.09,0,0,1-3.57,1A6.8,6.8,0,0,1,1184.8,60.7Z" transform="translate(79.24)"/><path d="M1199.62,61.06a4.81,4.81,0,0,1-2-1.3,5.67,5.67,0,0,1-1.21-2.17l2.35-1.05a4.54,4.54,0,0,0,1.53,1.9,3.87,3.87,0,0,0,2.2.63,4.19,4.19,0,0,0,2.59-.68,2.33,2.33,0,0,0,.9-2,1.78,1.78,0,0,0-.46-1.33,2.73,2.73,0,0,0-1.17-.68,15.7,15.7,0,0,0-1.94-.41l-.18,0-.24,0-.08,0h-.12a13.15,13.15,0,0,1-2.47-.67,4,4,0,0,1-1.69-1.36,4.33,4.33,0,0,1-.69-2.58,5.33,5.33,0,0,1,.66-2.77,4.27,4.27,0,0,1,1.92-1.68,7.38,7.38,0,0,1,3.11-.58,8,8,0,0,1,2.55.38,4.63,4.63,0,0,1,1.86,1.14,5.27,5.27,0,0,1,1.17,1.94l-2.4,1a3.85,3.85,0,0,0-1.31-1.58,3.37,3.37,0,0,0-1.88-.53,3.5,3.5,0,0,0-2.28.65,2.35,2.35,0,0,0-.79,1.91,1.72,1.72,0,0,0,.46,1.27,2.85,2.85,0,0,0,1.19.65,16.55,16.55,0,0,0,2,.4h0a.06.06,0,0,0,.06,0l.08,0h.08a15.44,15.44,0,0,1,2.63.66,3.68,3.68,0,0,1,1.78,1.39,4.73,4.73,0,0,1,.71,2.8,5.15,5.15,0,0,1-.7,2.76,4.44,4.44,0,0,1-2.08,1.72,8.55,8.55,0,0,1-3.32.58A8.73,8.73,0,0,1,1199.62,61.06Z" transform="translate(79.24)"/><path d="M1211.76,58.24h3v3h-3Z" transform="translate(79.24)"/><path class="cls-14" d="M1701.58,857.07a6.67,6.67,0,0,1-2.65-2.86,9.76,9.76,0,0,1-.93-4.41V839.52a9.74,9.74,0,0,1,.93-4.4,6.64,6.64,0,0,1,2.65-2.87,8.69,8.69,0,0,1,7.9-.1,6.56,6.56,0,0,1,2.59,2.63,9.85,9.85,0,0,1,1.12,4.17h-3.09a6.59,6.59,0,0,0-.76-2.56,4.17,4.17,0,0,0-1.55-1.62,4.25,4.25,0,0,0-2.17-.56,4.45,4.45,0,0,0-2.4.64,4.21,4.21,0,0,0-1.57,1.85,6.51,6.51,0,0,0-.56,2.82V849.8a6.53,6.53,0,0,0,.56,2.83,4.1,4.1,0,0,0,1.57,1.83,4.71,4.71,0,0,0,4.58.09,4.19,4.19,0,0,0,1.54-1.61,6.69,6.69,0,0,0,.76-2.58h3.09a9.71,9.71,0,0,1-1.13,4.17,6.65,6.65,0,0,1-2.6,2.63,7.84,7.84,0,0,1-3.84.9A7.93,7.93,0,0,1,1701.58,857.07Z" transform="translate(79.24)"/><path class="cls-14" d="M1719.91,857.27a5.37,5.37,0,0,1-2.24-2.33,8.09,8.09,0,0,1-.77-3.67v-5.82a8,8,0,0,1,.77-3.64,5.35,5.35,0,0,1,2.24-2.3,8.45,8.45,0,0,1,7.09,0,5.32,5.32,0,0,1,2.25,2.3,8,8,0,0,1,.76,3.64v5.87a8,8,0,0,1-.76,3.64,5.34,5.34,0,0,1-2.25,2.31,8.35,8.35,0,0,1-7.09,0Zm6.1-3.13a4.12,4.12,0,0,0,.91-2.85v-5.8a4,4,0,0,0-.91-2.83,3.3,3.3,0,0,0-2.57-1,3.25,3.25,0,0,0-2.56,1,4.09,4.09,0,0,0-.89,2.83v5.8a4.16,4.16,0,0,0,.9,2.85,3.25,3.25,0,0,0,2.55,1A3.31,3.31,0,0,0,1726,854.14Z" transform="translate(79.24)"/><path class="cls-14" d="M1734.44,839h3.09v18.75h-3.09Zm10.17,6.5a4.19,4.19,0,0,0-.92-2.92,3.43,3.43,0,0,0-2.66-1,3.37,3.37,0,0,0-2.61,1,4,4,0,0,0-.89,2.79l-.38-3.15a5.65,5.65,0,0,1,2.08-2.63,5.38,5.38,0,0,1,3-.87,4.91,4.91,0,0,1,4,1.69,7.46,7.46,0,0,1,1.4,4.87v12.5h-3.09Z" transform="translate(79.24)"/><path class="cls-14" d="M1751,839h8.28v2.81H1751Zm3,17.59a5.6,5.6,0,0,1-1.06-3.72V833.58h3.09V853a2.3,2.3,0,0,0,.43,1.51,1.54,1.54,0,0,0,1.25.51h1.59v2.91h-2A4.17,4.17,0,0,1,1754,856.63Z" transform="translate(79.24)"/><path class="cls-14" d="M1764.26,856.66a5.44,5.44,0,0,1-1.47-4.13,5.91,5.91,0,0,1,1.52-4.42,6.24,6.24,0,0,1,4.55-1.5h4.31l.26,2.58h-4.56a3.1,3.1,0,0,0-2.36.84,3.51,3.51,0,0,0-.8,2.5,2.69,2.69,0,0,0,.88,2.2,4,4,0,0,0,2.59.73,5.15,5.15,0,0,0,2.86-.65,2.18,2.18,0,0,0,1-1.94l.38,2.1a4.19,4.19,0,0,1-.89,1.73,3.85,3.85,0,0,1-1.6,1,7.12,7.12,0,0,1-2.28.33A6.11,6.11,0,0,1,1764.26,856.66ZM1773,845a3.6,3.6,0,0,0-.91-2.62,3.42,3.42,0,0,0-2.58-.94,3.93,3.93,0,0,0-2.12.57,3.5,3.5,0,0,0-1.36,1.56l-2.6-.77a5.17,5.17,0,0,1,2.12-3,6.9,6.9,0,0,1,4-1.06,7.65,7.65,0,0,1,3.49.73,5,5,0,0,1,2.21,2.11,6.84,6.84,0,0,1,.76,3.34v12.88h-3Z" transform="translate(79.24)"/><path class="cls-14" d="M1783.46,857.27a5.42,5.42,0,0,1-2.35-2.34,8.09,8.09,0,0,1-.8-3.73v-5.52a8.12,8.12,0,0,1,.8-3.75,5.44,5.44,0,0,1,2.35-2.37,7.93,7.93,0,0,1,3.73-.81,8.06,8.06,0,0,1,3.09.53,4.92,4.92,0,0,1,2.11,1.61,5.89,5.89,0,0,1,1,2.61l-2.89.9a3.67,3.67,0,0,0-1.14-2.06,3.26,3.26,0,0,0-2.16-.7,3.79,3.79,0,0,0-2.86,1,4.14,4.14,0,0,0-1,3v5.52a4,4,0,0,0,1,2.93,3.85,3.85,0,0,0,2.88,1,3.19,3.19,0,0,0,3.39-2.65l2.84.94a6,6,0,0,1-1.08,2.55,4.79,4.79,0,0,1-2.1,1.55,8.3,8.3,0,0,1-3.11.52A8.19,8.19,0,0,1,1783.46,857.27Z" transform="translate(79.24)"/><path class="cls-14" d="M1795.5,839h8.28v2.81h-8.28Zm3,17.59a5.6,5.6,0,0,1-1.06-3.72V833.58h3.09V853a2.3,2.3,0,0,0,.43,1.51,1.56,1.56,0,0,0,1.25.51h1.59v2.91h-2A4.18,4.18,0,0,1,1798.48,856.63Z" transform="translate(79.24)"/><path class="cls-14" d="M1816.08,839.09h3.34v3.36h-3.34Zm0,15.34h3.34v3.36h-3.34Z" transform="translate(79.24)"/><path class="cls-14" d="M1555.32,942.2a4,4,0,0,1-1.82-1.83,6.83,6.83,0,0,1-.61-3.07v-2.09a6.73,6.73,0,0,1,.61-3,4,4,0,0,1,1.83-1.82,6.85,6.85,0,0,1,3.05-.6,7.43,7.43,0,0,1,1.89.22,5,5,0,0,1,1.52.68,4.44,4.44,0,0,1,1.17,1.12l-1.3,1.16a4.19,4.19,0,0,0-1.46-1.16,4.08,4.08,0,0,0-1.79-.39,3.8,3.8,0,0,0-2.82,1,3.9,3.9,0,0,0-.94,2.86v2.09a4,4,0,0,0,.94,2.9,3.75,3.75,0,0,0,2.82,1,4.65,4.65,0,0,0,1.89-.37,4.47,4.47,0,0,0,1.53-1.11l1.13,1.13a4.74,4.74,0,0,1-1.17,1.11,5.22,5.22,0,0,1-1.52.66,7.91,7.91,0,0,1-1.89.22A6.92,6.92,0,0,1,1555.32,942.2Z" transform="translate(79.24)"/><path class="cls-14" d="M1567.75,942.16a4.26,4.26,0,0,1-1.79-1.89,6.63,6.63,0,0,1-.62-3v-2.07a6.51,6.51,0,0,1,.62-2.94,4.26,4.26,0,0,1,1.79-1.87,6.53,6.53,0,0,1,5.64,0,4.26,4.26,0,0,1,1.79,1.87,6.51,6.51,0,0,1,.61,2.94v2.1a6.58,6.58,0,0,1-.61,3,4.31,4.31,0,0,1-1.79,1.87,6.44,6.44,0,0,1-5.64,0Zm5.38-2a4.12,4.12,0,0,0,.91-2.84v-2.1a4,4,0,0,0-.91-2.81,3.31,3.31,0,0,0-2.57-1,3.25,3.25,0,0,0-2.55,1,4,4,0,0,0-.91,2.81v2.1a4.07,4.07,0,0,0,.91,2.84,3.25,3.25,0,0,0,2.55,1A3.31,3.31,0,0,0,1573.13,940.16Z" transform="translate(79.24)"/><path class="cls-14" d="M1579.33,930h1.76v12.67h-1.76Zm8.43,5a3.65,3.65,0,0,0-.89-2.62,3.27,3.27,0,0,0-2.49-.93,3.38,3.38,0,0,0-2.43.83,3.1,3.1,0,0,0-.86,2.34l-.25-2.45a4.13,4.13,0,0,1,1.78-1.8,5.68,5.68,0,0,1,2.57-.55,4,4,0,0,1,3.2,1.35,5.79,5.79,0,0,1,1.12,3.81v7.69h-1.75Z" transform="translate(79.24)"/><path class="cls-14" d="M1592.32,930H1598v1.51h-5.72Zm2,11.89a3.87,3.87,0,0,1-.71-2.51V926.27h1.76v13.08a1.93,1.93,0,0,0,.36,1.26,1.36,1.36,0,0,0,1.09.44h1.2v1.63h-1.45A2.81,2.81,0,0,1,1594.34,941.84Z" transform="translate(79.24)"/><path class="cls-14" d="M1602.06,941.78a3.58,3.58,0,0,1-1.22-2.89,3.5,3.5,0,0,1,1.12-2.78,4.6,4.6,0,0,1,3.16-1h4.21l.17,1.63h-4.37a2.86,2.86,0,0,0-1.89.56,1.93,1.93,0,0,0-.66,1.57,1.9,1.9,0,0,0,.83,1.66,4,4,0,0,0,2.36.6,7.65,7.65,0,0,0,2.54-.33c.61-.22.91-.53.91-.93l.25,1.66a3.28,3.28,0,0,1-1,.68,5.49,5.49,0,0,1-1.35.43,8.55,8.55,0,0,1-1.64.15A5.24,5.24,0,0,1,1602.06,941.78Zm7.16-7.19a3.29,3.29,0,0,0-.83-2.39,3.13,3.13,0,0,0-2.34-.84,5.28,5.28,0,0,0-1.76.29,4.76,4.76,0,0,0-1.54.83l-1.29-.88a4.83,4.83,0,0,1,1.9-1.35,6.91,6.91,0,0,1,2.62-.48,6,6,0,0,1,2.7.55,3.89,3.89,0,0,1,1.71,1.62,5.15,5.15,0,0,1,.58,2.54v8.14h-1.75Z" transform="translate(79.24)"/><path class="cls-14" d="M1616.82,942.2a4,4,0,0,1-1.82-1.83,6.83,6.83,0,0,1-.61-3.07v-2.09a6.73,6.73,0,0,1,.61-3,4,4,0,0,1,1.83-1.82,6.83,6.83,0,0,1,3-.6,7.45,7.45,0,0,1,1.9.22,5,5,0,0,1,1.52.68,4.44,4.44,0,0,1,1.17,1.12l-1.3,1.16a4.19,4.19,0,0,0-1.46-1.16,4.08,4.08,0,0,0-1.79-.39,3.84,3.84,0,0,0-2.83,1,3.94,3.94,0,0,0-.93,2.86v2.09a4,4,0,0,0,.94,2.9,3.75,3.75,0,0,0,2.82,1,4.65,4.65,0,0,0,1.89-.37,4.47,4.47,0,0,0,1.53-1.11l1.13,1.13a4.74,4.74,0,0,1-1.17,1.11,5.22,5.22,0,0,1-1.52.66,7.93,7.93,0,0,1-1.9.22A6.9,6.9,0,0,1,1616.82,942.2Z" transform="translate(79.24)"/><path class="cls-14" d="M1626.23,930H1632v1.51h-5.72Zm2,11.89a3.87,3.87,0,0,1-.71-2.51V926.27h1.76v13.08a1.93,1.93,0,0,0,.36,1.26,1.36,1.36,0,0,0,1.09.44h1.2v1.63h-1.44A2.81,2.81,0,0,1,1628.25,941.84Z" transform="translate(79.24)"/><path class="cls-14" d="M1639.38,946.28a6.7,6.7,0,0,1-3.11-3,11.17,11.17,0,0,1-1-5.06v-1.66c0-.55,0-1.1,0-1.66a13.1,13.1,0,0,1,1.07-5.48,7,7,0,0,1,3.1-3.27,11,11,0,0,1,5.16-1.09,10.76,10.76,0,0,1,5.11,1.1,7.05,7.05,0,0,1,3.1,3.28,12.6,12.6,0,0,1,1,5.46v3.81a5,5,0,0,1-.78,3.11,2.74,2.74,0,0,1-2.28,1,2.68,2.68,0,0,1-2.07-.75,3.19,3.19,0,0,1-.69-2.23l1.39-.93a3.85,3.85,0,0,0,.36,1.89,1.17,1.17,0,0,0,1.09.62,1.19,1.19,0,0,0,1.12-.58,3.88,3.88,0,0,0,.35-1.89v-4.06a11.11,11.11,0,0,0-.87-4.68,5.91,5.91,0,0,0-2.6-2.82,8.81,8.81,0,0,0-4.27-.94,9,9,0,0,0-4.32.93,5.91,5.91,0,0,0-2.59,2.81,11.15,11.15,0,0,0-.9,4.7c0,.55,0,1.1,0,1.65v1.67a9.27,9.27,0,0,0,.86,4.25,5.61,5.61,0,0,0,2.6,2.54,10,10,0,0,0,4.36.84h3.64v1.46h-3.64A11.9,11.9,0,0,1,1639.38,946.28Zm1.36-4.84a6.6,6.6,0,0,1-1.07-4.1v-2.1a6,6,0,0,1,1.22-4.11,5.58,5.58,0,0,1,7.3,0,6,6,0,0,1,1.21,4.12v3.94l-1.17,1.08a2.83,2.83,0,0,1-1.34,1.9,5.76,5.76,0,0,1-2.93.64A3.84,3.84,0,0,1,1640.74,941.44Zm6.22-1.11a4.37,4.37,0,0,0,.81-2.89V935.1a4.37,4.37,0,0,0-.81-2.87,3,3,0,0,0-2.44-1q-3.21,0-3.21,3.84v2.32a4.43,4.43,0,0,0,.8,2.89,3,3,0,0,0,2.41,1A3,3,0,0,0,1647,940.33Z" transform="translate(79.24)"/><path class="cls-14" d="M1657.62,930h1.76v12.67h-1.76Zm7.93,5a3.86,3.86,0,0,0-.8-2.62,2.83,2.83,0,0,0-2.27-.93,3,3,0,0,0-2.29.84,3.27,3.27,0,0,0-.81,2.36l-.26-2.44a4,4,0,0,1,1.66-1.83,4.83,4.83,0,0,1,2.39-.56,4.05,4.05,0,0,1,2.24.6,3.71,3.71,0,0,1,1.42,1.77,7.26,7.26,0,0,1,.48,2.79v7.69h-1.76Zm7.94,0a3.86,3.86,0,0,0-.81-2.62,2.84,2.84,0,0,0-2.27-.93,2.9,2.9,0,0,0-2.29.91,3.67,3.67,0,0,0-.81,2.54l-.74-1.83a5.35,5.35,0,0,1,1.69-2.41,4.17,4.17,0,0,1,2.62-.84,4.48,4.48,0,0,1,2.36.6,3.84,3.84,0,0,1,1.49,1.77,6.88,6.88,0,0,1,.52,2.79v7.69h-1.76Z" transform="translate(79.24)"/><path class="cls-14" d="M1679.64,941.78a3.58,3.58,0,0,1-1.22-2.89,3.5,3.5,0,0,1,1.12-2.78,4.57,4.57,0,0,1,3.15-1h4.21l.17,1.63h-4.37a2.85,2.85,0,0,0-1.88.56,2.11,2.11,0,0,0,.17,3.23,4,4,0,0,0,2.36.6,7.69,7.69,0,0,0,2.54-.33q.9-.33.9-.93l.26,1.66a3.42,3.42,0,0,1-1,.68,5.71,5.71,0,0,1-1.36.43,8.47,8.47,0,0,1-1.64.15A5.21,5.21,0,0,1,1679.64,941.78Zm7.15-7.19a3.29,3.29,0,0,0-.82-2.39,3.13,3.13,0,0,0-2.34-.84,5.38,5.38,0,0,0-1.77.29,4.87,4.87,0,0,0-1.54.83l-1.28-.88a4.69,4.69,0,0,1,1.9-1.35,6.87,6.87,0,0,1,2.62-.48,6,6,0,0,1,2.69.55,3.89,3.89,0,0,1,1.71,1.62,5.16,5.16,0,0,1,.59,2.54v8.14h-1.76Z" transform="translate(79.24)"/><path class="cls-14" d="M1694,942.2a3.8,3.8,0,0,1-1.5-1.75,6.73,6.73,0,0,1-.51-2.76v-2.76a7.06,7.06,0,0,1,.5-2.79,3.78,3.78,0,0,1,1.46-1.77,4.24,4.24,0,0,1,2.3-.6,5.62,5.62,0,0,1,2.54.54,4,4,0,0,1,1.76,1.78l-.26,2.44a3.39,3.39,0,0,0-.39-1.58,3,3,0,0,0-1.11-1.2,3.53,3.53,0,0,0-4.18.49,3.93,3.93,0,0,0-.86,2.71v2.74a3.85,3.85,0,0,0,.86,2.66,3.17,3.17,0,0,0,2.46.94,3.13,3.13,0,0,0,1.71-.47,3.26,3.26,0,0,0,1.12-1.24,3.47,3.47,0,0,0,.39-1.6l.17,2.65a3.07,3.07,0,0,1-1.51,1.67,5.81,5.81,0,0,1-2.58.51A4.49,4.49,0,0,1,1694,942.2Zm0,5a4.13,4.13,0,0,1-1.75-1.49l1.2-1.08a4,4,0,0,0,1.38,1.16,3.74,3.74,0,0,0,1.7.41,3.67,3.67,0,0,0,2.74-1,3.73,3.73,0,0,0,1-2.76V930H1702v12.29a6.54,6.54,0,0,1-.64,3,4.35,4.35,0,0,1-1.87,1.9,6.2,6.2,0,0,1-2.94.64A5.83,5.83,0,0,1,1694,947.24Z" transform="translate(79.24)"/><path class="cls-14" d="M1705.81,924.87h1.76v17.75h-1.76Zm3.1,17.43a3.07,3.07,0,0,1-1.51-1.67l.17-2.65a3.47,3.47,0,0,0,.39,1.6,3.18,3.18,0,0,0,1.12,1.24,3.13,3.13,0,0,0,1.71.47,3.17,3.17,0,0,0,2.46-.94,3.85,3.85,0,0,0,.86-2.66V935a3.93,3.93,0,0,0-.86-2.71,3.51,3.51,0,0,0-4.17-.49A3.19,3.19,0,0,0,1708,933a3.28,3.28,0,0,0-.39,1.56l-.26-2.44a4.07,4.07,0,0,1,1.75-1.78,5.7,5.7,0,0,1,2.55-.54,4.26,4.26,0,0,1,2.3.6,3.78,3.78,0,0,1,1.46,1.77,7.06,7.06,0,0,1,.5,2.79v2.76a6.73,6.73,0,0,1-.51,2.76,3.86,3.86,0,0,1-1.5,1.75,4.49,4.49,0,0,1-2.37.61A5.81,5.81,0,0,1,1708.91,942.3Z" transform="translate(79.24)"/><path class="cls-14" d="M1721.45,942.16a4.26,4.26,0,0,1-1.79-1.89,6.63,6.63,0,0,1-.62-3v-2.07a6.51,6.51,0,0,1,.62-2.94,4.26,4.26,0,0,1,1.79-1.87,6.53,6.53,0,0,1,5.64,0,4.32,4.32,0,0,1,1.79,1.87,6.51,6.51,0,0,1,.61,2.94v2.1a6.58,6.58,0,0,1-.61,3,4.37,4.37,0,0,1-1.79,1.87,6.44,6.44,0,0,1-5.64,0Zm5.38-2a4.12,4.12,0,0,0,.9-2.84v-2.1a4,4,0,0,0-.9-2.81,3.31,3.31,0,0,0-2.58-1,3.28,3.28,0,0,0-2.55,1,4,4,0,0,0-.9,2.81v2.1a4.12,4.12,0,0,0,.9,2.84,3.28,3.28,0,0,0,2.55,1A3.31,3.31,0,0,0,1726.83,940.16Z" transform="translate(79.24)"/><path class="cls-14" d="M1732.06,930h6.33v1.51h-6.33Zm1.34-1.72a3.73,3.73,0,0,1,.73-2.52,2.73,2.73,0,0,1,2.19-.84h2.07v1.64h-1.78a1.35,1.35,0,0,0-1.09.42,1.94,1.94,0,0,0-.36,1.28v14.41h-1.76Z" transform="translate(79.24)"/><path class="cls-14" d="M1740,930h6.33v1.51H1740Zm1.34-1.72a3.73,3.73,0,0,1,.73-2.52,2.73,2.73,0,0,1,2.19-.84h2.07v1.64h-1.78a1.35,1.35,0,0,0-1.09.42,1.94,1.94,0,0,0-.36,1.28v14.41h-1.76Z" transform="translate(79.24)"/><path class="cls-14" d="M1749.61,924.87h1.76v1.76h-1.76Zm0,5.08h1.76v12.67h-1.76Z" transform="translate(79.24)"/><path class="cls-14" d="M1755.52,930h1.76v12.67h-1.76Zm8.42,5a3.64,3.64,0,0,0-.88-2.62,3.3,3.3,0,0,0-2.5-.93,3.35,3.35,0,0,0-2.42.83,3.07,3.07,0,0,0-.86,2.34l-.26-2.45a4.18,4.18,0,0,1,1.78-1.8,5.7,5.7,0,0,1,2.58-.55,3.93,3.93,0,0,1,3.19,1.35,5.79,5.79,0,0,1,1.13,3.81v7.69h-1.76Z" transform="translate(79.24)"/><path class="cls-14" d="M1769.36,940.62h2v2h-2Z" transform="translate(79.24)"/><path class="cls-14" d="M1776.72,942.2a4,4,0,0,1-1.82-1.83,6.83,6.83,0,0,1-.61-3.07v-2.09a6.73,6.73,0,0,1,.61-3,4,4,0,0,1,1.83-1.82,6.83,6.83,0,0,1,3-.6,7.45,7.45,0,0,1,1.9.22,5,5,0,0,1,1.52.68,4.44,4.44,0,0,1,1.17,1.12l-1.3,1.16a4.19,4.19,0,0,0-1.46-1.16,4.08,4.08,0,0,0-1.79-.39,3.84,3.84,0,0,0-2.83,1,3.94,3.94,0,0,0-.93,2.86v2.09a4,4,0,0,0,.94,2.9,3.75,3.75,0,0,0,2.82,1,4.65,4.65,0,0,0,1.89-.37,4.47,4.47,0,0,0,1.53-1.11l1.13,1.13a4.74,4.74,0,0,1-1.17,1.11,5.22,5.22,0,0,1-1.52.66,7.93,7.93,0,0,1-1.9.22A6.9,6.9,0,0,1,1776.72,942.2Z" transform="translate(79.24)"/><path class="cls-14" d="M1789.15,942.16a4.26,4.26,0,0,1-1.79-1.89,6.63,6.63,0,0,1-.62-3v-2.07a6.51,6.51,0,0,1,.62-2.94,4.26,4.26,0,0,1,1.79-1.87,6.53,6.53,0,0,1,5.64,0,4.26,4.26,0,0,1,1.79,1.87,6.51,6.51,0,0,1,.61,2.94v2.1a6.58,6.58,0,0,1-.61,3,4.31,4.31,0,0,1-1.79,1.87,6.44,6.44,0,0,1-5.64,0Zm5.38-2a4.12,4.12,0,0,0,.91-2.84v-2.1a4,4,0,0,0-.91-2.81,3.31,3.31,0,0,0-2.57-1,3.25,3.25,0,0,0-2.55,1,4,4,0,0,0-.91,2.81v2.1a4.07,4.07,0,0,0,.91,2.84,3.25,3.25,0,0,0,2.55,1A3.31,3.31,0,0,0,1794.53,940.16Z" transform="translate(79.24)"/><path class="cls-14" d="M1800.73,930h1.76v12.67h-1.76Zm7.94,5a3.91,3.91,0,0,0-.8-2.62,2.83,2.83,0,0,0-2.28-.93,3,3,0,0,0-2.29.84,3.27,3.27,0,0,0-.81,2.36l-.25-2.44a4,4,0,0,1,1.66-1.83,4.83,4.83,0,0,1,2.39-.56,4.05,4.05,0,0,1,2.24.6,3.75,3.75,0,0,1,1.41,1.77,7.25,7.25,0,0,1,.49,2.79v7.69h-1.76Zm7.93,0a3.91,3.91,0,0,0-.8-2.62,2.85,2.85,0,0,0-2.27-.93,2.89,2.89,0,0,0-2.29.91,3.67,3.67,0,0,0-.81,2.54l-.75-1.83a5.36,5.36,0,0,1,1.7-2.41,4.12,4.12,0,0,1,2.61-.84,4.43,4.43,0,0,1,2.36.6,3.8,3.8,0,0,1,1.5,1.77,6.88,6.88,0,0,1,.51,2.79v7.69h-1.76Z" transform="translate(79.24)"/><path class="cls-14" d="M1641.77,904.88a19.8,19.8,0,0,1,0-12.9,15.76,15.76,0,0,1,3.25-5.28l1.17,1a14.44,14.44,0,0,0-2.9,4.82,16.93,16.93,0,0,0-1,5.87,17.27,17.27,0,0,0,1,5.88,14.31,14.31,0,0,0,2.91,4.82l-1.17,1A15.76,15.76,0,0,1,1641.77,904.88Z" transform="translate(79.24)"/><path class="cls-14" d="M1658.59,897.35V899h-9.91v-1.63Zm-4.07,5.77h-1.76v-9.91h1.76Z" transform="translate(79.24)"/><path class="cls-14" d="M1669,897.53V898a1.67,1.67,0,0,1-1,.82,5,5,0,0,1-1.74.27,4.55,4.55,0,0,1-2.43-.65,4.25,4.25,0,0,1-1.62-1.83,6.15,6.15,0,0,1-.57-2.72v0a6.79,6.79,0,0,1,.58-2.94,4.06,4.06,0,0,1,1.69-1.85,5.89,5.89,0,0,1,5.36,0,4.19,4.19,0,0,1,1.69,1.88,7,7,0,0,1,.58,3v0a8.86,8.86,0,0,1-.25,2,12.39,12.39,0,0,1-.69,2.14l-.15.33c0,.11-.1.21-.16.32l-3.78,7.6h-2Zm-.07-1.09a4,4,0,0,0,.83-2.68h0A4,4,0,0,0,1669,891a2.91,2.91,0,0,0-2.35-1,3,3,0,0,0-2.36,1,4,4,0,0,0-.83,2.72h0a3.89,3.89,0,0,0,.83,2.68,3,3,0,0,0,2.36.95A3,3,0,0,0,1669,896.44Z" transform="translate(79.24)"/><path class="cls-14" d="M1679.13,906.34h-1.76V890.08l-3.26,2v-1.84l2.53-1.68h2.49Z" transform="translate(79.24)"/><path class="cls-14" d="M1682.11,909.13a14.31,14.31,0,0,0,2.91-4.82,18.37,18.37,0,0,0,0-11.75,14.44,14.44,0,0,0-2.9-4.82l1.17-1a15.76,15.76,0,0,1,3.25,5.28,19.8,19.8,0,0,1,0,12.9,15.76,15.76,0,0,1-3.25,5.28Z" transform="translate(79.24)"/><path class="cls-14" d="M1705.37,897.53V898a1.67,1.67,0,0,1-1,.82,5,5,0,0,1-1.74.27,4.55,4.55,0,0,1-2.43-.65,4.25,4.25,0,0,1-1.62-1.83,6.15,6.15,0,0,1-.57-2.72v0a6.79,6.79,0,0,1,.58-2.94,4.06,4.06,0,0,1,1.69-1.85,5.89,5.89,0,0,1,5.36,0,4.19,4.19,0,0,1,1.69,1.88,7,7,0,0,1,.58,3v0a8.86,8.86,0,0,1-.25,2,12.39,12.39,0,0,1-.69,2.14l-.15.33-.16.32-3.78,7.6h-1.95Zm-.07-1.09a4,4,0,0,0,.83-2.68h0a4,4,0,0,0-.84-2.71,2.91,2.91,0,0,0-2.35-1,3,3,0,0,0-2.36,1,4,4,0,0,0-.83,2.72h0a3.89,3.89,0,0,0,.83,2.68,3,3,0,0,0,2.36.95A3,3,0,0,0,1705.3,896.44Z" transform="translate(79.24)"/><path class="cls-14" d="M1713.48,906a4,4,0,0,1-1.84-1.66,5.1,5.1,0,0,1-.64-2.63v-.17a5,5,0,0,1,.64-2.54,4.55,4.55,0,0,1,1.8-1.76,4.15,4.15,0,0,1-1.53-1.61,4.74,4.74,0,0,1-.54-2.26v-.18a5.13,5.13,0,0,1,.59-2.56,3.87,3.87,0,0,1,1.71-1.61,6.84,6.84,0,0,1,5.42,0,3.94,3.94,0,0,1,1.72,1.61,5.24,5.24,0,0,1,.59,2.56v.18a4.67,4.67,0,0,1-.55,2.29,4,4,0,0,1-1.56,1.58,4.59,4.59,0,0,1,1.83,1.77,5,5,0,0,1,.65,2.53v.17a5.1,5.1,0,0,1-.64,2.63,4.08,4.08,0,0,1-1.84,1.66,6.65,6.65,0,0,1-2.91.58A6.58,6.58,0,0,1,1713.48,906Zm4.84-1.42a2.74,2.74,0,0,0,1.22-1.16,3.75,3.75,0,0,0,.42-1.83v0a3.76,3.76,0,0,0-.42-1.84,2.82,2.82,0,0,0-1.22-1.17,4.88,4.88,0,0,0-3.87,0,2.82,2.82,0,0,0-1.22,1.17,3.78,3.78,0,0,0-.42,1.85v.06a3.71,3.71,0,0,0,.42,1.82,2.77,2.77,0,0,0,1.22,1.15,4.88,4.88,0,0,0,3.87,0Zm-.14-8.37a2.66,2.66,0,0,0,1.13-1.12,3.82,3.82,0,0,0,.39-1.79v-.18a3.31,3.31,0,0,0-.39-1.66,2.59,2.59,0,0,0-1.13-1,4.13,4.13,0,0,0-1.8-.36,4.08,4.08,0,0,0-1.79.36,2.53,2.53,0,0,0-1.14,1,3.35,3.35,0,0,0-.39,1.67v.18a3.73,3.73,0,0,0,.39,1.77,2.62,2.62,0,0,0,1.14,1.12,3.94,3.94,0,0,0,1.79.38A4,4,0,0,0,1718.18,896.16Z" transform="translate(79.24)"/><path class="cls-14" d="M1734.41,890.08l-4.59,16.26h-1.91l4.67-16.11h-6.06v3.28h-1.76V888.6h9.65Z" transform="translate(79.24)"/><path class="cls-14" d="M1742.12,906.34h-1.76V890.08l-3.26,2v-1.84l2.53-1.68h2.49Z" transform="translate(79.24)"/><path class="cls-14" d="M1750.43,906.34h-1.76V890.08l-3.26,2v-1.84l2.53-1.68h2.49Z" transform="translate(79.24)"/><path class="cls-14" d="M1755.75,905.2a5.12,5.12,0,0,1-1.29-3.71v-8.07a5.1,5.1,0,0,1,1.29-3.72,6,6,0,0,1,7.55,0,5.11,5.11,0,0,1,1.29,3.73v8.07a5.32,5.32,0,0,1-8.84,3.71ZM1762,904a3.65,3.65,0,0,0,.8-2.52v-8.07a3.66,3.66,0,0,0-.8-2.53,4,4,0,0,0-5,0,3.61,3.61,0,0,0-.81,2.53v8.07A3.6,3.6,0,0,0,1757,904a4,4,0,0,0,5,0Z" transform="translate(79.24)"/><path class="cls-14" d="M1770.82,906a4.43,4.43,0,0,1-1.7-1.52,6.22,6.22,0,0,1-.87-2.41H1770a3.05,3.05,0,0,0,1,2.06,3.68,3.68,0,0,0,4.58-.12,3.33,3.33,0,0,0,.85-2.44V899a3.42,3.42,0,0,0-.72-2.33,2.54,2.54,0,0,0-2-.83,3.53,3.53,0,0,0-1.93.55,5.19,5.19,0,0,0-1.59,1.58h-1.54V888.6h9v1.63h-7.29v5.33a5.08,5.08,0,0,1,1.52-1,4.4,4.4,0,0,1,1.79-.36,4.91,4.91,0,0,1,2.43.57,3.66,3.66,0,0,1,1.53,1.65,5.91,5.91,0,0,1,.53,2.6v2.59a5.7,5.7,0,0,1-.59,2.68,3.9,3.9,0,0,1-1.71,1.7,5.84,5.84,0,0,1-2.69.58A5.25,5.25,0,0,1,1770.82,906Z" transform="translate(79.24)"/><path class="cls-14" d="M1788.88,897.53V898a1.7,1.7,0,0,1-1,.82,5,5,0,0,1-1.74.27,4.55,4.55,0,0,1-2.43-.65,4.25,4.25,0,0,1-1.62-1.83,6.15,6.15,0,0,1-.57-2.72v0a6.79,6.79,0,0,1,.58-2.94,4.06,4.06,0,0,1,1.69-1.85,5.29,5.29,0,0,1,2.68-.64,5.23,5.23,0,0,1,2.67.65,4.15,4.15,0,0,1,1.7,1.88,7,7,0,0,1,.58,3v0a9.45,9.45,0,0,1-.25,2,12.39,12.39,0,0,1-.69,2.14l-.15.33-.16.32-3.78,7.6h-2Zm-.07-1.09a4,4,0,0,0,.83-2.68h0a4,4,0,0,0-.84-2.71,3.34,3.34,0,0,0-4.71,0,4,4,0,0,0-.84,2.72h0a3.9,3.9,0,0,0,.84,2.68,3.39,3.39,0,0,0,4.72,0Z" transform="translate(79.24)"/><path class="cls-14" d="M1801.71,897.53V898a1.7,1.7,0,0,1-1,.82,5,5,0,0,1-1.74.27,4.55,4.55,0,0,1-2.43-.65,4.25,4.25,0,0,1-1.62-1.83,6.15,6.15,0,0,1-.57-2.72v0a6.79,6.79,0,0,1,.58-2.94,4.06,4.06,0,0,1,1.69-1.85,5.29,5.29,0,0,1,2.68-.64,5.23,5.23,0,0,1,2.67.65,4.15,4.15,0,0,1,1.7,1.88,7,7,0,0,1,.58,3v0a9.45,9.45,0,0,1-.25,2,12.39,12.39,0,0,1-.69,2.14l-.15.33-.16.32-3.78,7.6h-2Zm-.07-1.09a4,4,0,0,0,.83-2.68h0a4,4,0,0,0-.84-2.71,3.34,3.34,0,0,0-4.71,0,4,4,0,0,0-.84,2.72h0a3.9,3.9,0,0,0,.84,2.68,3.39,3.39,0,0,0,4.72,0Z" transform="translate(79.24)"/><path class="cls-14" d="M1809.82,906a4.1,4.1,0,0,1-1.85-1.66,5.2,5.2,0,0,1-.63-2.63v-.17A5,5,0,0,1,1808,899a4.55,4.55,0,0,1,1.8-1.76,4.15,4.15,0,0,1-1.53-1.61,4.75,4.75,0,0,1-.55-2.26v-.18a5.13,5.13,0,0,1,.6-2.56A3.87,3.87,0,0,1,1810,889a6.84,6.84,0,0,1,5.42,0,3.94,3.94,0,0,1,1.72,1.61,5.24,5.24,0,0,1,.59,2.56v.18a4.67,4.67,0,0,1-.55,2.29,4,4,0,0,1-1.56,1.58,4.59,4.59,0,0,1,1.83,1.77,5,5,0,0,1,.64,2.53v.17a5.2,5.2,0,0,1-.63,2.63,4.08,4.08,0,0,1-1.84,1.66,6.65,6.65,0,0,1-2.91.58A6.58,6.58,0,0,1,1809.82,906Zm4.84-1.42a2.74,2.74,0,0,0,1.22-1.16,3.75,3.75,0,0,0,.42-1.83v0a3.76,3.76,0,0,0-.42-1.84,2.82,2.82,0,0,0-1.22-1.17,4.28,4.28,0,0,0-1.94-.4,4.2,4.2,0,0,0-1.93.4,2.76,2.76,0,0,0-1.22,1.17,3.78,3.78,0,0,0-.42,1.85v.06a3.71,3.71,0,0,0,.42,1.82,2.72,2.72,0,0,0,1.22,1.15,4.2,4.2,0,0,0,1.93.4A4.28,4.28,0,0,0,1814.66,904.53Zm-.14-8.37a2.66,2.66,0,0,0,1.13-1.12,3.82,3.82,0,0,0,.39-1.79v-.18a3.31,3.31,0,0,0-.39-1.66,2.59,2.59,0,0,0-1.13-1,4.13,4.13,0,0,0-1.8-.36,4.05,4.05,0,0,0-1.79.36,2.53,2.53,0,0,0-1.14,1,3.35,3.35,0,0,0-.39,1.67v.18a3.73,3.73,0,0,0,.39,1.77,2.62,2.62,0,0,0,1.14,1.12,3.91,3.91,0,0,0,1.79.38A4,4,0,0,0,1814.52,896.16Z" transform="translate(79.24)"/><path class="cls-14" d="M1475.13,643.8h1.9V663h-1.9Zm1.32,0h10.74v1.76h-10.74Zm0,8.93h9.29v1.77h-9.29Z" transform="translate(79.24)"/><path class="cls-14" d="M1492.16,662.46a4.57,4.57,0,0,1-1.93-2,7.24,7.24,0,0,1-.67-3.23V655a7.09,7.09,0,0,1,.67-3.19,4.65,4.65,0,0,1,1.93-2,7.06,7.06,0,0,1,6.09,0,4.6,4.6,0,0,1,1.93,2,7,7,0,0,1,.67,3.19v2.26a7,7,0,0,1-.67,3.2,4.55,4.55,0,0,1-1.93,2,7,7,0,0,1-6.09,0Zm5.81-2.15a4.46,4.46,0,0,0,1-3.07V655a4.4,4.4,0,0,0-1-3.05,3.57,3.57,0,0,0-2.78-1.08,3.52,3.52,0,0,0-2.75,1.08,4.4,4.4,0,0,0-1,3.05v2.26a4.46,4.46,0,0,0,1,3.07,3.53,3.53,0,0,0,2.75,1.09A3.58,3.58,0,0,0,1498,660.31Z" transform="translate(79.24)"/><path class="cls-14" d="M1506.57,659.37a1.94,1.94,0,0,0,.43,1.35,1.5,1.5,0,0,0,1.19.48h1.27V663h-1.58a3,3,0,0,1-2.37-.94,3.93,3.93,0,0,1-.84-2.68V643.8h1.9Z" transform="translate(79.24)"/><path class="cls-14" d="M1514.39,659.37a1.94,1.94,0,0,0,.43,1.35,1.5,1.5,0,0,0,1.19.48h1.27V663h-1.59a3,3,0,0,1-2.36-.94,3.93,3.93,0,0,1-.84-2.68V643.8h1.9Z" transform="translate(79.24)"/><path class="cls-14" d="M1522.51,662.46a4.57,4.57,0,0,1-1.93-2,7.1,7.1,0,0,1-.67-3.23V655a7,7,0,0,1,.67-3.19,4.65,4.65,0,0,1,1.93-2,7.06,7.06,0,0,1,6.09,0,4.6,4.6,0,0,1,1.93,2,7,7,0,0,1,.67,3.19v2.26a7,7,0,0,1-.67,3.2,4.55,4.55,0,0,1-1.93,2,7,7,0,0,1-6.09,0Zm5.81-2.15a4.46,4.46,0,0,0,1-3.07V655a4.4,4.4,0,0,0-1-3.05,3.57,3.57,0,0,0-2.78-1.08,3.52,3.52,0,0,0-2.75,1.08,4.4,4.4,0,0,0-1,3.05v2.26a4.46,4.46,0,0,0,1,3.07,3.53,3.53,0,0,0,2.75,1.09A3.58,3.58,0,0,0,1528.32,660.31Z" transform="translate(79.24)"/><path class="cls-14" d="M1533.31,649.28h2l3.22,11.09,3.81-11.09h1.08l3.81,11.09,3.22-11.09h2L1548.13,663h-1.64l-3.6-10.24-3.6,10.24h-1.63Z" transform="translate(79.24)"/><path class="cls-14" d="M1564.53,657.6a3.94,3.94,0,0,0,.93,2.8,3.49,3.49,0,0,0,2.65,1,3.62,3.62,0,0,0,2.63-.91,3.45,3.45,0,0,0,.93-2.57l.19,2.86a4.22,4.22,0,0,1-1.66,1.7,5.55,5.55,0,0,1-2.84.68,4.33,4.33,0,0,1-3.5-1.45,6.2,6.2,0,0,1-1.23-4.11v-8.32h1.9Zm7.14-8.32h1.89V663h-1.89Z" transform="translate(79.24)"/><path class="cls-14" d="M1580.2,663a9.2,9.2,0,0,1-1.94-.64,7,7,0,0,1-1.6-1l1.09-1.33a10.32,10.32,0,0,0,2.32,1.17,7.15,7.15,0,0,0,2.28.41,5.74,5.74,0,0,0,3-.67,2.11,2.11,0,0,0,1.07-1.9,1.68,1.68,0,0,0-.52-1.35,2.79,2.79,0,0,0-1.31-.6,18.29,18.29,0,0,0-2.2-.26l-.27,0-.27,0h-.21a12.6,12.6,0,0,1-2.27-.39,3.11,3.11,0,0,1-1.52-1,3.17,3.17,0,0,1-.62-2.1,3.89,3.89,0,0,1,.64-2.24,4,4,0,0,1,1.88-1.41,8.11,8.11,0,0,1,3-.49,9.13,9.13,0,0,1,1.79.18,9.77,9.77,0,0,1,1.72.51,8.09,8.09,0,0,1,1.51.82l-1.1,1.3a9.11,9.11,0,0,0-2-.88,7.24,7.24,0,0,0-2-.31,4.72,4.72,0,0,0-2.68.65,2.09,2.09,0,0,0-1,1.82,1.45,1.45,0,0,0,.52,1.22,2.8,2.8,0,0,0,1.29.53,19.9,19.9,0,0,0,2.16.21h.38a11.27,11.27,0,0,1,2.45.36,3.32,3.32,0,0,1,1.69,1.09,3.57,3.57,0,0,1,.69,2.36,3.73,3.73,0,0,1-.69,2.27,4.28,4.28,0,0,1-2,1.43,9.08,9.08,0,0,1-3.18.49A10.89,10.89,0,0,1,1580.2,663Z" transform="translate(79.24)"/><path class="cls-14" d="M1598.76,649h2.17v2.16h-2.17Zm0,11.78h2.17V663h-2.17Z" transform="translate(79.24)"/><rect class="cls-15" x="1485.41" y="680.3" width="266.75" height="65.33"/><line class="cls-16" x1="1549.4" y1="680.3" x2="1549.4" y2="745.63"/><line class="cls-16" x1="1616.99" y1="680.3" x2="1616.99" y2="745.63"/><line class="cls-16" x1="1684.57" y1="680.3" x2="1684.57" y2="745.63"/><line class="cls-16" x1="1752.16" y1="680.3" x2="1752.16" y2="745.63"/><path class="cls-14" d="M1419.94,726.42a21.65,21.65,0,0,0,11.75,3.45c14.24,0,22.28-12,21.8-22.81a15.55,15.55,0,0,0,3.83-4,15.24,15.24,0,0,1-4.41,1.2,7.66,7.66,0,0,0,3.37-4.24,15.19,15.19,0,0,1-4.87,1.86,7.67,7.67,0,0,0-13.06,7,21.76,21.76,0,0,1-15.81-8,7.67,7.67,0,0,0,2.37,10.23,7.57,7.57,0,0,1-3.47-1,7.67,7.67,0,0,0,6.15,7.62,7.58,7.58,0,0,1-3.46.13,7.66,7.66,0,0,0,7.16,5.33A15.39,15.39,0,0,1,1419.94,726.42Z" transform="translate(79.24)"/><path class="cls-14" d="M1500,732.19h7.34V713.81h5.12l.54-6.15h-5.66v-3.51c0-1.45.29-2,1.69-2h4v-6.39h-5.08c-5.46,0-7.92,2.41-7.92,7v4.91h-3.82v6.23H1500Z" transform="translate(79.24)"/><path class="cls-14" d="M1571.39,698.92c4.58,0,5.12,0,6.92.1a9.81,9.81,0,0,1,3.19.59,5.25,5.25,0,0,1,2,1.28,5.44,5.44,0,0,1,1.29,2,9.73,9.73,0,0,1,.59,3.18c.08,1.81.1,2.35.1,6.93s0,5.11-.1,6.92a9.73,9.73,0,0,1-.59,3.18,5.44,5.44,0,0,1-1.29,2,5.25,5.25,0,0,1-2,1.28,9.81,9.81,0,0,1-3.19.59c-1.8.08-2.34.1-6.92.1s-5.11,0-6.92-.1a9.73,9.73,0,0,1-3.18-.59,5.66,5.66,0,0,1-3.25-3.25,9.73,9.73,0,0,1-.59-3.18c-.08-1.81-.1-2.35-.1-6.92s0-5.12.1-6.93a9.73,9.73,0,0,1,.59-3.18,5.66,5.66,0,0,1,3.25-3.25,9.73,9.73,0,0,1,3.18-.59c1.81-.08,2.35-.1,6.92-.1m0-3.08c-4.65,0-5.23,0-7.06.1a12.35,12.35,0,0,0-4.16.8,8.33,8.33,0,0,0-3,2,8.44,8.44,0,0,0-2,3,12.56,12.56,0,0,0-.79,4.15c-.08,1.83-.1,2.41-.1,7.07s0,5.23.1,7.06a12.56,12.56,0,0,0,.79,4.15,8.44,8.44,0,0,0,2,3,8.33,8.33,0,0,0,3,2,12.35,12.35,0,0,0,4.16.8c1.83.08,2.41.1,7.06.1s5.24,0,7.07-.1a12.28,12.28,0,0,0,4.15-.8,8.67,8.67,0,0,0,5-5,12.28,12.28,0,0,0,.8-4.15c.08-1.83.1-2.41.1-7.06s0-5.24-.1-7.07a12.28,12.28,0,0,0-.8-4.15,8.67,8.67,0,0,0-5-5,12.28,12.28,0,0,0-4.15-.8c-1.83-.08-2.41-.1-7.07-.1" transform="translate(79.24)"/><path class="cls-14" d="M1571.39,704.17a8.8,8.8,0,1,0,8.8,8.8,8.8,8.8,0,0,0-8.8-8.8m0,14.5a5.71,5.71,0,1,1,5.71-5.7,5.71,5.71,0,0,1-5.71,5.7" transform="translate(79.24)"/><path class="cls-14" d="M1582.59,703.82a2.06,2.06,0,1,1-2-2.05,2.05,2.05,0,0,1,2,2.05" transform="translate(79.24)"/><rect class="cls-14" x="1708.42" y="708.16" width="5.95" height="19.23"/><path class="cls-14" d="M1632.13,705.64a3.55,3.55,0,1,0-3.52-3.55A3.54,3.54,0,0,0,1632.13,705.64Z" transform="translate(79.24)"/><path class="cls-14" d="M1644.65,717.29c0-2.7,1.24-4.31,3.62-4.31,2.19,0,3.24,1.55,3.24,4.31v10.1h5.93V715.21c0-5.15-2.92-7.64-7-7.64a6.69,6.69,0,0,0-5.79,3.18v-2.59h-5.71v19.23h5.71Z" transform="translate(79.24)"/><path class="cls-17" d="M117.19,112.47l-3.14-1.1L95.2,164.81l33.91,12s-.09,3.89,3.15,5" transform="translate(79.24)"/><path class="cls-17" d="M132.05,181.73c3.24,1.14,5.54-2,5.54-2l33.06,11.66L189.5,138l-3.15-1.11" transform="translate(79.24)"/><path class="cls-17" d="M134,175.58s-11.56-5.2-34.09-14c6.06-17.21,13.09-37.15,17.75-50.36,1.46.52,2.19.82,3.51,1.36" transform="translate(79.24)"/><path class="cls-17" d="M133.89,175.55S146.76,179,169,186c6.06-17.2,13.09-37.14,17.75-50.35-1.37-.48-2.69-.91-4-1.3" transform="translate(79.24)"/><path class="cls-17" d="M134.36,176.56s-7.15-7.29-29.68-16.07l17.75-50.36c22.8,8,28.63,19.07,28.63,19.07Z" transform="translate(79.24)"/><path class="cls-17" d="M134.36,176.56s9.35-1.47,31.62,5.55c6.07-17.2,13.1-37.15,17.76-50.36-21.22-7.48-32.68-2.55-32.68-2.55Z" transform="translate(79.24)"/><path class="cls-17" d="M1263.65,426,1261,428.1l35.34,44.31L1324.49,450s3.25,2.14,5.94,0" transform="translate(79.24)"/><path class="cls-17" d="M1330.25,450.13c2.69-2.15,1.26-5.75,1.26-5.75l27.42-21.86-35.34-44.3L1321,380.3" transform="translate(79.24)"/><path class="cls-17" d="M1326.05,445.25s-10.54,7.05-29.93,21.5L1262.83,425c1.21-1,1.85-1.43,3-2.26" transform="translate(79.24)"/><path class="cls-17" d="M1326,445.29s9.72-9.1,27.47-24.27l-33.29-41.74c-1.13.9-2.2,1.79-3.21,2.69" transform="translate(79.24)"/><path class="cls-17" d="M1327.09,445.43s-10,2.2-29.36,16.65l-33.29-41.74c18.9-15.07,31.34-14.17,31.34-14.17Z" transform="translate(79.24)"/><path class="cls-17" d="M1327.09,445.43s3.72-8.71,21.46-23.88l-33.29-41.74c-17.59,14-19.48,26.36-19.48,26.36Z" transform="translate(79.24)"/><path class="cls-18" d="M691.1,186l-3.35,1.46,24.9,56.91,36.1-15.8s2.84,3.19,6.29,1.68" transform="translate(79.24)"/><path class="cls-18" d="M754.81,230.33c3.45-1.51,3-5.73,3-5.73L793,209.2l-24.89-56.9-3.35,1.46" transform="translate(79.24)"/><path class="cls-18" d="M751.74,224S738.6,228.46,714,238.28l-23.45-53.61c1.55-.68,2.36-1,3.82-1.54" transform="translate(79.24)"/><path class="cls-18" d="M751.67,224s12.87-6.89,36-17.94c-8-18.31-17.3-39.54-23.45-53.61-1.46.64-2.84,1.28-4.16,1.94" transform="translate(79.24)"/><path class="cls-18" d="M752.8,224.45s-11.18-.48-35.8,9.34c-8-18.31-17.3-39.54-23.45-53.61,24.27-10.62,37.19-6.15,37.19-6.15Z" transform="translate(79.24)"/><path class="cls-18" d="M752.8,224.45s6.39-8.17,29.48-19.21c-8-18.32-17.3-39.55-23.46-53.61-22.59,9.88-28.08,22.4-28.08,22.4Z" transform="translate(79.24)"/><path class="cls-19" d="M1376.28,181.4c-5.8,26.62-21.73,45.75-35.58,42.73s-20.37-27-14.57-53.66,21.73-45.74,35.58-42.72S1382.08,154.79,1376.28,181.4Z" transform="translate(79.24)"/><path class="cls-19" d="M1358.19,200.85c-26,8-50.27,3.39-54.31-10.25s13.74-31.17,39.7-39.16,50.27-3.4,54.31,10.25S1384.15,192.86,1358.19,200.85Z" transform="translate(79.24)"/><path class="cls-19" d="M1333.72,195.23c-20-18.48-28.58-42-19.09-52.55s33.4-4.11,53.43,14.38,28.57,42,19.09,52.55S1353.74,213.71,1333.72,195.23Z" transform="translate(79.24)"/><path class="cls-20" d="M1362.69,178.44a12.3,12.3,0,1,1-9.4-14.64A12.29,12.29,0,0,1,1362.69,178.44Z" transform="translate(79.24)"/><path class="cls-17" d="M165.5,310.93c-7.93-2-3.14-21.29-11.07-23.26s-12.71,17.38-20.64,15.42-3.14-21.29-11.07-23.26S110,297.21,102.08,295.25,98.94,274,91,272" transform="translate(79.24)"/><path class="cls-17" d="M86.65,291.43c7.92,2,12.7-17.37,20.63-15.41s3.15,21.29,11.07,23.25S131.06,281.9,139,283.86s3.14,21.29,11.07,23.25,12.71-17.37,20.64-15.41" transform="translate(79.24)"/><path class="cls-17" d="M1516.08,441.92a7.14,7.14,0,1,1-7.14-7.13A7.14,7.14,0,0,1,1516.08,441.92Z" transform="translate(79.24)"/><path class="cls-17" d="M1533.59,462.13a7.14,7.14,0,1,1-7.14-7.13A7.13,7.13,0,0,1,1533.59,462.13Z" transform="translate(79.24)"/><path class="cls-17" d="M1563.26,431.14a7.14,7.14,0,1,1-7.14-7.14A7.14,7.14,0,0,1,1563.26,431.14Z" transform="translate(79.24)"/><line class="cls-17" x1="1568.02" y1="450.06" x2="1581.04" y2="445"/><line class="cls-17" x1="1593.23" y1="446.97" x2="1601.3" y2="456.51"/><line class="cls-17" x1="1611.13" y1="455.8" x2="1632.5" y2="437.68"/><line class="cls-17" x1="1641.06" y1="435.43" x2="1655.21" y2="445.58"/><path class="cls-17" d="M1516.08,441.92a7.14,7.14,0,1,1-7.14-7.13A7.14,7.14,0,0,1,1516.08,441.92Z" transform="translate(79.24)"/><path class="cls-17" d="M1533.59,462.13a7.14,7.14,0,1,1-7.14-7.13A7.13,7.13,0,0,1,1533.59,462.13Z" transform="translate(79.24)"/><path class="cls-17" d="M1563.26,431.14a7.14,7.14,0,1,1-7.14-7.14A7.14,7.14,0,0,1,1563.26,431.14Z" transform="translate(79.24)"/><line class="cls-17" x1="1568.02" y1="450.06" x2="1581.04" y2="445"/><line class="cls-17" x1="1593.23" y1="446.97" x2="1601.3" y2="456.51"/><line class="cls-17" x1="1611.13" y1="455.8" x2="1632.5" y2="437.68"/><line class="cls-17" x1="1641.06" y1="435.43" x2="1655.21" y2="445.58"/><rect class="cls-21" x="253.95" y="381.85" width="12.44" height="46.69"/><rect class="cls-21" x="272.62" y="403.9" width="14" height="24.64"/><rect class="cls-21" x="292.84" y="392.23" width="12.44" height="36.32"/><line class="cls-21" x1="243.07" y1="428.55" x2="327.07" y2="428.55"/><line class="cls-21" x1="243.07" y1="428.55" x2="243.07" y2="359.8"/><rect class="cls-21" x="1838.25" y="269.39" width="12.44" height="46.69"/><rect class="cls-21" x="1856.92" y="291.44" width="14" height="24.64"/><rect class="cls-21" x="1877.14" y="279.77" width="12.44" height="36.32"/><line class="cls-21" x1="1827.36" y1="316.08" x2="1911.36" y2="316.08"/><line class="cls-21" x1="1827.36" y1="316.08" x2="1827.36" y2="247.34"/><path class="cls-20" d="M1102.23,199l-10.11,4.47.43,5.28-6.5,2.88-1.83-29.19,7.71-3.42,20.4,21-6.5,2.88Zm-10.56-.89,6.87-3.05-7.85-8.45Z" transform="translate(79.24)"/><path class="cls-20" d="M865.91,123.65a9.76,9.76,0,0,1,7.32,2.71,11.74,11.74,0,0,1,0,14.91,11.18,11.18,0,0,1-14.64,0,11.74,11.74,0,0,1,0-14.91,9.8,9.8,0,0,1,7.32-2.71m0,4.2a3.08,3.08,0,0,0-2.77,1.55,8.21,8.21,0,0,0-1,4.41,8.31,8.31,0,0,0,1,4.44,3.23,3.23,0,0,0,5.54,0,8.51,8.51,0,0,0,1-4.44,8.21,8.21,0,0,0-1-4.41,3.06,3.06,0,0,0-2.75-1.55M871,162.42h-5.53l23.36-38.77h5.55Zm23-20.35a9.85,9.85,0,0,1,7.33,2.7,10.08,10.08,0,0,1,2.68,7.44,10.22,10.22,0,0,1-2.68,7.47,11.2,11.2,0,0,1-14.68,0,10.23,10.23,0,0,1-2.69-7.47,10.07,10.07,0,0,1,2.69-7.42,9.83,9.83,0,0,1,7.35-2.72m0,4.2a3.11,3.11,0,0,0-2.76,1.54,10.56,10.56,0,0,0,0,8.82,3.09,3.09,0,0,0,2.77,1.53,3,3,0,0,0,2.75-1.53,10.56,10.56,0,0,0,0-8.82,3.07,3.07,0,0,0-2.74-1.54" transform="translate(79.24)"/><path class="cls-14" d="M1051.39,288.22c-13.12-17.64-27.73-23.12-37.67-24.6a43,43,0,0,0-19,1.12,3,3,0,0,0-1.48,1.14,52.51,52.51,0,0,0-13.73-7.29c-11.63-4.09-30.43-5.82-54.26,8.78-9.36-.93-23.26.61-37.62,12.64-8.38,7-13.62,14.44-15.62,22.1a48.35,48.35,0,0,0-13.42,11.5c-6.35,7.85-13.28,21.52-10.17,42.15a1.42,1.42,0,0,0,0,.22c-3.87,7.61-6.56,19.24-.62,34.34,5.57,14.15,15.48,20.55,22.81,23.42a41.2,41.2,0,0,0,13.6,2.85c.15.25.3.5.46.75,5.66,8.83,16.52,14.53,32.31,17a77.38,77.38,0,0,0-1.22,18.93,3,3,0,0,0,3,2.75l8-1a3,3,0,0,0,2.78-1.87c.14-.32,14.06-30.58,35.25-50.52a42.61,42.61,0,0,0,18.38,1.8c9.94-1.26,23.88-9,33.47-28.9a25.17,25.17,0,0,0,6.53.85c4.9,0,10.61-1.38,17-5.18,11.66-6.91,15-13.67,15.92-19.8a29.57,29.57,0,0,0,.2-7.07,53.26,53.26,0,0,0,5.36-16.9C1063.1,317.75,1062.44,303.09,1051.39,288.22Z" transform="translate(79.24)"/><path class="cls-20" d="M926.85,458.39H917.6a2,2,0,0,1-1.94-1.77c-1.41-15.94,5.79-38.43,6.1-39.38a1.94,1.94,0,1,1,3.7,1.19c-.07.22-6.72,21-6,36.07h6.14c2.77-6.4,16.26-35.89,37.67-55.22a2,2,0,0,1,2.08-.34c1.32.57,32.64,13.6,49.75-24.9a1.95,1.95,0,0,1,3.56,1.58c-9.74,21.91-24.13,28.08-34.49,29.39A42.88,42.88,0,0,1,965,403c-22.44,20.79-36.18,53.87-36.31,54.21A1.94,1.94,0,0,1,926.85,458.39Z" transform="translate(79.24)"/><path class="cls-20" d="M1025.42,378a26.94,26.94,0,0,1-20-9.31c-4.64-4.45-6.44-10.52-4.81-16.25,1.2-4.24,4.17-7.43,7.57-8.14,1.7-.35,5-.37,8.15,3.46a1.94,1.94,0,1,1-3,2.46c-1-1.17-2.49-2.5-4.35-2.11s-3.82,2.57-4.62,5.39c-1.24,4.35.2,9,3.84,12.45a1.64,1.64,0,0,1,.21.24c.48.62,12,15.18,32.06,3.28,8.33-4.94,13.15-11.34,14.34-19,1.35-8.67-2.36-17.4-6.64-22.2a12.33,12.33,0,0,0-12.72-3.84,7.09,7.09,0,0,0-5.18,6.15c-.23,2.3.18,4,1.23,5.16a6.55,6.55,0,0,0,4.48,1.71,1.95,1.95,0,0,1,.14,3.89,10.45,10.45,0,0,1-7.44-2.91c-1.87-2-2.64-4.77-2.28-8.25a11,11,0,0,1,7.86-9.45,16.3,16.3,0,0,1,16.82,4.95c4.88,5.48,9.12,15.46,7.58,25.39-1.36,8.75-7,16.27-16.2,21.75C1036,376.63,1030.32,378,1025.42,378Z" transform="translate(79.24)"/><path class="cls-20" d="M1056.87,345.11a2,2,0,0,1-1-.27,2,2,0,0,1-.67-2.67c.66-1.1,15.49-26.63-4.37-53.34-23.95-32.2-52.66-22.66-52.94-22.56a1.94,1.94,0,1,1-1.28-3.67c.32-.12,8.09-2.76,19.09-1.12,10.08,1.51,24.9,7.08,38.25,25,21.46,28.86,4.76,57.38,4.59,57.66A1.94,1.94,0,0,1,1056.87,345.11Z" transform="translate(79.24)"/><path class="cls-20" d="M988.64,306.29c-5.07,0-8.86-1.63-11.27-4.86-5-6.76-1.77-17.95-1.63-18.43a1.95,1.95,0,0,1,3.73,1.12c0,.1-2.85,9.8,1,15,1.66,2.21,4.33,3.29,8.15,3.29h.06c6.44,0,11.49-3.33,13.86-9.09,2.85-6.93.86-15.47-4.95-21.25l-.12-.13a46.71,46.71,0,0,0-18.89-12.1c-16.22-5.63-34-2.47-52.8,9.37a1.94,1.94,0,1,1-2.07-3.29c24.84-15.64,44.35-13.9,56.34-9.68a50.24,50.24,0,0,1,20.34,13.12c7,7,9.23,17,5.75,25.44a18.29,18.29,0,0,1-17.45,11.5Z" transform="translate(79.24)"/><path class="cls-20" d="M888.43,331.16c-6.06,0-10.88-3.81-13-6.52a27.22,27.22,0,0,1-6-19c.66-9.52,6.27-18.76,16.65-27.47,14.93-12.51,29.34-13.83,38.8-12.75A44.79,44.79,0,0,1,942,270.88c15.4,7.74,19.45,22,15.47,32-3.29,8.32-11.17,12.22-19.62,9.71a11.24,11.24,0,0,1-7.3-5.85c-2.83-5.84,0-13.22.15-13.53a1.95,1.95,0,0,1,3.62,1.43c0,.06-2.35,6.12-.26,10.41a7.42,7.42,0,0,0,4.9,3.81c7.9,2.35,13-2.52,14.89-7.41,3.23-8.17.33-20.15-13.67-27.14l-.16-.1c-1-.62-25.07-15.17-51.47,6.95-9.52,8-14.65,16.28-15.26,24.69a23.68,23.68,0,0,0,5.05,16.22l.09.1c.26.33,6.49,8.05,15.12,3.82,4.07-2,5.06-4.9,5.17-7a7.25,7.25,0,0,0-2.77-6.31,2.34,2.34,0,0,0-2.52-.16,1.95,1.95,0,0,1-1.84-3.43,6.24,6.24,0,0,1,6.45.31,11.07,11.07,0,0,1,4.57,9.8c-.14,2.56-1.29,7.29-7.35,10.26A15.34,15.34,0,0,1,888.43,331.16Z" transform="translate(79.24)"/><path class="cls-20" d="M847.77,357.24a2,2,0,0,1-1.92-1.65c-3.15-20.95,3.86-34.81,10.29-42.74a46.52,46.52,0,0,1,15-12.38,1.94,1.94,0,1,1,1.63,3.53h0a43.61,43.61,0,0,0-13.72,11.43c-8.55,10.64-11.7,24-9.35,39.58a1.94,1.94,0,0,1-1.64,2.21Z" transform="translate(79.24)"/><path class="cls-20" d="M882.67,417.59c-3.28,0-27.41-.9-37.47-26.47-12.65-32.15,13-49.08,13.23-49.25l.13-.08a18.5,18.5,0,0,1,14.75-1.46,16.2,16.2,0,0,1,9.56,9.05c2.17,5,.85,11.37-3.37,16.19-3.4,3.89-7.72,5.57-11.55,4.48a1.94,1.94,0,1,1,1-3.74c2.32.65,5.22-.61,7.57-3.3,2.65-3,4.52-7.95,2.73-12.09A12.24,12.24,0,0,0,872,344a14.59,14.59,0,0,0-11.56,1.18c-1.57,1-22.93,15.85-11.65,44.51,9.72,24.7,33.06,24.05,34,24a1.94,1.94,0,1,1,.17,3.88Z" transform="translate(79.24)"/><path class="cls-20" d="M919.42,436.42l-.24,0c-17.78-2.17-29.85-8.06-35.9-17.5a27.16,27.16,0,0,1-3.21-21.54,14.24,14.24,0,0,1,13.77-9.9h0c5.57,0,12.53,3.31,15.38,12.58,1.24,4-2,9-5.85,11a7.42,7.42,0,0,1-9.8-1.79,1.95,1.95,0,1,1,3-2.48c1.33,1.62,3,1.9,5,.85,2.53-1.37,4.53-4.64,4-6.49-1.89-6.15-6.25-9.82-11.67-9.83h0a10.36,10.36,0,0,0-10.05,7.18,23.57,23.57,0,0,0,2.8,18.33c5.4,8.38,16.53,13.66,33.06,15.68a1.95,1.95,0,0,1-.23,3.88Z" transform="translate(79.24)"/><path class="cls-20" d="M902.27,391.39a54.34,54.34,0,0,1-7.5-.47,1.95,1.95,0,0,1,.59-3.85,57.22,57.22,0,0,0,20.19-1.14C929,382.52,937,374,939.27,360.74c1.28-7.38-.75-13.56-5.55-16.95a13.7,13.7,0,0,0-14.55-.76c-3,1.71-8,6.2-7.28,17a1.95,1.95,0,0,1-3.88.28c-.67-9.42,2.7-16.94,9.24-20.63a17.61,17.61,0,0,1,18.71,1c6.08,4.29,8.69,11.87,7.15,20.79-2.55,14.79-11.79,24.58-26.72,28.33A58.67,58.67,0,0,1,902.27,391.39Z" transform="translate(79.24)"/><path class="cls-20" d="M985.88,375.73a9.75,9.75,0,0,1-8-4.63c-2.39-3.69-3-9.86,3.34-15.11,8.95-7.46,18.91-.84,22.92,3.7a1.94,1.94,0,1,1-2.91,2.58h0c-.38-.42-9.24-10.19-17.52-3.29-5.45,4.54-3.34,8.81-2.57,10,1.35,2.07,4.08,3.64,6.5,2.46a1.95,1.95,0,0,1,1.71,3.5A7.83,7.83,0,0,1,985.88,375.73Z" transform="translate(79.24)"/><g id="idea"><path class="cls-20" d="M429.86,195.4a1,1,0,0,1-1-1A10.86,10.86,0,0,0,418,183.59a1,1,0,0,1,0-1.94,12.8,12.8,0,0,1,12.79,12.78A1,1,0,0,1,429.86,195.4Z" transform="translate(79.24)"/><polygon class="cls-20" points="500.97 219.74 499.51 219.5 502.39 202.05 503.85 202.29 500.97 219.74 500.97 219.74"/><polygon class="cls-20" points="493.59 219.74 490.71 202.29 492.17 202.05 495.06 219.5 493.59 219.74 493.59 219.74"/><path class="cls-20" d="M423.79,204.5c-.61,0-.87-.59-1.06-1-.08-.18-.25-.55-.35-.55s-.25.37-.33.55c-.19.43-.46,1-1.06,1s-.87-.59-1.06-1c-.08-.18-.25-.55-.34-.55s-.26.37-.34.55c-.2.43-.46,1-1.07,1s-.86-.59-1.06-1c-.08-.18-.24-.55-.34-.55s-.26.37-.34.55c-.19.43-.45,1-1.06,1s-.87-.59-1.06-1c-.08-.18-.25-.55-.34-.55s-.26.37-.34.55c-.2.43-.46,1-1.06,1v-.79c.09,0,.26-.37.33-.55.2-.43.46-1,1.07-1s.87.59,1.06,1c.08.18.25.55.34.55s.26-.37.34-.55c.19-.43.46-1,1.06-1s.87.59,1.07,1c.07.18.24.55.33.55s.26-.37.35-.55c.19-.43.45-1,1.06-1s.86.59,1.05,1c.09.18.25.55.35.55s.26-.37.34-.55c.19-.43.45-1,1.05-1s.87.59,1.06,1c.09.18.25.55.35.55v.79Z" transform="translate(79.24)"/><path class="cls-20" d="M418,173a1,1,0,0,1-1-1V161.89a1,1,0,1,1,1.93,0v10.16A1,1,0,0,1,418,173Z" transform="translate(79.24)"/><path class="cls-20" d="M429.64,176.12a1,1,0,0,1-.49-.13,1,1,0,0,1-.35-1.32l5.08-8.8a1,1,0,0,1,1.67,1l-5.07,8.8A1,1,0,0,1,429.64,176.12Z" transform="translate(79.24)"/><path class="cls-20" d="M438.13,184.61a1,1,0,0,1-.48-1.8l8.79-5.08a1,1,0,1,1,1,1.67l-8.79,5.08A1,1,0,0,1,438.13,184.61Z" transform="translate(79.24)"/><path class="cls-20" d="M451.73,196.21H441.25a1,1,0,0,1,0-1.94h10.48a1,1,0,0,1,0,1.94Z" transform="translate(79.24)"/><path class="cls-20" d="M446.94,212.89a1,1,0,0,1-.49-.13l-8.79-5.07a1,1,0,1,1,1-1.68l8.8,5.08a1,1,0,0,1,.35,1.32A.94.94,0,0,1,446.94,212.89Z" transform="translate(79.24)"/><path class="cls-20" d="M406.43,176.13a1,1,0,0,1-.83-.49l-5.08-8.79a1,1,0,0,1,.35-1.33,1,1,0,0,1,1.33.36l5.07,8.8a1,1,0,0,1-.84,1.45Z" transform="translate(79.24)"/><path class="cls-20" d="M397.94,184.62a.94.94,0,0,1-.48-.13l-8.8-5.07a1,1,0,0,1,1-1.68l8.8,5.08a1,1,0,0,1,.35,1.32A1,1,0,0,1,397.94,184.62Z" transform="translate(79.24)"/><path class="cls-20" d="M394.84,196.23H384.69a1,1,0,1,1,0-1.94h10.15a1,1,0,1,1,0,1.94Z" transform="translate(79.24)"/><path class="cls-20" d="M389.15,212.91a1,1,0,0,1-.48-1.81l8.8-5.08a1,1,0,0,1,1,1.68l-8.8,5.08A1.05,1.05,0,0,1,389.15,212.91Z" transform="translate(79.24)"/><path class="cls-20" d="M426.63,220H409.42a1.61,1.61,0,0,1-1.61-1.61,1.41,1.41,0,0,1,0-.21c.1-1.16,0-4.69-1.19-6.26-6.89-8.88-7.08-17.43-7.08-17.51a18.49,18.49,0,1,1,37,0c0,.08-.18,8.63-7.09,17.53-1.23,1.62-1.28,5.16-1.22,6.17a2.64,2.64,0,0,1,0,.28A1.61,1.61,0,0,1,426.63,220Zm-17.21-3.23a1.6,1.6,0,0,0-1.59,1.37A1.61,1.61,0,0,1,409.42,216.8Zm17.48,0a1.67,1.67,0,0,1,.62.24A1.61,1.61,0,0,0,426.9,216.83Zm-15.84,0H425c0-.73.09-1.34.09-1.35a10.84,10.84,0,0,1,1.79-5.44c6.21-8,6.44-15.5,6.44-15.58a15.27,15.27,0,0,0-30.53,0c0,.07.23,7.57,6.42,15.55a10.77,10.77,0,0,1,1.78,5.46S411,216.08,411.06,216.8Z" transform="translate(79.24)"/><path class="cls-20" d="M426.08,223.49H410a1.62,1.62,0,1,1,0-3.23h16.07a1.62,1.62,0,0,1,0,3.23Z" transform="translate(79.24)"/><path class="cls-20" d="M424.89,226.94H411.2a1.62,1.62,0,1,1,0-3.23h13.69a1.62,1.62,0,0,1,0,3.23Z" transform="translate(79.24)"/><path class="cls-20" d="M422.87,230.3h-9.66a1.62,1.62,0,1,1,0-3.23h9.66a1.62,1.62,0,1,1,0,3.23Z" transform="translate(79.24)"/></g><path class="cls-20" d="M1586.44,296.48a17.12,17.12,0,1,0,0,24.21A17.11,17.11,0,0,0,1586.44,296.48Zm-21.18,21.18a12.84,12.84,0,1,1,18.16,0A12.83,12.83,0,0,1,1565.26,317.66Z" transform="translate(79.24)"/><path class="cls-20" d="M1547.88,341.64a4.65,4.65,0,0,1-6.6,0h0a4.65,4.65,0,0,1,0-6.6l12.82-12.82a4.67,4.67,0,0,1,6.6,0h0a4.68,4.68,0,0,1,0,6.61Z" transform="translate(79.24)"/><path class="cls-20" d="M1555.77,329.45a1.61,1.61,0,0,1-2.29,0h0a1.61,1.61,0,0,1,0-2.29l9.32-9.32a1.62,1.62,0,0,1,2.29,0h0a1.62,1.62,0,0,1,0,2.29Z" transform="translate(79.24)"/><path class="cls-20" d="M1581,301.93a11.85,11.85,0,0,1,.69,16c.26-.22.52-.45.76-.69a11.83,11.83,0,0,0-16.72-16.73,8.53,8.53,0,0,0-.7.77A11.83,11.83,0,0,1,1581,301.93Z" transform="translate(79.24)"/><polyline class="cls-21" points="600.74 293.15 602.11 284.9 633.48 263.14 662.54 305.04"/><polyline class="cls-21" points="601.84 292.38 603.02 285.48 633.22 264.53 661.76 305.67 662.04 311.33"/><rect class="cls-21" x="532.75" y="277.11" width="40" height="52" transform="translate(5.05 369.08) rotate(-34.75)"/><line class="cls-21" x1="609.91" y1="294.09" x2="632.1" y2="278.7"/><line class="cls-21" x1="614.09" y1="294.84" x2="629.7" y2="284.01"/><line class="cls-21" x1="632.71" y1="326.95" x2="654.9" y2="311.57"/><rect class="cls-21" x="540.04" y="295.02" width="26" height="17" transform="translate(4.87 369.35) rotate(-34.75)"/><path class="cls-17" d="M1241.54,316.65V311.3h-4.25a20,20,0,0,0-1.31-4.95l3.66-2.12L1237,299.6l-3.68,2.12a20,20,0,0,0-3.62-3.62l2.12-3.67-4.63-2.68-2.12,3.66a20,20,0,0,0-5-1.31v-4.24h-5.35v4.24a20,20,0,0,0-5,1.31l-2.11-3.66-4.64,2.67,2.12,3.68a20.33,20.33,0,0,0-3.62,3.62l-3.67-2.12-2.68,4.63,3.66,2.12a20,20,0,0,0-1.31,4.95h-4.24v5.35h4.24a20,20,0,0,0,1.31,5l-3.66,2.12,2.68,4.63,3.67-2.12a20.33,20.33,0,0,0,3.62,3.62l-2.12,3.67,4.64,2.68,2.11-3.66a20,20,0,0,0,5,1.31v4.24h5.35v-4.24a20,20,0,0,0,5-1.31l2.12,3.66,4.63-2.68-2.12-3.67a20.33,20.33,0,0,0,3.62-3.62l3.68,2.12,2.67-4.63L1236,321.6a20,20,0,0,0,1.31-5ZM1205.27,314a12.15,12.15,0,1,1,12.15,12.14A12.15,12.15,0,0,1,1205.27,314Z" transform="translate(79.24)"/><path class="cls-20" d="M963.74,192.44h0v-15.3a.89.89,0,0,0-1.09-.86l-13,3.16a.89.89,0,0,0-.67.86v13.55a4.07,4.07,0,0,0-.61-.06,5.51,5.51,0,0,0-2.29.57c-1.76.83-3.47,2.61-3.17,4.26a2.16,2.16,0,0,0,2.34,1.64,5.41,5.41,0,0,0,2.28-.56c1.71-.81,3.37-2.5,3.19-4.11h0V185.07L962,182.34v8.36a3.08,3.08,0,0,0-.61-.06,5.49,5.49,0,0,0-2.29.56c-1.76.83-3.48,2.61-3.17,4.26a2.15,2.15,0,0,0,2.34,1.64,5.45,5.45,0,0,0,2.28-.56C962.26,195.73,963.92,194,963.74,192.44Z" transform="translate(79.24)"/><path class="cls-20" d="M1039.88,444.8h0V429.51a.88.88,0,0,0-1.09-.86l-13,3.16a.89.89,0,0,0-.67.85v13.56a4.07,4.07,0,0,0-.61-.06,5.51,5.51,0,0,0-2.29.57c-1.76.83-3.47,2.61-3.17,4.25a2.16,2.16,0,0,0,2.34,1.65,5.43,5.43,0,0,0,2.28-.57c1.72-.8,3.37-2.49,3.19-4.1h0V437.44l11.24-2.73v8.35a4.07,4.07,0,0,0-.61-.06,5.51,5.51,0,0,0-2.29.57c-1.76.83-3.48,2.61-3.17,4.26a2.16,2.16,0,0,0,2.34,1.64,5.41,5.41,0,0,0,2.28-.56C1038.4,448.1,1040.06,446.41,1039.88,444.8Z" transform="translate(79.24)"/><polygon class="cls-20" points="1838.07 403.99 1832.17 407.31 1829.02 401.72 1826.21 403.3 1829.36 408.89 1823.77 412.04 1825.35 414.85 1830.94 411.7 1834.26 417.6 1837.07 416.02 1833.75 410.12 1839.65 406.8 1838.07 403.99"/><polygon class="cls-20" points="423.82 99.83 417.92 103.16 414.77 97.56 411.96 99.14 415.11 104.73 409.52 107.88 411.1 110.69 416.69 107.55 420.01 113.45 422.82 111.87 419.5 105.96 425.41 102.64 423.82 99.83"/><polygon class="cls-20" points="1211.43 446.07 1205.52 449.39 1202.38 443.8 1199.57 445.38 1202.71 450.97 1197.12 454.12 1198.7 456.93 1204.3 453.78 1207.62 459.69 1210.43 458.11 1207.1 452.2 1213.01 448.88 1211.43 446.07"/><polygon class="cls-20" points="1522.45 264.19 1516.54 267.52 1513.4 261.92 1510.59 263.5 1513.73 269.1 1508.14 272.24 1509.72 275.05 1515.32 271.9 1518.64 277.81 1521.45 276.23 1518.12 270.32 1524.03 267 1522.45 264.19"/><polyline class="cls-22" points="480.38 405.58 489.67 405.6 498.21 435 501.78 384.32 563.17 384.47"/><path class="cls-20" d="M1700.1,141.86l-4.63,1.92-3.72-6a.75.75,0,0,0-.5-.35.79.79,0,0,0-.6.12l-1.55,1.09-7.06-7.54a.81.81,0,0,0-.64-.24.78.78,0,0,0-.58.35l-.87,1.32-8.52-5a.78.78,0,0,0-.7,0,.77.77,0,0,0-.45.54l-4.86,21.61-.27-22.15a.8.8,0,0,0-.35-.64.74.74,0,0,0-.72-.07l-8.94,3.66-.62-1.58a.83.83,0,0,0-.48-.46.78.78,0,0,0-.65.08l-8.47,5.15-1.08-1.17a.78.78,0,0,0-1-.1l-7.67,5.57a.79.79,0,0,0-.31.53l-2.9-1.73-1.09,42.77,28.05,19.14,36.44-14.39Zm-18.52-9,6.23,6.65-19.55,13.62Zm-2.48.94-13,19.76,5.44-24.2Zm-15.49-5.21.3,24.23-8.21-21Zm-10.2,1.63.57,1.47h0l7.89,20.18L1646,134.77Zm-17.36,8.91h0l7.11-5.17,19.44,21ZM1668.32,155l22.55-15.71,3.14,5.07Z" transform="translate(79.24)"/><path class="cls-20" d="M742,359.85l-1.24,4.36-6.33-.73a.73.73,0,0,0-.53.16.71.71,0,0,0-.25.5l-.1,1.7-9.3.77a.71.71,0,0,0-.52.31.73.73,0,0,0-.09.61l.45,1.36-8.34,3.21a.7.7,0,0,0-.42.47.71.71,0,0,0,.13.63L728,388.76l-15.84-12.24a.72.72,0,0,0-.65-.11.68.68,0,0,0-.45.47l-2.43,8.38-1.47-.45a.71.71,0,0,0-.59.09.67.67,0,0,0-.31.5l-1.1,8.89-1.44.11a.69.69,0,0,0-.65.67l-.36,8.55a.72.72,0,0,0,.2.52l-2.85,1.09L729.75,430,759,420.89,769.31,387Zm-16.74,8.09,8.2-.68-1.33,21.48Zm-.73,2.29,6.7,20.27-14.07-17.44Zm-12.38,8,17.32,13.39-19.47-6Zm-4.57,8.14,1.36.42h0l18.72,5.74-21,1.62Zm-3.43,17.28h0l.33-7.93,25.77-2Zm29.33-13.94L735,365l5.36.62Z" transform="translate(79.24)"/><path class="cls-20" d="M355.37,305l-4.2,2.38-4.72-4.87a.83.83,0,0,0-.56-.25.78.78,0,0,0-.57.2L344,303.63l-8.28-5.79a.8.8,0,0,0-.67-.13.71.71,0,0,0-.5.39l-.62,1.32-9.26-3.34a.83.83,0,0,0-.69.06.66.66,0,0,0-.35.55l-.85,20.14-4.27-19.92a.75.75,0,0,0-.46-.52.79.79,0,0,0-.72,0l-8.1,4.55-.9-1.34a.82.82,0,0,0-.55-.34.8.8,0,0,0-.62.15l-7.37,5.83-1.27-.9a.84.84,0,0,0-1,.05l-6.5,6.1a.63.63,0,0,0-.21.52l-3.16-1.16,6.65,38.68,31,13.31,33.12-18.07Zm-19.78-5.47,7.31,5.11-16.7,15Zm-2.26,1.2-9.15,19.6,1-22.55Zm-16.12-2.53L321.88,320,310,302.2Zm-9.71,2.9.83,1.24h0l11.38,17.08-18.65-13.22Zm-15.39,10.45h0l6-5.65L321,322.07Zm34.48,9.76L345.85,304l4,4.13Z" transform="translate(79.24)"/></g></g></g></svg>