<svg xmlns="http://www.w3.org/2000/svg" xmlns:xlink="http://www.w3.org/1999/xlink" viewBox="0 0 1481.86 550.31"><defs><style>.cls-1{fill:none;stroke:#062c5d;stroke-miterlimit:10;stroke-width:2px;}.cls-2{fill:url(#New_Gradient_Swatch_5);}.cls-3{fill:#fff;}.cls-4{fill:url(#linear-gradient);}.cls-5{fill:url(#New_Gradient_Swatch_5-2);}.cls-6{fill:url(#New_Gradient_Swatch_5-3);}.cls-7{fill:url(#New_Gradient_Swatch_5-4);}.cls-8{fill:url(#New_Gradient_Swatch_5-5);}.cls-9{fill:url(#New_Gradient_Swatch_5-6);}</style><linearGradient id="New_Gradient_Swatch_5" x1="75.28" y1="36.29" x2="247.01" y2="208.02" gradientUnits="userSpaceOnUse"><stop offset="0" stop-color="#17d2e3"/><stop offset="0.17" stop-color="#15bed3"/><stop offset="0.52" stop-color="#119bb7"/><stop offset="0.81" stop-color="#0f86a5"/><stop offset="1" stop-color="#0e7e9f"/><stop offset="1" stop-color="#0b6087"/><stop offset="1" stop-color="#08416e"/><stop offset="1" stop-color="#05285a"/><stop offset="1" stop-color="#03174c"/><stop offset="1" stop-color="#020c44"/><stop offset="1" stop-color="#020941"/></linearGradient><linearGradient id="linear-gradient" x1="437.75" y1="-11.16" x2="658.3" y2="217.22" gradientUnits="userSpaceOnUse"><stop offset="0" stop-color="#17d2e3"/><stop offset="0.65" stop-color="#1198b4"/><stop offset="1" stop-color="#0e7e9f"/><stop offset="1" stop-color="#0b6087"/><stop offset="1" stop-color="#08416e"/><stop offset="1" stop-color="#05285a"/><stop offset="1" stop-color="#03174c"/><stop offset="1" stop-color="#020c44"/><stop offset="1" stop-color="#020941"/></linearGradient><linearGradient id="New_Gradient_Swatch_5-2" x1="843.76" y1="-11.16" x2="1064.3" y2="217.22" xlink:href="#New_Gradient_Swatch_5"/><linearGradient id="New_Gradient_Swatch_5-3" x1="1249.76" y1="-11.16" x2="1470.31" y2="217.22" xlink:href="#New_Gradient_Swatch_5"/><linearGradient id="New_Gradient_Swatch_5-4" x1="31.75" y1="312.77" x2="252.29" y2="541.15" xlink:href="#New_Gradient_Swatch_5"/><linearGradient id="New_Gradient_Swatch_5-5" x1="437.75" y1="312.77" x2="658.3" y2="541.15" xlink:href="#New_Gradient_Swatch_5"/><linearGradient id="New_Gradient_Swatch_5-6" x1="1249.76" y1="312.77" x2="1470.31" y2="541.15" xlink:href="#New_Gradient_Swatch_5"/></defs><g id="Layer_2" data-name="Layer 2"><g id="Layer_1-2" data-name="Layer 1"><rect class="cls-1" x="1" y="22.52" width="244.03" height="202.86"/><rect class="cls-2" x="20.19" width="243.65" height="206.07"/><path class="cls-3" d="M95.09,96.4h3.69L108,127.21h-3.39L96.94,99.7l-7.7,27.51H85.85Zm-4.64,20.49H103.8v2.84H90.45Z"/><path class="cls-3" d="M115.33,127.21h-3.07V96.4h3.07Z"/><path class="cls-3" d="M132.4,133.06h-2.78l10.87-40.31h2.78Z"/><path class="cls-3" d="M176.15,96.4h3.09v30.81h-3V101.59l.28,1.35-7.59,20h-2.38L159,103.37l.27-1.78v25.62h-3V96.4h3.1l8.41,22.36Z"/><path class="cls-3" d="M185.17,96.4h3.06v30.81h-3.06Zm2.17,28h14.13v2.84H187.34Z"/><rect class="cls-1" x="407" y="22.52" width="244.03" height="202.86"/><rect class="cls-4" x="426.2" width="243.65" height="206.07"/><path class="cls-3" d="M509,73.46h3v30.82h-3Zm2.27,28h7.25a5.59,5.59,0,0,0,4.06-1.32,5.36,5.36,0,0,0,1.34-4V81.58a5.33,5.33,0,0,0-1.34-4,5.59,5.59,0,0,0-4.06-1.33h-7.25V73.46h7.12a11,11,0,0,1,4.76.92A6.16,6.16,0,0,1,526,77.16a9.87,9.87,0,0,1,1,4.57V96a9.67,9.67,0,0,1-1,4.56,6.28,6.28,0,0,1-2.89,2.78,10.89,10.89,0,0,1-4.76.93h-7.1Z"/><path class="cls-3" d="M533.58,103a6.29,6.29,0,0,1-1.78-4.84,6.92,6.92,0,0,1,1.81-5.18,7.27,7.27,0,0,1,5.29-1.77h5.64l.29,2.52h-5.91a4.16,4.16,0,0,0-3.14,1.13,4.59,4.59,0,0,0-1.08,3.3,3.62,3.62,0,0,0,1.18,2.93,5.17,5.17,0,0,0,3.42,1,7,7,0,0,0,3.74-.82,2.71,2.71,0,0,0,1.3-2.44l.45,2.35a4.32,4.32,0,0,1-1.14,1.92,5.09,5.09,0,0,1-2,1.17,9.58,9.58,0,0,1-2.87.39A7.29,7.29,0,0,1,533.58,103Zm10.76-13.72a4.21,4.21,0,0,0-4.64-4.64,5.18,5.18,0,0,0-2.78.74,4.45,4.45,0,0,0-1.77,2.1l-2.59-.78a6,6,0,0,1,2.49-3.48,8.14,8.14,0,0,1,4.63-1.25,9,9,0,0,1,4.1.86,5.87,5.87,0,0,1,2.6,2.47,8,8,0,0,1,.89,3.9v15.13h-2.93Z"/><path class="cls-3" d="M551.19,82.28h9.71V85h-9.71Zm3.51,20.63a6.58,6.58,0,0,1-1.24-4.35V75.88h3V98.6a3.26,3.26,0,0,0,.64,2.18,2.3,2.3,0,0,0,1.88.77h1.87v2.84h-2.29A4.81,4.81,0,0,1,554.7,102.91Z"/><path class="cls-3" d="M566.75,103A6.29,6.29,0,0,1,565,98.11a6.92,6.92,0,0,1,1.81-5.18,7.27,7.27,0,0,1,5.29-1.77h5.64l.29,2.52h-5.91A4.16,4.16,0,0,0,569,94.81a4.59,4.59,0,0,0-1.08,3.3,3.62,3.62,0,0,0,1.18,2.93,5.17,5.17,0,0,0,3.42,1,7,7,0,0,0,3.74-.82,2.71,2.71,0,0,0,1.31-2.44l.44,2.35a4.32,4.32,0,0,1-1.14,1.92,5.09,5.09,0,0,1-2.05,1.17,9.58,9.58,0,0,1-2.87.39A7.31,7.31,0,0,1,566.75,103Zm10.77-13.72a4.23,4.23,0,0,0-4.65-4.64,5.18,5.18,0,0,0-2.78.74,4.45,4.45,0,0,0-1.77,2.1l-2.59-.78a6,6,0,0,1,2.49-3.48,8.14,8.14,0,0,1,4.63-1.25,9,9,0,0,1,4.1.86,5.87,5.87,0,0,1,2.6,2.47,8,8,0,0,1,.89,3.9v15.13h-2.92Z"/><path class="cls-3" d="M492.54,156a7.48,7.48,0,0,1-3.17-2,8.32,8.32,0,0,1-1.83-3.62l2.9-1.08a5.7,5.7,0,0,0,2.31,3.48,7.5,7.5,0,0,0,4.14,1.08,7.25,7.25,0,0,0,4.7-1.34,4.7,4.7,0,0,0,1.63-3.87v-.89a4.33,4.33,0,0,0-.8-2.7,5.58,5.58,0,0,0-2.06-1.65,27.69,27.69,0,0,0-3.26-1.25l-.1-.05-.11-.06-.57-.14a33.41,33.41,0,0,1-4.22-1.61,7.09,7.09,0,0,1-2.71-2.25,6.6,6.6,0,0,1-1.09-4v-.76a8.63,8.63,0,0,1,1.06-4.42,6.77,6.77,0,0,1,3.1-2.72,12,12,0,0,1,5-.93,11.15,11.15,0,0,1,4,.63,6.43,6.43,0,0,1,2.71,2,9.75,9.75,0,0,1,1.68,3.45l-2.86,1a6.18,6.18,0,0,0-2-3.21,5.63,5.63,0,0,0-3.48-1,7,7,0,0,0-4.6,1.31,4.64,4.64,0,0,0-1.59,3.79V134a3.85,3.85,0,0,0,.9,2.65,6.42,6.42,0,0,0,2.24,1.59,37.36,37.36,0,0,0,3.6,1.25.48.48,0,0,1,.18.06l.14.06a.86.86,0,0,1,.21.07.6.6,0,0,0,.19.06,21.35,21.35,0,0,1,3.87,1.57,7.42,7.42,0,0,1,2.6,2.39,7,7,0,0,1,1,4v1a8.59,8.59,0,0,1-1.07,4.44,6.66,6.66,0,0,1-3.17,2.73,12.83,12.83,0,0,1-5.13.91A13.45,13.45,0,0,1,492.54,156Z"/><path class="cls-3" d="M514.35,155.78a6.08,6.08,0,0,1-2.73-2.74,9.64,9.64,0,0,1-.93-4.43v-6.42a9.73,9.73,0,0,1,.92-4.45,6.2,6.2,0,0,1,2.73-2.77,9.59,9.59,0,0,1,4.42-.94,9.35,9.35,0,0,1,3.6.63,6,6,0,0,1,2.5,1.86,6.4,6.4,0,0,1,1.23,3l-3,.89a4.75,4.75,0,0,0-1.49-2.61,4.26,4.26,0,0,0-2.82-.91,5,5,0,0,0-3.78,1.37,5.52,5.52,0,0,0-1.3,4v6.42a5.35,5.35,0,0,0,1.3,3.89,5,5,0,0,0,3.78,1.35,4.68,4.68,0,0,0,2.91-.86,4.48,4.48,0,0,0,1.57-2.47l2.84.89a6.91,6.91,0,0,1-1.27,2.9,5.8,5.8,0,0,1-2.49,1.79,10.29,10.29,0,0,1-3.62.59A9.66,9.66,0,0,1,514.35,155.78Z"/><path class="cls-3" d="M530.74,126.17h3.07v3h-3.07Zm0,8.2h3.07v22h-3.07Z"/><path class="cls-3" d="M543.19,155.67a6.72,6.72,0,0,1-2.8-2.93,10.25,10.25,0,0,1-1-4.63V143a11.53,11.53,0,0,1,.93-4.87,6.79,6.79,0,0,1,2.7-3.08,9.06,9.06,0,0,1,8.41-.05,6.47,6.47,0,0,1,2.61,2.94,11.1,11.1,0,0,1,.91,4.68v4H541.4v-2.82h10.66v-1.4a6.32,6.32,0,0,0-1.25-4.13,4.27,4.27,0,0,0-3.48-1.49,4.48,4.48,0,0,0-3.66,1.56,6.66,6.66,0,0,0-1.3,4.4v5.38a5.9,5.9,0,0,0,1.38,4.18,5,5,0,0,0,3.86,1.48,4.41,4.41,0,0,0,2.73-.82,4.12,4.12,0,0,0,1.53-2.25l2.86.89a6.07,6.07,0,0,1-2.46,3.73,8,8,0,0,1-4.66,1.29A8.94,8.94,0,0,1,543.19,155.67Z"/><path class="cls-3" d="M560.09,134.37h3.06v22h-3.06Zm12.51,7.55a5.23,5.23,0,0,0-1.23-3.75,5.45,5.45,0,0,0-7,0,5.14,5.14,0,0,0-1.2,3.68l-.45-3.69a6.73,6.73,0,0,1,2.58-3.11,7,7,0,0,1,3.8-1,6,6,0,0,1,4.9,2,9.14,9.14,0,0,1,1.67,5.9v14.43h-3Z"/><path class="cls-3" d="M584.4,155.78a6.08,6.08,0,0,1-2.73-2.74,9.64,9.64,0,0,1-.93-4.43v-6.42a9.73,9.73,0,0,1,.92-4.45,6.25,6.25,0,0,1,2.73-2.77,9.59,9.59,0,0,1,4.42-.94,9.43,9.43,0,0,1,3.61.63,6,6,0,0,1,2.49,1.86,6.51,6.51,0,0,1,1.24,3l-3,.89a4.74,4.74,0,0,0-1.48-2.61,4.28,4.28,0,0,0-2.82-.91,5,5,0,0,0-3.79,1.37,5.52,5.52,0,0,0-1.3,4v6.42a5.35,5.35,0,0,0,1.3,3.89,5,5,0,0,0,3.79,1.35,4.67,4.67,0,0,0,2.9-.86,4.48,4.48,0,0,0,1.57-2.47l2.84.89a6.91,6.91,0,0,1-1.27,2.9,5.68,5.68,0,0,1-2.49,1.79,10.29,10.29,0,0,1-3.62.59A9.68,9.68,0,0,1,584.4,155.78Z"/><path class="cls-3" d="M603.49,155.67a6.78,6.78,0,0,1-2.8-2.93,10.25,10.25,0,0,1-1-4.63V143a11.53,11.53,0,0,1,.93-4.87,6.79,6.79,0,0,1,2.7-3.08,8.15,8.15,0,0,1,4.27-1.06,8.06,8.06,0,0,1,4.14,1,6.49,6.49,0,0,1,2.62,2.94,11.1,11.1,0,0,1,.9,4.68v4H601.7v-2.82h10.66v-1.4a6.32,6.32,0,0,0-1.25-4.13,4.27,4.27,0,0,0-3.48-1.49,4.48,4.48,0,0,0-3.66,1.56,6.71,6.71,0,0,0-1.29,4.4v5.38a5.9,5.9,0,0,0,1.37,4.18,5,5,0,0,0,3.86,1.48,4.46,4.46,0,0,0,2.74-.82,4.15,4.15,0,0,0,1.52-2.25l2.86.89a6.07,6.07,0,0,1-2.46,3.73,8,8,0,0,1-4.66,1.29A9,9,0,0,1,603.49,155.67Z"/><rect class="cls-1" x="813.01" y="22.52" width="244.03" height="202.86"/><rect class="cls-5" x="832.2" width="243.65" height="206.07"/><path class="cls-3" d="M896.09,96.37h3v30.84h-3Zm1.88,15h8.12a5.33,5.33,0,0,0,2.67-.64,4.33,4.33,0,0,0,1.76-1.81,5.83,5.83,0,0,0,.62-2.74v-1.64a6.16,6.16,0,0,0-.61-2.79,4.2,4.2,0,0,0-1.75-1.86,5.38,5.38,0,0,0-2.69-.65H898V96.37h7.91a9.6,9.6,0,0,1,4.42,1,6.66,6.66,0,0,1,2.88,2.75,8.58,8.58,0,0,1,1,4.24v1.8a8.78,8.78,0,0,1-1,4.29,6.8,6.8,0,0,1-2.88,2.79,9.48,9.48,0,0,1-4.42,1H898Zm8.12,1.88,2.78-1,6.4,15h-3.6Z"/><path class="cls-3" d="M922.08,126.6a6.13,6.13,0,0,1-2.62-2.73,9.51,9.51,0,0,1-.91-4.33v-6.78a9.19,9.19,0,0,1,.91-4.27,6.16,6.16,0,0,1,2.62-2.7,8.59,8.59,0,0,1,4.17-.94,8.5,8.5,0,0,1,4.14.94,6.26,6.26,0,0,1,2.64,2.7,9.19,9.19,0,0,1,.91,4.27v6.84a9.31,9.31,0,0,1-.91,4.29,6.28,6.28,0,0,1-2.64,2.71,8.61,8.61,0,0,1-4.14.93A8.71,8.71,0,0,1,922.08,126.6Zm7.59-3.24a5.35,5.35,0,0,0,1.22-3.73v-6.89a5.21,5.21,0,0,0-1.23-3.71,5.1,5.1,0,0,0-6.85,0,5.29,5.29,0,0,0-1.2,3.71v6.89a5.39,5.39,0,0,0,1.2,3.74,5.1,5.1,0,0,0,6.86,0Z"/><path class="cls-3" d="M939.13,96.4h3.06v30.81h-3.06Zm5,30.18a5.09,5.09,0,0,1-2.23-2.82l.3-4a6.09,6.09,0,0,0,.54,2.61,4.26,4.26,0,0,0,1.59,1.84,4.49,4.49,0,0,0,2.45.66,4.34,4.34,0,0,0,3.47-1.42,5.87,5.87,0,0,0,1.23-4v-6.61a5.92,5.92,0,0,0-1.23-4,4.34,4.34,0,0,0-3.47-1.42,4.49,4.49,0,0,0-2.45.66,4.21,4.21,0,0,0-1.59,1.8,5.87,5.87,0,0,0-.54,2.54l-.45-3.6a6.63,6.63,0,0,1,2.59-3,7.17,7.17,0,0,1,3.81-1,6.1,6.1,0,0,1,3.43,1,5.86,5.86,0,0,1,2.17,2.73,11.48,11.48,0,0,1,.74,4.36v6.61a11.06,11.06,0,0,1-.77,4.33,6,6,0,0,1-2.25,2.76,6.39,6.39,0,0,1-3.53.94A7.33,7.33,0,0,1,944.12,126.58Z"/><path class="cls-3" d="M962.67,126.6a6.2,6.2,0,0,1-2.63-2.73,9.64,9.64,0,0,1-.9-4.33v-6.78a9.32,9.32,0,0,1,.9-4.27,6.24,6.24,0,0,1,2.63-2.7,9.65,9.65,0,0,1,8.31,0,6.26,6.26,0,0,1,2.64,2.7,9.19,9.19,0,0,1,.91,4.27v6.84a9.31,9.31,0,0,1-.91,4.29A6.28,6.28,0,0,1,971,126.6a9.75,9.75,0,0,1-8.31,0Zm7.59-3.24a5.35,5.35,0,0,0,1.22-3.73v-6.89a5.21,5.21,0,0,0-1.23-3.71,5.1,5.1,0,0,0-6.85,0,5.29,5.29,0,0,0-1.2,3.71v6.89a5.39,5.39,0,0,0,1.2,3.74,5.1,5.1,0,0,0,6.86,0Z"/><path class="cls-3" d="M978,105.21h9.71V108H978Zm3.51,20.64a6.61,6.61,0,0,1-1.24-4.36V98.81h3.05v22.72a3.31,3.31,0,0,0,.64,2.19,2.3,2.3,0,0,0,1.88.76h1.87v2.84h-2.29A4.83,4.83,0,0,1,981.54,125.85Z"/><path class="cls-3" d="M993,97h3.07v3H993Zm0,8.2h3.07v22H993Z"/><path class="cls-3" d="M1004.93,127a6.67,6.67,0,0,1-2.67-1.67,7.4,7.4,0,0,1-1.64-2.72l2.48-1.12a7,7,0,0,0,2.3,2.57,5.66,5.66,0,0,0,3.13.88,6.33,6.33,0,0,0,3.87-1,3.49,3.49,0,0,0,1.34-3,2.63,2.63,0,0,0-.66-1.92,4.2,4.2,0,0,0-1.7-1,17.72,17.72,0,0,0-2.77-.59l-.2,0-.26,0a.24.24,0,0,0-.13,0h-.13a18.11,18.11,0,0,1-3.41-.83,5.13,5.13,0,0,1-2.29-1.72,5.43,5.43,0,0,1-.93-3.39,6.84,6.84,0,0,1,.85-3.57,5.39,5.39,0,0,1,2.53-2.18,10.1,10.1,0,0,1,4.12-.76,9.74,9.74,0,0,1,3.18.49,6.47,6.47,0,0,1,2.41,1.46,6.65,6.65,0,0,1,1.56,2.44l-2.51,1.1a6,6,0,0,0-2-2.12,5.09,5.09,0,0,0-2.72-.74,5.17,5.17,0,0,0-3.41,1,3.44,3.44,0,0,0-1.17,2.83,2.53,2.53,0,0,0,.68,1.89,4,4,0,0,0,1.75,1,22.57,22.57,0,0,0,2.91.56h.13l.12,0,.11,0a19.13,19.13,0,0,1,3.48.81,4.91,4.91,0,0,1,2.35,1.76,5.84,5.84,0,0,1,1,3.58,6.6,6.6,0,0,1-.92,3.62,5.63,5.63,0,0,1-2.73,2.22,11.53,11.53,0,0,1-4.4.75A10.89,10.89,0,0,1,1004.93,127Z"/><rect class="cls-1" x="1219.01" y="22.52" width="244.03" height="202.86"/><rect class="cls-6" x="1238.21" width="243.65" height="206.07"/><path class="cls-3" d="M1320.14,97.37a7.78,7.78,0,0,1-3.09-3.35,11.56,11.56,0,0,1-1.08-5.17V76.79a11.65,11.65,0,0,1,1.08-5.19,7.75,7.75,0,0,1,3.09-3.36,9.47,9.47,0,0,1,4.77-1.16,9.18,9.18,0,0,1,4.5,1.06,7.76,7.76,0,0,1,3.06,3.06,10.91,10.91,0,0,1,1.32,4.74h-3a7.77,7.77,0,0,0-1-3.19,5.43,5.43,0,0,0-4.86-2.79,5.75,5.75,0,0,0-3.13.83,5.43,5.43,0,0,0-2,2.36,8.5,8.5,0,0,0-.72,3.64V88.85a8.49,8.49,0,0,0,.72,3.63,5.35,5.35,0,0,0,2,2.35,5.75,5.75,0,0,0,3.13.82,5.61,5.61,0,0,0,2.83-.71,5.5,5.5,0,0,0,2-2.06,7.77,7.77,0,0,0,1-3.21h3a10.91,10.91,0,0,1-1.33,4.74,7.85,7.85,0,0,1-3.07,3.06,9.13,9.13,0,0,1-4.48,1.06A9.47,9.47,0,0,1,1320.14,97.37Z"/><path class="cls-3" d="M1341.72,92.43a3.25,3.25,0,0,0,.66,2.17,2.24,2.24,0,0,0,1.82.77h1.74v2.84h-2.12a4.81,4.81,0,0,1-3.81-1.52,6.34,6.34,0,0,1-1.34-4.31v-25h3Z"/><path class="cls-3" d="M1353,97.6a6.1,6.1,0,0,1-2.63-2.73,9.64,9.64,0,0,1-.9-4.33V83.76a9.32,9.32,0,0,1,.9-4.27,6.13,6.13,0,0,1,2.63-2.7,9.63,9.63,0,0,1,8.3,0,6.15,6.15,0,0,1,2.64,2.7,9.19,9.19,0,0,1,.91,4.27V90.6a9.31,9.31,0,0,1-.91,4.29,6.17,6.17,0,0,1-2.64,2.71,9.72,9.72,0,0,1-8.3,0Zm7.58-3.24a5.31,5.31,0,0,0,1.22-3.73V83.74a5.21,5.21,0,0,0-1.23-3.71,4.45,4.45,0,0,0-3.43-1.32A4.38,4.38,0,0,0,1353.7,80a5.25,5.25,0,0,0-1.21,3.71v6.89a5.34,5.34,0,0,0,1.21,3.74,5.09,5.09,0,0,0,6.85,0Z"/><path class="cls-3" d="M1372.54,91a4.76,4.76,0,0,0,1.2,3.46,4.53,4.53,0,0,0,3.42,1.24,4.65,4.65,0,0,0,3.4-1.15,4.46,4.46,0,0,0,1.18-3.34l.3,3.71a5.82,5.82,0,0,1-2.26,2.66,7.06,7.06,0,0,1-3.81,1,6,6,0,0,1-4.79-2,8.33,8.33,0,0,1-1.69-5.59V76.21h3Zm9.2-14.78h3v22h-3Z"/><path class="cls-3" d="M1392.88,97.66a5.7,5.7,0,0,1-2.25-2.66,10.2,10.2,0,0,1-.77-4.18V83.76a10.73,10.73,0,0,1,.76-4.27,5.88,5.88,0,0,1,2.2-2.7,6.22,6.22,0,0,1,3.48-.94,6.92,6.92,0,0,1,3.68,1,7.12,7.12,0,0,1,2.62,3l-.45,3.62a5.54,5.54,0,0,0-.55-2.51,4.36,4.36,0,0,0-1.58-1.77,4.44,4.44,0,0,0-2.45-.66,4.32,4.32,0,0,0-3.44,1.39,5.71,5.71,0,0,0-1.22,3.91v7a5.37,5.37,0,0,0,1.22,3.76,4.61,4.61,0,0,0,7.47-1.09,5.56,5.56,0,0,0,.55-2.5l.3,3.77a5.63,5.63,0,0,1-2.29,2.87,7.05,7.05,0,0,1-3.75.94A6.55,6.55,0,0,1,1392.88,97.66Zm9.27-30.26h3V98.21h-3Z"/><path class="cls-3" d="M1310,149.46a7.86,7.86,0,0,1-3.1-3.35,11.56,11.56,0,0,1-1.08-5.17V128.88a11.65,11.65,0,0,1,1.08-5.19,7.83,7.83,0,0,1,3.1-3.36,9.42,9.42,0,0,1,4.77-1.16,9.12,9.12,0,0,1,4.49,1.06,7.7,7.7,0,0,1,3.06,3.06,11.09,11.09,0,0,1,1.33,4.74h-3a8,8,0,0,0-1-3.19,5.39,5.39,0,0,0-4.85-2.79,5.79,5.79,0,0,0-3.14.83,5.41,5.41,0,0,0-2,2.36,8.53,8.53,0,0,0-.72,3.64v12.06a8.46,8.46,0,0,0,.72,3.63,5.27,5.27,0,0,0,2,2.35,5.79,5.79,0,0,0,3.14.82,5.64,5.64,0,0,0,2.83-.71,5.48,5.48,0,0,0,2-2.06,7.92,7.92,0,0,0,1-3.21h3a10.87,10.87,0,0,1-1.34,4.74,7.72,7.72,0,0,1-3.07,3.06,9.12,9.12,0,0,1-4.47,1.06A9.42,9.42,0,0,1,1310,149.46Z"/><path class="cls-3" d="M1331.47,149.69a6.2,6.2,0,0,1-2.63-2.73,9.64,9.64,0,0,1-.9-4.33v-6.78a9.32,9.32,0,0,1,.9-4.27,6.24,6.24,0,0,1,2.63-2.7,8.59,8.59,0,0,1,4.17-.94,8.5,8.5,0,0,1,4.14.94,6.26,6.26,0,0,1,2.64,2.7,9.19,9.19,0,0,1,.91,4.27v6.85a9.29,9.29,0,0,1-.91,4.28,6.28,6.28,0,0,1-2.64,2.71,8.61,8.61,0,0,1-4.14.93A8.71,8.71,0,0,1,1331.47,149.69Zm7.59-3.24a5.35,5.35,0,0,0,1.22-3.73v-6.89a5.22,5.22,0,0,0-1.23-3.71,5.1,5.1,0,0,0-6.85,0,5.31,5.31,0,0,0-1.2,3.71v6.89a5.37,5.37,0,0,0,1.2,3.74,5.1,5.1,0,0,0,6.86,0Z"/><path class="cls-3" d="M1351.2,150.07a6.78,6.78,0,0,1-2.68-1.67,7.38,7.38,0,0,1-1.63-2.72l2.48-1.12a7,7,0,0,0,2.3,2.58,5.72,5.72,0,0,0,3.13.88,6.32,6.32,0,0,0,3.87-1,3.52,3.52,0,0,0,1.34-3,2.6,2.6,0,0,0-.67-1.92,4.1,4.1,0,0,0-1.69-1,18,18,0,0,0-2.77-.59l-.2,0-.26,0a.24.24,0,0,0-.13-.05h-.13a17.92,17.92,0,0,1-3.41-.83,5.13,5.13,0,0,1-2.29-1.72,5.43,5.43,0,0,1-.93-3.39,6.84,6.84,0,0,1,.85-3.57,5.39,5.39,0,0,1,2.53-2.18A10.1,10.1,0,0,1,1355,128a9.74,9.74,0,0,1,3.18.49,6.26,6.26,0,0,1,4,3.9l-2.5,1.1a5.9,5.9,0,0,0-2-2.11,5,5,0,0,0-2.72-.75,5.22,5.22,0,0,0-3.42,1,3.47,3.47,0,0,0-1.16,2.83,2.49,2.49,0,0,0,.68,1.89,4,4,0,0,0,1.75,1,22.57,22.57,0,0,0,2.91.56h.13a.23.23,0,0,0,.11,0l.12,0a20.23,20.23,0,0,1,3.48.81,4.91,4.91,0,0,1,2.35,1.76,5.84,5.84,0,0,1,.95,3.58,6.66,6.66,0,0,1-.92,3.63,5.67,5.67,0,0,1-2.73,2.21,11.53,11.53,0,0,1-4.4.75A10.89,10.89,0,0,1,1351.2,150.07Z"/><path class="cls-3" d="M1370.83,149.61a6.72,6.72,0,0,1-2.79-2.94,10.12,10.12,0,0,1-1-4.63V137a11.56,11.56,0,0,1,.93-4.87,6.87,6.87,0,0,1,2.71-3.08A8.22,8.22,0,0,1,1375,128a8,8,0,0,1,4.13,1,6.41,6.41,0,0,1,2.62,2.95,11,11,0,0,1,.9,4.67v4H1369V137.8h10.66v-1.4a6.34,6.34,0,0,0-1.25-4.13,4.26,4.26,0,0,0-3.47-1.49,4.49,4.49,0,0,0-3.67,1.56,6.73,6.73,0,0,0-1.29,4.4v5.38a6,6,0,0,0,1.37,4.18,5,5,0,0,0,3.86,1.48A4.52,4.52,0,0,0,1378,147a4.22,4.22,0,0,0,1.52-2.26l2.86.89a6.09,6.09,0,0,1-2.45,3.73,8,8,0,0,1-4.67,1.29A9.11,9.11,0,0,1,1370.83,149.61Z"/><path class="cls-3" d="M1386,128.3h10.58v2.63H1386Zm2.33-3a6.27,6.27,0,0,1,1.35-4.34,5,5,0,0,1,3.93-1.49h3v2.84H1394a2.34,2.34,0,0,0-1.89.75,3.33,3.33,0,0,0-.64,2.19v25h-3.05Z"/><path class="cls-3" d="M1403.17,143.08a4.76,4.76,0,0,0,1.2,3.46,4.5,4.5,0,0,0,3.42,1.24,4.65,4.65,0,0,0,3.4-1.15,4.5,4.5,0,0,0,1.18-3.34l.29,3.71a5.69,5.69,0,0,1-2.25,2.66,7.09,7.09,0,0,1-3.81,1,6,6,0,0,1-4.79-2,8.32,8.32,0,0,1-1.69-5.58V128.3h3.05Zm9.2-14.78h3v22h-3Z"/><path class="cls-3" d="M1424.07,144.52a3.31,3.31,0,0,0,.65,2.17,2.26,2.26,0,0,0,1.83.77h1.73v2.84h-2.11a4.81,4.81,0,0,1-3.81-1.52,6.28,6.28,0,0,1-1.35-4.3v-25h3.06Z"/><rect class="cls-1" x="1" y="346.45" width="244.03" height="202.86"/><rect class="cls-7" x="20.19" y="323.93" width="243.65" height="206.07"/><path class="cls-3" d="M101.08,394.33h3l13.82,26.51-.89-.15V394.33H120v30.79h-3L103,398.5l1.08.32v26.3h-3Z"/><path class="cls-3" d="M129.09,424.45a6.69,6.69,0,0,1-2.8-2.94,10.25,10.25,0,0,1-1-4.63v-5.07a11.56,11.56,0,0,1,.94-4.87,6.79,6.79,0,0,1,2.7-3.08,8.22,8.22,0,0,1,4.27-1.06,8,8,0,0,1,4.13,1,6.41,6.41,0,0,1,2.62,2.95,11,11,0,0,1,.9,4.67v4H127.3v-2.82H138v-1.4a6.4,6.4,0,0,0-1.25-4.13,4.27,4.27,0,0,0-3.48-1.49,4.52,4.52,0,0,0-3.67,1.56,6.73,6.73,0,0,0-1.29,4.4V417a5.9,5.9,0,0,0,1.38,4.18,5,5,0,0,0,3.86,1.48,4.49,4.49,0,0,0,2.73-.81,4.23,4.23,0,0,0,1.53-2.26l2.86.89a6.15,6.15,0,0,1-2.46,3.73,8,8,0,0,1-4.66,1.29A9.05,9.05,0,0,1,129.09,424.45Z"/><path class="cls-3" d="M146,403.14h3v22h-3Zm12.51,7.55a5.23,5.23,0,0,0-1.23-3.75,4.67,4.67,0,0,0-3.54-1.3,4.6,4.6,0,0,0-3.48,1.27,5.12,5.12,0,0,0-1.21,3.67l-.44-3.68a6.69,6.69,0,0,1,2.57-3.12,7.17,7.17,0,0,1,3.81-1,5.94,5.94,0,0,1,4.89,2,9,9,0,0,1,1.68,5.89v14.43H158.5Z"/><path class="cls-3" d="M170.16,424.53a6.13,6.13,0,0,1-2.62-2.73,9.64,9.64,0,0,1-.9-4.33v-6.78a9.32,9.32,0,0,1,.9-4.27,6.16,6.16,0,0,1,2.62-2.7,8.59,8.59,0,0,1,4.17-.94,8.5,8.5,0,0,1,4.14.94,6.26,6.26,0,0,1,2.64,2.7,9.19,9.19,0,0,1,.91,4.27v6.85a9.29,9.29,0,0,1-.91,4.28,6.28,6.28,0,0,1-2.64,2.71,8.61,8.61,0,0,1-4.14.93A8.71,8.71,0,0,1,170.16,424.53Zm7.59-3.24a5.31,5.31,0,0,0,1.22-3.73v-6.89a5.22,5.22,0,0,0-1.23-3.71,4.45,4.45,0,0,0-3.43-1.32A4.38,4.38,0,0,0,170.9,407a5.26,5.26,0,0,0-1.21,3.71v6.89a5.33,5.33,0,0,0,1.21,3.74,5.09,5.09,0,0,0,6.85,0Z"/><path class="cls-3" d="M97.9,446.42h18.35v2.84H97.9Zm7.63,1.88h3.07v28.94h-3.07Z"/><path class="cls-3" d="M119.8,476.54A6.72,6.72,0,0,1,117,473.6a10.12,10.12,0,0,1-1-4.63V463.9A11.56,11.56,0,0,1,117,459a6.84,6.84,0,0,1,2.71-3.07A8.12,8.12,0,0,1,124,454.9a8,8,0,0,1,4.13,1,6.46,6.46,0,0,1,2.62,3,11,11,0,0,1,.9,4.67v4H118v-2.82h10.66v-1.4a6.34,6.34,0,0,0-1.25-4.13,4.26,4.26,0,0,0-3.47-1.49,4.49,4.49,0,0,0-3.67,1.56,6.73,6.73,0,0,0-1.29,4.4v5.38a6,6,0,0,0,1.37,4.18,5,5,0,0,0,3.86,1.48,4.52,4.52,0,0,0,2.74-.81,4.22,4.22,0,0,0,1.52-2.26l2.86.89a6.07,6.07,0,0,1-2.45,3.73,8,8,0,0,1-4.67,1.29A9.11,9.11,0,0,1,119.8,476.54Z"/><path class="cls-3" d="M139.84,476.64a6.11,6.11,0,0,1-2.73-2.73,9.67,9.67,0,0,1-.93-4.43v-6.42a9.74,9.74,0,0,1,.92-4.46,6.23,6.23,0,0,1,2.73-2.76,10.84,10.84,0,0,1,8-.32,6,6,0,0,1,2.49,1.87,6.43,6.43,0,0,1,1.24,2.95l-3,.89a4.63,4.63,0,0,0-1.49-2.6,4.21,4.21,0,0,0-2.81-.92,5,5,0,0,0-3.79,1.37,5.55,5.55,0,0,0-1.3,4v6.42a5.38,5.38,0,0,0,1.3,3.89,5.06,5.06,0,0,0,3.79,1.34,4.61,4.61,0,0,0,2.9-.86,4.49,4.49,0,0,0,1.57-2.46l2.84.89a6.87,6.87,0,0,1-1.27,2.89,5.66,5.66,0,0,1-2.49,1.79,10.07,10.07,0,0,1-3.62.59A9.66,9.66,0,0,1,139.84,476.64Z"/><path class="cls-3" d="M155.7,446.42h3.05v30.82H155.7Zm12.5,16.38A5.27,5.27,0,0,0,167,459a4.66,4.66,0,0,0-3.54-1.29A4.57,4.57,0,0,0,160,459a5.12,5.12,0,0,0-1.21,3.7l-.44-3.95a6.51,6.51,0,0,1,2.56-2.93,7.41,7.41,0,0,1,3.82-.95,6,6,0,0,1,4.89,2,9,9,0,0,1,1.68,5.89v14.44H168.2Z"/><rect class="cls-1" x="407" y="346.45" width="244.03" height="202.86"/><rect class="cls-8" x="426.2" y="323.93" width="243.65" height="206.07"/><path class="cls-3" d="M493.1,417.33h3.69L506,448.14h-3.39l-7.7-27.51-7.69,27.51h-3.39Zm-4.64,20.49h13.35v2.84H488.46Z"/><path class="cls-3" d="M509.63,426.14h3v22h-3Zm12.51,7.55a5.23,5.23,0,0,0-1.23-3.75,4.67,4.67,0,0,0-3.54-1.3,4.6,4.6,0,0,0-3.48,1.27,5.12,5.12,0,0,0-1.21,3.67l-.44-3.68a6.69,6.69,0,0,1,2.57-3.12,7.17,7.17,0,0,1,3.81-1,6,6,0,0,1,4.89,2,9,9,0,0,1,1.68,5.89v14.43h-3.05Z"/><path class="cls-3" d="M531.33,417.94h3.08v3h-3.08Zm0,8.2h3.08v22h-3.08Z"/><path class="cls-3" d="M540.55,426.14h3.06v22h-3.06Zm11.75,7.55a5.87,5.87,0,0,0-1.06-3.76,3.8,3.8,0,0,0-3.12-1.31,4.28,4.28,0,0,0-3.36,1.29,5.36,5.36,0,0,0-1.15,3.72l-.45-3.71a6.85,6.85,0,0,1,2.47-3.14,6.62,6.62,0,0,1,3.66-1,5.88,5.88,0,0,1,3.31.91,5.55,5.55,0,0,1,2.07,2.68,11.63,11.63,0,0,1,.7,4.32v14.45H552.3Zm11.78,0a5.49,5.49,0,0,0-1.15-3.76,4.25,4.25,0,0,0-3.36-1.31,3.76,3.76,0,0,0-3.12,1.35,6.07,6.07,0,0,0-1.08,3.87l-1.08-3a7.81,7.81,0,0,1,2.42-3.78,5.86,5.86,0,0,1,3.81-1.31,6.89,6.89,0,0,1,3.64.9,5.57,5.57,0,0,1,2.22,2.69,11.14,11.14,0,0,1,.75,4.34v14.43h-3Z"/><path class="cls-3" d="M573.83,446.81a6.29,6.29,0,0,1-1.78-4.83,7,7,0,0,1,1.81-5.19,7.27,7.27,0,0,1,5.29-1.77h5.64l.3,2.53h-5.92a4.13,4.13,0,0,0-3.13,1.12A4.6,4.6,0,0,0,575,442a3.62,3.62,0,0,0,1.17,2.92,5.15,5.15,0,0,0,3.42,1,7,7,0,0,0,3.75-.83,2.7,2.7,0,0,0,1.3-2.44L585,445a4.17,4.17,0,0,1-1.14,1.91,5.09,5.09,0,0,1-2,1.17,9.53,9.53,0,0,1-2.87.39A7.33,7.33,0,0,1,573.83,446.81ZM584.6,433.1a4.23,4.23,0,0,0-4.64-4.65,5.15,5.15,0,0,0-2.79.75,4.38,4.38,0,0,0-1.77,2.09l-2.59-.78a6.13,6.13,0,0,1,2.5-3.48,8.12,8.12,0,0,1,4.63-1.25,9.09,9.09,0,0,1,4.1.86,5.9,5.9,0,0,1,2.59,2.47,7.86,7.86,0,0,1,.89,3.9v15.13H584.6Z"/><path class="cls-3" d="M591.45,426.14h9.7v2.74h-9.7Zm3.5,20.64a6.67,6.67,0,0,1-1.24-4.36V419.74h3.06v22.72a3.36,3.36,0,0,0,.63,2.19,2.32,2.32,0,0,0,1.89.76h1.86v2.84h-2.29A4.84,4.84,0,0,1,595,446.78Z"/><path class="cls-3" d="M609.15,447.45a6.72,6.72,0,0,1-2.79-2.94,10.12,10.12,0,0,1-1-4.63v-5.07a11.56,11.56,0,0,1,.93-4.87,6.87,6.87,0,0,1,2.71-3.08,8.22,8.22,0,0,1,4.27-1.06,8,8,0,0,1,4.13,1,6.41,6.41,0,0,1,2.62,2.95,11,11,0,0,1,.9,4.67v4H607.36v-2.82H618v-1.4a6.4,6.4,0,0,0-1.26-4.13,4.25,4.25,0,0,0-3.47-1.49,4.5,4.5,0,0,0-3.67,1.56,6.73,6.73,0,0,0-1.29,4.4V440a5.9,5.9,0,0,0,1.38,4.18,5,5,0,0,0,3.85,1.48,4.52,4.52,0,0,0,2.74-.81,4.22,4.22,0,0,0,1.52-2.26l2.87.89a6.15,6.15,0,0,1-2.46,3.73,8,8,0,0,1-4.67,1.29A9.11,9.11,0,0,1,609.15,447.45Z"/><rect class="cls-1" x="1219.01" y="346.45" width="244.03" height="202.86"/><rect class="cls-9" x="1238.21" y="323.93" width="243.65" height="206.07"/><path class="cls-3" d="M1321.34,419.3a7.86,7.86,0,0,1-3.1-3.35,11.56,11.56,0,0,1-1.08-5.17V398.72a11.65,11.65,0,0,1,1.08-5.19,7.83,7.83,0,0,1,3.1-3.36,9.42,9.42,0,0,1,4.77-1.16,9.12,9.12,0,0,1,4.49,1.06,7.64,7.64,0,0,1,3.06,3.06,11,11,0,0,1,1.33,4.74h-3a8,8,0,0,0-1-3.19,5.39,5.39,0,0,0-4.85-2.79,5.79,5.79,0,0,0-3.14.83,5.41,5.41,0,0,0-2,2.36,8.53,8.53,0,0,0-.72,3.64v12.06a8.49,8.49,0,0,0,.72,3.63,5.27,5.27,0,0,0,2,2.35,5.79,5.79,0,0,0,3.14.82,5.64,5.64,0,0,0,2.83-.71,5.48,5.48,0,0,0,2-2.06,7.92,7.92,0,0,0,1-3.21h3a10.91,10.91,0,0,1-1.34,4.74,7.79,7.79,0,0,1-3.07,3.06,9.12,9.12,0,0,1-4.47,1.06A9.42,9.42,0,0,1,1321.34,419.3Z"/><path class="cls-3" d="M1338,398.14h3.13l6.15,19.59-1.36,4Zm17.25,0-8.31,27.15a6.2,6.2,0,0,1-1.26,2.32,4.79,4.79,0,0,1-2.07,1.3,9.87,9.87,0,0,1-3,.41H1340v-2.88h.53a4.21,4.21,0,0,0,2.75-.81,5.56,5.56,0,0,0,1.58-2.62l7.2-24.87Z"/><path class="cls-3" d="M1358.5,389.33h3v30.81h-3Zm5,30.18a5.09,5.09,0,0,1-2.23-2.82l.3-4a6.08,6.08,0,0,0,.54,2.6,4.26,4.26,0,0,0,1.59,1.84,4.49,4.49,0,0,0,2.45.66,4.34,4.34,0,0,0,3.47-1.42,5.87,5.87,0,0,0,1.23-4v-6.61a5.92,5.92,0,0,0-1.23-4,4.34,4.34,0,0,0-3.47-1.42,4.49,4.49,0,0,0-2.45.66,4.21,4.21,0,0,0-1.59,1.8,5.87,5.87,0,0,0-.54,2.54l-.45-3.6a6.63,6.63,0,0,1,2.59-3,7.17,7.17,0,0,1,3.81-1,6.1,6.1,0,0,1,3.43,1,5.91,5.91,0,0,1,2.17,2.73,11.48,11.48,0,0,1,.74,4.36v6.61a11.06,11.06,0,0,1-.77,4.33,6,6,0,0,1-2.25,2.76,6.39,6.39,0,0,1-3.53.94A7.33,7.33,0,0,1,1363.48,419.51Z"/><path class="cls-3" d="M1382.27,419.45a6.69,6.69,0,0,1-2.8-2.94,10.25,10.25,0,0,1-1-4.63v-5.07a11.4,11.4,0,0,1,.94-4.87,6.79,6.79,0,0,1,2.7-3.08,8.22,8.22,0,0,1,4.27-1.06,8,8,0,0,1,4.13,1,6.41,6.41,0,0,1,2.62,2.95,11,11,0,0,1,.9,4.67v4h-13.59v-2.82h10.67v-1.4a6.4,6.4,0,0,0-1.25-4.13,4.27,4.27,0,0,0-3.48-1.49,4.5,4.5,0,0,0-3.67,1.56,6.73,6.73,0,0,0-1.29,4.4V412a5.9,5.9,0,0,0,1.38,4.18,5,5,0,0,0,3.86,1.48,4.51,4.51,0,0,0,2.73-.81,4.29,4.29,0,0,0,1.53-2.26l2.86.89a6.15,6.15,0,0,1-2.46,3.73,8,8,0,0,1-4.66,1.29A9.05,9.05,0,0,1,1382.27,419.45Z"/><path class="cls-3" d="M1399.17,398.14h3v22h-3Zm10.61,2.66a3.86,3.86,0,0,0-1.22-.18,6.65,6.65,0,0,0-4.59,1.48,5.46,5.46,0,0,0-1.75,4.12l-.44-4.24a8.57,8.57,0,0,1,7.46-4.2,3.9,3.9,0,0,1,1.35.23,2.84,2.84,0,0,1,1.06.64l-1,2.69A2.26,2.26,0,0,0,1409.78,400.8Z"/><path class="cls-3" d="M1301,471.91a7.47,7.47,0,0,1-3.16-2.06,8.19,8.19,0,0,1-1.84-3.61l2.91-1.08a5.62,5.62,0,0,0,2.31,3.47,7.44,7.44,0,0,0,4.13,1.08,7.23,7.23,0,0,0,4.7-1.33,4.73,4.73,0,0,0,1.64-3.88v-.89a4.28,4.28,0,0,0-.81-2.69,5.51,5.51,0,0,0-2.06-1.66,29.59,29.59,0,0,0-3.26-1.25l-.09-.05-.12,0-.57-.15a33.58,33.58,0,0,1-4.22-1.6,7.1,7.1,0,0,1-2.7-2.26,6.52,6.52,0,0,1-1.09-4v-.77a8.63,8.63,0,0,1,1-4.42A6.77,6.77,0,0,1,1301,442a12.07,12.07,0,0,1,5-.93,11.15,11.15,0,0,1,4,.63,6.39,6.39,0,0,1,2.71,2,9.78,9.78,0,0,1,1.68,3.44l-2.86,1a6.18,6.18,0,0,0-2-3.21,5.57,5.57,0,0,0-3.48-1,7.1,7.1,0,0,0-4.6,1.31,4.65,4.65,0,0,0-1.59,3.8v.76a3.85,3.85,0,0,0,.9,2.65,6.17,6.17,0,0,0,2.24,1.59,34.79,34.79,0,0,0,3.6,1.25.76.76,0,0,1,.18.06l.14.07a.53.53,0,0,1,.21.06.6.6,0,0,0,.19.06,22.9,22.9,0,0,1,3.87,1.57,7.36,7.36,0,0,1,2.6,2.4,7,7,0,0,1,1,4v1a8.64,8.64,0,0,1-1.07,4.44,6.64,6.64,0,0,1-3.17,2.72,12.83,12.83,0,0,1-5.13.91A13.46,13.46,0,0,1,1301,471.91Z"/><path class="cls-3" d="M1322.94,471.54a6.75,6.75,0,0,1-2.8-2.94,10.25,10.25,0,0,1-1-4.63V458.9a11.56,11.56,0,0,1,.93-4.87,6.76,6.76,0,0,1,2.7-3.07,9.1,9.1,0,0,1,8.41-.06,6.44,6.44,0,0,1,2.61,3,11,11,0,0,1,.9,4.67v4h-13.58v-2.82h10.66v-1.4a6.34,6.34,0,0,0-1.25-4.13,4.27,4.27,0,0,0-3.48-1.49,4.48,4.48,0,0,0-3.66,1.56,6.67,6.67,0,0,0-1.3,4.4v5.38a5.9,5.9,0,0,0,1.38,4.18,5,5,0,0,0,3.86,1.48,4.46,4.46,0,0,0,2.73-.81,4.18,4.18,0,0,0,1.53-2.26l2.86.89a6.08,6.08,0,0,1-2.46,3.73,8,8,0,0,1-4.66,1.29A9.05,9.05,0,0,1,1322.94,471.54Z"/><path class="cls-3" d="M1343,471.64a6.11,6.11,0,0,1-2.73-2.73,9.54,9.54,0,0,1-.94-4.43v-6.42a9.74,9.74,0,0,1,.93-4.46,6.18,6.18,0,0,1,2.73-2.76,10.82,10.82,0,0,1,8-.32,5.92,5.92,0,0,1,2.49,1.87,6.23,6.23,0,0,1,1.24,2.95l-3,.89a4.68,4.68,0,0,0-1.49-2.6,4.22,4.22,0,0,0-2.82-.92,5,5,0,0,0-3.78,1.37,5.55,5.55,0,0,0-1.3,4v6.42a5.38,5.38,0,0,0,1.3,3.89,5.05,5.05,0,0,0,3.78,1.34,4.62,4.62,0,0,0,2.91-.86,4.42,4.42,0,0,0,1.56-2.46l2.84.89a6.63,6.63,0,0,1-1.27,2.89A5.6,5.6,0,0,1,1351,472a10,10,0,0,1-3.61.59A9.66,9.66,0,0,1,1343,471.64Z"/><path class="cls-3" d="M1361.36,465a4.8,4.8,0,0,0,1.19,3.46,4.54,4.54,0,0,0,3.43,1.24,4.67,4.67,0,0,0,3.4-1.15,4.5,4.5,0,0,0,1.18-3.34l.29,3.71a5.65,5.65,0,0,1-2.26,2.66,7,7,0,0,1-3.8,1,6,6,0,0,1-4.79-2,8.33,8.33,0,0,1-1.7-5.58V450.23h3.06Zm9.2-14.78h3v22h-3Z"/><path class="cls-3" d="M1379.2,450.23h3.06v22h-3.06Zm10.61,2.66a3.82,3.82,0,0,0-1.22-.18,6.7,6.7,0,0,0-4.59,1.48,5.42,5.42,0,0,0-1.74,4.12l-.45-4.24a8.62,8.62,0,0,1,7.46-4.2,3.92,3.92,0,0,1,1.36.23,3.07,3.07,0,0,1,1.06.64l-1,2.69A2.26,2.26,0,0,0,1389.81,452.89Z"/><path class="cls-3" d="M1395.78,442h3.07v3h-3.07Zm0,8.2h3.07v22h-3.07Z"/><path class="cls-3" d="M1403.3,450.23H1413V453h-9.71Zm3.51,20.64a6.61,6.61,0,0,1-1.24-4.36V443.83h3v22.72a3.36,3.36,0,0,0,.64,2.19,2.3,2.3,0,0,0,1.89.76H1413v2.84h-2.29A4.84,4.84,0,0,1,1406.81,470.87Z"/><path class="cls-3" d="M1415.87,450.23H1419l6.15,19.59-1.36,4Zm17.26,0-8.31,27.16a6.23,6.23,0,0,1-1.26,2.31,4.92,4.92,0,0,1-2.07,1.3,9.61,9.61,0,0,1-3,.41h-.53v-2.88h.53a4.18,4.18,0,0,0,2.74-.81,5.41,5.41,0,0,0,1.58-2.62l7.21-24.87Z"/></g></g></svg>