<svg xmlns="http://www.w3.org/2000/svg" viewBox="0 0 382.36 23.25"><defs><style>.cls-1{fill:#17e3e3;}</style></defs><g id="Layer_2" data-name="Layer 2"><g id="Layer_1-2" data-name="Layer 1"><path class="cls-1" d="M14.33,12.3v2.62a8.76,8.76,0,0,1-.69,3.7,4.68,4.68,0,0,1-2.07,2.21,7.41,7.41,0,0,1-3.45.73,7.74,7.74,0,0,1-3.5-.7,4.53,4.53,0,0,1-2.09-2.08,7.6,7.6,0,0,1-.7-3.47V10.07a8.68,8.68,0,0,1,.69-3.69A4.68,4.68,0,0,1,4.59,4.17,7.41,7.41,0,0,1,8,3.44,6.93,6.93,0,0,1,11,4a5,5,0,0,1,2,1.75,7.69,7.69,0,0,1,1.13,2.94h-1.9a6.34,6.34,0,0,0-.88-2A3.63,3.63,0,0,0,10,5.48a4.41,4.41,0,0,0-2-.4,5,5,0,0,0-2.47.55A3.5,3.5,0,0,0,4.08,7.29a6.85,6.85,0,0,0-.49,2.78v5.24a5.88,5.88,0,0,0,.5,2.57A3.29,3.29,0,0,0,5.6,19.41a5.54,5.54,0,0,0,2.52.51,5,5,0,0,0,2.43-.52A3.3,3.3,0,0,0,12,17.77,7.06,7.06,0,0,0,12.48,15v-1H8.18V12.3Z" transform="translate(-1.83 -3.41)"/><path class="cls-1" d="M19.87,16.41A3.62,3.62,0,0,0,20.74,19a3.23,3.23,0,0,0,2.45.92,3.36,3.36,0,0,0,2.44-.84,3.2,3.2,0,0,0,.86-2.38l.17,2.65a3.83,3.83,0,0,1-1.53,1.57,5,5,0,0,1-2.63.64,4,4,0,0,1-3.24-1.35,5.73,5.73,0,0,1-1.14-3.8V8.7h1.75ZM26.49,8.7h1.74V21.37H26.49Z" transform="translate(-1.83 -3.41)"/><path class="cls-1" d="M32,8.7h1.76V21.37H32Zm6.47,1.66a4.08,4.08,0,0,0-1.37-.2,3.4,3.4,0,0,0-2.46.84,3.11,3.11,0,0,0-.88,2.35l-.26-2.44a5,5,0,0,1,1.82-1.76,5,5,0,0,1,2.48-.63,4.62,4.62,0,0,1,1.57.25,3.54,3.54,0,0,1,1.22.74L39.48,11A2.6,2.6,0,0,0,38.49,10.36Z" transform="translate(-1.83 -3.41)"/><path class="cls-1" d="M44.45,16.41A3.66,3.66,0,0,0,45.31,19a3.24,3.24,0,0,0,2.46.92,3.32,3.32,0,0,0,2.43-.84,3.16,3.16,0,0,0,.86-2.38l.17,2.65a3.83,3.83,0,0,1-1.53,1.57,5,5,0,0,1-2.63.64,4,4,0,0,1-3.24-1.35,5.73,5.73,0,0,1-1.14-3.8V8.7h1.76ZM51.06,8.7h1.75V21.37H51.06Z" transform="translate(-1.83 -3.41)"/><path class="cls-1" d="M58.24,21a3.75,3.75,0,0,1-1.5-1.75,6.73,6.73,0,0,1-.51-2.76V13.68a6.89,6.89,0,0,1,.5-2.79,3.88,3.88,0,0,1,1.45-1.77,4.27,4.27,0,0,1,2.31-.6A5.68,5.68,0,0,1,63,9.06a4.07,4.07,0,0,1,1.75,1.78l-.25,2.44a3.32,3.32,0,0,0-.39-1.57A3.07,3.07,0,0,0,63,10.5,3.18,3.18,0,0,0,61.3,10a3.14,3.14,0,0,0-2.45,1A3.89,3.89,0,0,0,58,13.7v2.74a3.79,3.79,0,0,0,.87,2.66A3.17,3.17,0,0,0,61.3,20,3.11,3.11,0,0,0,63,19.57a3.2,3.2,0,0,0,1.13-1.24,3.46,3.46,0,0,0,.39-1.59l.17,2.64a3.05,3.05,0,0,1-1.52,1.67,5.8,5.8,0,0,1-2.57.51A4.4,4.4,0,0,1,58.24,21Zm0,5a4.13,4.13,0,0,1-1.75-1.49l1.2-1.08a3.93,3.93,0,0,0,1.38,1.16A4.06,4.06,0,0,0,63.55,24a3.73,3.73,0,0,0,1-2.76V8.7h1.75V21a6.44,6.44,0,0,1-.64,3,4.25,4.25,0,0,1-1.86,1.89,6.2,6.2,0,0,1-2.94.65A5.83,5.83,0,0,1,58.28,26Z" transform="translate(-1.83 -3.41)"/><path class="cls-1" d="M70.07,8.7h1.76V21.37H70.07Zm6.47,1.66a4.08,4.08,0,0,0-1.37-.2,3.4,3.4,0,0,0-2.46.84,3.11,3.11,0,0,0-.88,2.35l-.26-2.44a5,5,0,0,1,1.82-1.76,5,5,0,0,1,2.48-.63,4.62,4.62,0,0,1,1.57.25,3.54,3.54,0,0,1,1.22.74L77.53,11A2.6,2.6,0,0,0,76.54,10.36Z" transform="translate(-1.83 -3.41)"/><path class="cls-1" d="M81.35,20.53a3.55,3.55,0,0,1-1.22-2.89,3.52,3.52,0,0,1,1.11-2.78,4.67,4.67,0,0,1,3.16-1h4.21l.17,1.63H84.41a2.85,2.85,0,0,0-1.88.56,1.91,1.91,0,0,0-.67,1.57,1.91,1.91,0,0,0,.84,1.66,4,4,0,0,0,2.36.6,7.69,7.69,0,0,0,2.54-.33q.9-.33.9-.93l.26,1.66a3.56,3.56,0,0,1-1,.68,5.71,5.71,0,0,1-1.36.43,8.47,8.47,0,0,1-1.64.15A5.16,5.16,0,0,1,81.35,20.53Zm7.15-7.19A3.26,3.26,0,0,0,87.68,11a3.1,3.1,0,0,0-2.34-.85,5.38,5.38,0,0,0-1.77.29,4.87,4.87,0,0,0-1.54.83l-1.28-.88A4.69,4.69,0,0,1,82.65,9a6.87,6.87,0,0,1,2.62-.48A6,6,0,0,1,88,9.08a3.81,3.81,0,0,1,1.71,1.61,5.16,5.16,0,0,1,.59,2.54v8.14H88.5Z" transform="translate(-1.83 -3.41)"/><path class="cls-1" d="M94,8.7H95.8V21.37H94Zm7.94,5a3.91,3.91,0,0,0-.8-2.62,2.84,2.84,0,0,0-2.28-.92,3,3,0,0,0-2.29.83,3.27,3.27,0,0,0-.81,2.36l-.26-2.44a4.16,4.16,0,0,1,1.67-1.83,4.94,4.94,0,0,1,2.39-.56,4.07,4.07,0,0,1,2.24.6,3.8,3.8,0,0,1,1.41,1.77,7.25,7.25,0,0,1,.49,2.79v7.69H102Zm7.93,0a3.91,3.91,0,0,0-.8-2.62,2.85,2.85,0,0,0-2.27-.92,2.92,2.92,0,0,0-2.29.9,3.67,3.67,0,0,0-.81,2.54L103,11.77a5.36,5.36,0,0,1,1.7-2.41,4.12,4.12,0,0,1,2.61-.84,4.43,4.43,0,0,1,2.36.6,3.85,3.85,0,0,1,1.5,1.77,6.88,6.88,0,0,1,.51,2.79v7.69h-1.76Z" transform="translate(-1.83 -3.41)"/><path class="cls-1" d="M115.33,19.37h2v3.1l-2,2.22Z" transform="translate(-1.83 -3.41)"/><path class="cls-1" d="M128.08,3.63h1.75V21.37h-1.75Zm1.18,8.12h10.58v1.7H129.26Zm9.63-8.12h1.76V21.37h-1.76Z" transform="translate(-1.83 -3.41)"/><path class="cls-1" d="M145.41,20.53a3.58,3.58,0,0,1-1.22-2.89,3.5,3.5,0,0,1,1.12-2.78,4.62,4.62,0,0,1,3.15-1h4.21l.17,1.63h-4.37a2.85,2.85,0,0,0-1.88.56,1.91,1.91,0,0,0-.67,1.57,1.91,1.91,0,0,0,.84,1.66,4,4,0,0,0,2.36.6,7.69,7.69,0,0,0,2.54-.33q.9-.33.9-.93l.26,1.66a3.42,3.42,0,0,1-1,.68,5.71,5.71,0,0,1-1.36.43,8.4,8.4,0,0,1-1.64.15A5.16,5.16,0,0,1,145.41,20.53Zm7.15-7.19a3.26,3.26,0,0,0-.82-2.38,3.1,3.1,0,0,0-2.34-.85,5.38,5.38,0,0,0-1.77.29,4.87,4.87,0,0,0-1.54.83l-1.28-.88A4.69,4.69,0,0,1,146.71,9a6.91,6.91,0,0,1,2.62-.48,6,6,0,0,1,2.7.56,3.86,3.86,0,0,1,1.71,1.61,5.15,5.15,0,0,1,.58,2.54v8.14h-1.76Z" transform="translate(-1.83 -3.41)"/><path class="cls-1" d="M158.11,8.7h1.75V21.37h-1.75Zm6.47,1.66a4.08,4.08,0,0,0-1.37-.2,3.44,3.44,0,0,0-2.47.84,3.14,3.14,0,0,0-.88,2.35l-.25-2.44a5,5,0,0,1,4.29-2.39,4.58,4.58,0,0,1,1.57.25,3.49,3.49,0,0,1,1.23.74L165.56,11A2.56,2.56,0,0,0,164.58,10.36Z" transform="translate(-1.83 -3.41)"/><path class="cls-1" d="M167.43,8.7h1.81l4.16,11.76-.91,1.95Zm11.22,0-5.4,15.64a3.64,3.64,0,0,1-.76,1.37,2.71,2.71,0,0,1-1.18.73,5.59,5.59,0,0,1-1.71.22h-.5V25h.5a2.47,2.47,0,0,0,1.56-.45,3.36,3.36,0,0,0,1-1.53L176.84,8.7Z" transform="translate(-1.83 -3.41)"/><path class="cls-1" d="M181.46,20.53a3.55,3.55,0,0,1-1.22-2.89,3.52,3.52,0,0,1,1.11-2.78,4.67,4.67,0,0,1,3.16-1h4.21l.17,1.63h-4.37a2.9,2.9,0,0,0-1.89.56,1.93,1.93,0,0,0-.66,1.57,1.91,1.91,0,0,0,.84,1.66,4,4,0,0,0,2.36.6,7.73,7.73,0,0,0,2.54-.33q.9-.33.9-.93l.26,1.66a3.56,3.56,0,0,1-1,.68,5.71,5.71,0,0,1-1.36.43,8.47,8.47,0,0,1-1.64.15A5.16,5.16,0,0,1,181.46,20.53Zm7.15-7.19a3.26,3.26,0,0,0-.82-2.38,3.1,3.1,0,0,0-2.34-.85,5.38,5.38,0,0,0-1.77.29,4.87,4.87,0,0,0-1.54.83l-1.28-.88A4.69,4.69,0,0,1,182.76,9a6.87,6.87,0,0,1,2.62-.48,6,6,0,0,1,2.69.56,3.81,3.81,0,0,1,1.71,1.61,5.16,5.16,0,0,1,.59,2.54v8.14h-1.76Z" transform="translate(-1.83 -3.41)"/><path class="cls-1" d="M194.15,8.7h1.76V21.37h-1.76Zm8.43,5a3.65,3.65,0,0,0-.89-2.62,3.28,3.28,0,0,0-2.5-.92,3.36,3.36,0,0,0-2.42.82,3.1,3.1,0,0,0-.86,2.34l-.25-2.44a4.08,4.08,0,0,1,1.78-1.8A5.69,5.69,0,0,1,200,8.52a4,4,0,0,1,3.2,1.35,5.79,5.79,0,0,1,1.12,3.81v7.69h-1.75Z" transform="translate(-1.83 -3.41)"/><path class="cls-1" d="M208.73,20.53a3.58,3.58,0,0,1-1.22-2.89,3.5,3.5,0,0,1,1.12-2.78,4.62,4.62,0,0,1,3.15-1H216l.17,1.63h-4.37a2.85,2.85,0,0,0-1.88.56,1.91,1.91,0,0,0-.67,1.57,1.91,1.91,0,0,0,.84,1.66,4,4,0,0,0,2.36.6,7.69,7.69,0,0,0,2.54-.33q.9-.33.9-.93l.26,1.66a3.42,3.42,0,0,1-1,.68,5.71,5.71,0,0,1-1.36.43,8.47,8.47,0,0,1-1.64.15A5.16,5.16,0,0,1,208.73,20.53Zm7.15-7.19a3.26,3.26,0,0,0-.82-2.38,3.1,3.1,0,0,0-2.34-.85,5.38,5.38,0,0,0-1.77.29,4.87,4.87,0,0,0-1.54.83l-1.28-.88A4.69,4.69,0,0,1,210,9a6.87,6.87,0,0,1,2.62-.48,6,6,0,0,1,2.69.56,3.81,3.81,0,0,1,1.71,1.61,5.16,5.16,0,0,1,.59,2.54v8.14h-1.76Z" transform="translate(-1.83 -3.41)"/><path class="cls-1" d="M221.3,19.37h2v3.1l-2,2.22Z" transform="translate(-1.83 -3.41)"/><path class="cls-1" d="M236.17,21.37h-1.76V3.63h1.76Z" transform="translate(-1.83 -3.41)"/><path class="cls-1" d="M240.69,8.7h1.75V21.37h-1.75Zm8.42,5a3.65,3.65,0,0,0-.89-2.62,3.27,3.27,0,0,0-2.49-.92,3.39,3.39,0,0,0-2.43.82,3.1,3.1,0,0,0-.86,2.34l-.25-2.44A4.13,4.13,0,0,1,244,9.08a5.7,5.7,0,0,1,2.58-.56,3.93,3.93,0,0,1,3.19,1.35,5.79,5.79,0,0,1,1.13,3.81v7.69h-1.76Z" transform="translate(-1.83 -3.41)"/><path class="cls-1" d="M256.3,21a3.75,3.75,0,0,1-1.5-1.75,6.73,6.73,0,0,1-.51-2.76V13.68a6.89,6.89,0,0,1,.5-2.79,3.88,3.88,0,0,1,1.45-1.77,4.27,4.27,0,0,1,2.31-.6,5.68,5.68,0,0,1,2.54.54,4.07,4.07,0,0,1,1.75,1.78l-.25,2.44a3.32,3.32,0,0,0-.39-1.57,3,3,0,0,0-1.12-1.21,3.51,3.51,0,0,0-4.17.49A3.89,3.89,0,0,0,256,13.7v2.74a3.79,3.79,0,0,0,.87,2.66,3.17,3.17,0,0,0,2.45.94,3.13,3.13,0,0,0,1.71-.47,3.28,3.28,0,0,0,1.13-1.24,3.46,3.46,0,0,0,.39-1.59l.17,2.64a3.09,3.09,0,0,1-1.52,1.67,5.8,5.8,0,0,1-2.57.51A4.4,4.4,0,0,1,256.3,21Zm6.29-17.32h1.75V21.37h-1.75Z" transform="translate(-1.83 -3.41)"/><path class="cls-1" d="M268.49,3.63h1.76V5.38h-1.76Zm0,5.07h1.76V21.37h-1.76Z" transform="translate(-1.83 -3.41)"/><path class="cls-1" d="M275,20.53a3.58,3.58,0,0,1-1.22-2.89,3.5,3.5,0,0,1,1.12-2.78,4.62,4.62,0,0,1,3.15-1h4.21l.18,1.63h-4.37a2.86,2.86,0,0,0-1.89.56,1.94,1.94,0,0,0-.67,1.57,1.91,1.91,0,0,0,.84,1.66,4,4,0,0,0,2.36.6,7.69,7.69,0,0,0,2.54-.33c.6-.22.91-.53.91-.93l.25,1.66a3.28,3.28,0,0,1-1,.68,5.63,5.63,0,0,1-1.35.43,8.58,8.58,0,0,1-1.65.15A5.18,5.18,0,0,1,275,20.53Zm7.16-7.19a3.27,3.27,0,0,0-.83-2.38,3.1,3.1,0,0,0-2.34-.85,5.38,5.38,0,0,0-1.77.29,4.82,4.82,0,0,0-1.53.83l-1.29-.88A4.76,4.76,0,0,1,276.31,9a6.91,6.91,0,0,1,2.62-.48,6,6,0,0,1,2.7.56,3.81,3.81,0,0,1,1.71,1.61,5.15,5.15,0,0,1,.58,2.54v8.14h-1.75Z" transform="translate(-1.83 -3.41)"/><path class="cls-1" d="M302.62,14.2v1.63h-8.2V14.2Z" transform="translate(-1.83 -3.41)"/><path class="cls-1" d="M317.28,21.37h-1.75V5.11l-3.26,2V5.31l2.52-1.68h2.49Z" transform="translate(-1.83 -3.41)"/><path class="cls-1" d="M321,20l6.68-8.74a8,8,0,0,0,1-1.68,3.74,3.74,0,0,0,.36-1.46V8a2.87,2.87,0,0,0-.82-2.19,3.23,3.23,0,0,0-2.3-.77,3.11,3.11,0,0,0-2.26.83,3.84,3.84,0,0,0-1.05,2.35v0h-1.84v0a6.56,6.56,0,0,1,.89-2.6A4.61,4.61,0,0,1,323.47,4,5.24,5.24,0,0,1,326,3.44a6.06,6.06,0,0,1,2.71.55,3.75,3.75,0,0,1,1.71,1.58,5,5,0,0,1,.59,2.5h0a4.68,4.68,0,0,1-.49,1.91,11.43,11.43,0,0,1-1.34,2.19l-5.88,7.56h7.8v1.63H321Z" transform="translate(-1.83 -3.41)"/><path class="cls-1" d="M334,20l6.68-8.74a8,8,0,0,0,1-1.68A3.74,3.74,0,0,0,342,8.07V8a2.9,2.9,0,0,0-.82-2.19,3.27,3.27,0,0,0-2.31-.77,3.07,3.07,0,0,0-2.25.83,3.85,3.85,0,0,0-1.06,2.35v0h-1.84v0a6.73,6.73,0,0,1,.9-2.6A4.54,4.54,0,0,1,336.39,4a5.22,5.22,0,0,1,2.48-.57,6.09,6.09,0,0,1,2.71.55,3.75,3.75,0,0,1,1.71,1.58,5,5,0,0,1,.58,2.5h0a4.82,4.82,0,0,1-.48,1.91A11,11,0,0,1,342,12.18l-5.87,7.56H344v1.63H334Z" transform="translate(-1.83 -3.41)"/><path class="cls-1" d="M348.43,20.23a5.12,5.12,0,0,1-1.29-3.71V8.45a5.1,5.1,0,0,1,1.3-3.72,6.08,6.08,0,0,1,7.55,0,5.11,5.11,0,0,1,1.29,3.73v8.07a5.09,5.09,0,0,1-1.3,3.71,6,6,0,0,1-7.55,0ZM354.71,19a3.6,3.6,0,0,0,.81-2.52V8.45a3.61,3.61,0,0,0-.81-2.53,4,4,0,0,0-5,0,3.61,3.61,0,0,0-.81,2.53v8.07a3.6,3.6,0,0,0,.81,2.52,4,4,0,0,0,5,0Z" transform="translate(-1.83 -3.41)"/><path class="cls-1" d="M361.74,20.23a5.12,5.12,0,0,1-1.29-3.71V8.45a5.1,5.1,0,0,1,1.29-3.72,6.08,6.08,0,0,1,7.55,0,5.11,5.11,0,0,1,1.29,3.73v8.07a5.09,5.09,0,0,1-1.29,3.71,6,6,0,0,1-7.55,0ZM368,19a3.65,3.65,0,0,0,.8-2.52V8.45a3.66,3.66,0,0,0-.8-2.53,4,4,0,0,0-5,0,3.66,3.66,0,0,0-.8,2.53v8.07A3.65,3.65,0,0,0,363,19a4,4,0,0,0,5,0Z" transform="translate(-1.83 -3.41)"/><path class="cls-1" d="M376.81,21a4.33,4.33,0,0,1-1.69-1.52,6.07,6.07,0,0,1-.88-2.41H376a3.14,3.14,0,0,0,1,2.07,3.28,3.28,0,0,0,2.2.73,3.24,3.24,0,0,0,2.39-.86,3.36,3.36,0,0,0,.84-2.44V14a3.4,3.4,0,0,0-.72-2.33,2.54,2.54,0,0,0-2-.83,3.6,3.6,0,0,0-1.93.54A5.34,5.34,0,0,0,376.17,13h-1.54V3.63h9.05V5.26h-7.29v5.33a5.21,5.21,0,0,1,1.52-1,4.44,4.44,0,0,1,1.79-.36,4.91,4.91,0,0,1,2.43.57,3.73,3.73,0,0,1,1.54,1.65,5.91,5.91,0,0,1,.52,2.6V16.6a5.7,5.7,0,0,1-.58,2.68A4,4,0,0,1,381.9,21a5.91,5.91,0,0,1-2.7.58A5.25,5.25,0,0,1,376.81,21Z" transform="translate(-1.83 -3.41)"/></g></g></svg>