<svg xmlns="http://www.w3.org/2000/svg" viewBox="0 0 441 119.11"><defs><style>.cls-1{isolation:isolate;}.cls-2{opacity:0.57;mix-blend-mode:screen;}.cls-3{fill:#17e3e3;}</style></defs><g class="cls-1"><g id="Layer_2" data-name="Layer 2"><g id="Layer_1-2" data-name="Layer 1"><g class="cls-2"><path class="cls-3" d="M3.36,6.61a3.34,3.34,0,0,0,3.36-3.3A3.34,3.34,0,0,0,3.36,0,3.33,3.33,0,0,0,0,3.31,3.33,3.33,0,0,0,3.36,6.61Z"/><path class="cls-3" d="M26.22,6.61a3.34,3.34,0,0,0,3.36-3.3,3.36,3.36,0,0,0-6.72,0A3.33,3.33,0,0,0,26.22,6.61Z"/><path class="cls-3" d="M49.07,6.61a3.33,3.33,0,0,0,3.36-3.3,3.36,3.36,0,0,0-6.72,0A3.34,3.34,0,0,0,49.07,6.61Z"/><path class="cls-3" d="M71.93,6.61a3.33,3.33,0,0,0,3.36-3.3,3.36,3.36,0,0,0-6.72,0A3.34,3.34,0,0,0,71.93,6.61Z"/><path class="cls-3" d="M94.79,6.61a3.34,3.34,0,0,0,3.36-3.3,3.36,3.36,0,0,0-6.72,0A3.33,3.33,0,0,0,94.79,6.61Z"/><path class="cls-3" d="M117.64,6.61A3.33,3.33,0,0,0,121,3.31a3.36,3.36,0,0,0-6.71,0A3.33,3.33,0,0,0,117.64,6.61Z"/><path class="cls-3" d="M140.5,6.61a3.33,3.33,0,0,0,3.36-3.3,3.36,3.36,0,0,0-6.72,0A3.34,3.34,0,0,0,140.5,6.61Z"/><path class="cls-3" d="M163.36,6.61a3.34,3.34,0,0,0,3.36-3.3,3.36,3.36,0,0,0-6.72,0A3.33,3.33,0,0,0,163.36,6.61Z"/><path class="cls-3" d="M186.22,6.61a3.34,3.34,0,0,0,3.36-3.3,3.36,3.36,0,0,0-6.72,0A3.33,3.33,0,0,0,186.22,6.61Z"/><path class="cls-3" d="M209.07,6.61a3.33,3.33,0,0,0,3.36-3.3,3.36,3.36,0,0,0-6.72,0A3.34,3.34,0,0,0,209.07,6.61Z"/><path class="cls-3" d="M231.93,6.61a3.33,3.33,0,0,0,3.36-3.3,3.36,3.36,0,0,0-6.72,0A3.34,3.34,0,0,0,231.93,6.61Z"/><path class="cls-3" d="M254.79,6.61a3.34,3.34,0,0,0,3.36-3.3,3.36,3.36,0,0,0-6.72,0A3.33,3.33,0,0,0,254.79,6.61Z"/><path class="cls-3" d="M277.64,6.61A3.33,3.33,0,0,0,281,3.31a3.36,3.36,0,0,0-6.71,0A3.33,3.33,0,0,0,277.64,6.61Z"/><path class="cls-3" d="M300.5,6.61a3.33,3.33,0,0,0,3.36-3.3,3.36,3.36,0,0,0-6.72,0A3.34,3.34,0,0,0,300.5,6.61Z"/><path class="cls-3" d="M323.36,6.61a3.34,3.34,0,0,0,3.36-3.3,3.36,3.36,0,0,0-6.72,0A3.33,3.33,0,0,0,323.36,6.61Z"/><path class="cls-3" d="M346.22,6.61a3.34,3.34,0,0,0,3.36-3.3,3.36,3.36,0,0,0-6.72,0A3.33,3.33,0,0,0,346.22,6.61Z"/><path class="cls-3" d="M369.07,6.61a3.33,3.33,0,0,0,3.36-3.3,3.36,3.36,0,0,0-6.72,0A3.34,3.34,0,0,0,369.07,6.61Z"/><path class="cls-3" d="M391.93,6.61a3.33,3.33,0,0,0,3.36-3.3,3.36,3.36,0,0,0-6.72,0A3.34,3.34,0,0,0,391.93,6.61Z"/><path class="cls-3" d="M414.79,6.61a3.34,3.34,0,0,0,3.36-3.3,3.36,3.36,0,0,0-6.72,0A3.33,3.33,0,0,0,414.79,6.61Z"/><path class="cls-3" d="M437.64,6.61A3.33,3.33,0,0,0,441,3.31a3.36,3.36,0,0,0-6.71,0A3.33,3.33,0,0,0,437.64,6.61Z"/><path class="cls-3" d="M3.36,29.11a3.31,3.31,0,1,0,0-6.61,3.31,3.31,0,1,0,0,6.61Z"/><path class="cls-3" d="M26.22,29.11a3.31,3.31,0,1,0-3.36-3.3A3.34,3.34,0,0,0,26.22,29.11Z"/><path class="cls-3" d="M49.07,29.11a3.31,3.31,0,1,0-3.36-3.3A3.33,3.33,0,0,0,49.07,29.11Z"/><path class="cls-3" d="M71.93,29.11a3.31,3.31,0,1,0-3.36-3.3A3.33,3.33,0,0,0,71.93,29.11Z"/><path class="cls-3" d="M94.79,29.11a3.31,3.31,0,1,0-3.36-3.3A3.34,3.34,0,0,0,94.79,29.11Z"/><path class="cls-3" d="M117.64,29.11a3.31,3.31,0,1,0-3.35-3.3A3.33,3.33,0,0,0,117.64,29.11Z"/><path class="cls-3" d="M140.5,29.11a3.31,3.31,0,1,0-3.36-3.3A3.33,3.33,0,0,0,140.5,29.11Z"/><path class="cls-3" d="M163.36,29.11a3.31,3.31,0,1,0-3.36-3.3A3.34,3.34,0,0,0,163.36,29.11Z"/><path class="cls-3" d="M186.22,29.11a3.31,3.31,0,1,0-3.36-3.3A3.34,3.34,0,0,0,186.22,29.11Z"/><path class="cls-3" d="M209.07,29.11a3.31,3.31,0,1,0-3.36-3.3A3.33,3.33,0,0,0,209.07,29.11Z"/><path class="cls-3" d="M231.93,29.11a3.31,3.31,0,1,0-3.36-3.3A3.33,3.33,0,0,0,231.93,29.11Z"/><path class="cls-3" d="M254.79,29.11a3.31,3.31,0,1,0-3.36-3.3A3.34,3.34,0,0,0,254.79,29.11Z"/><path class="cls-3" d="M277.64,29.11a3.31,3.31,0,1,0-3.35-3.3A3.33,3.33,0,0,0,277.64,29.11Z"/><path class="cls-3" d="M300.5,29.11a3.31,3.31,0,1,0-3.36-3.3A3.33,3.33,0,0,0,300.5,29.11Z"/><path class="cls-3" d="M323.36,29.11a3.31,3.31,0,1,0-3.36-3.3A3.34,3.34,0,0,0,323.36,29.11Z"/><path class="cls-3" d="M346.22,29.11a3.31,3.31,0,1,0-3.36-3.3A3.34,3.34,0,0,0,346.22,29.11Z"/><path class="cls-3" d="M369.07,29.11a3.31,3.31,0,1,0-3.36-3.3A3.33,3.33,0,0,0,369.07,29.11Z"/><path class="cls-3" d="M391.93,29.11a3.31,3.31,0,1,0-3.36-3.3A3.33,3.33,0,0,0,391.93,29.11Z"/><path class="cls-3" d="M414.79,29.11a3.31,3.31,0,1,0-3.36-3.3A3.34,3.34,0,0,0,414.79,29.11Z"/><path class="cls-3" d="M437.64,29.11a3.31,3.31,0,1,0-3.35-3.3A3.33,3.33,0,0,0,437.64,29.11Z"/><path class="cls-3" d="M3.36,51.61a3.31,3.31,0,1,0,0-6.61,3.31,3.31,0,1,0,0,6.61Z"/><path class="cls-3" d="M26.22,51.61a3.31,3.31,0,1,0-3.36-3.3A3.34,3.34,0,0,0,26.22,51.61Z"/><path class="cls-3" d="M49.07,51.61a3.31,3.31,0,1,0-3.36-3.3A3.33,3.33,0,0,0,49.07,51.61Z"/><path class="cls-3" d="M71.93,51.61a3.31,3.31,0,1,0-3.36-3.3A3.33,3.33,0,0,0,71.93,51.61Z"/><path class="cls-3" d="M94.79,51.61a3.31,3.31,0,1,0-3.36-3.3A3.34,3.34,0,0,0,94.79,51.61Z"/><path class="cls-3" d="M117.64,51.61a3.31,3.31,0,1,0-3.35-3.3A3.33,3.33,0,0,0,117.64,51.61Z"/><path class="cls-3" d="M140.5,51.61a3.31,3.31,0,1,0-3.36-3.3A3.33,3.33,0,0,0,140.5,51.61Z"/><path class="cls-3" d="M163.36,51.61a3.31,3.31,0,1,0-3.36-3.3A3.34,3.34,0,0,0,163.36,51.61Z"/><path class="cls-3" d="M186.22,51.61a3.31,3.31,0,1,0-3.36-3.3A3.34,3.34,0,0,0,186.22,51.61Z"/><path class="cls-3" d="M209.07,51.61a3.31,3.31,0,1,0-3.36-3.3A3.33,3.33,0,0,0,209.07,51.61Z"/><path class="cls-3" d="M231.93,51.61a3.31,3.31,0,1,0-3.36-3.3A3.33,3.33,0,0,0,231.93,51.61Z"/><path class="cls-3" d="M254.79,51.61a3.31,3.31,0,1,0-3.36-3.3A3.34,3.34,0,0,0,254.79,51.61Z"/><path class="cls-3" d="M277.64,51.61a3.31,3.31,0,1,0-3.35-3.3A3.33,3.33,0,0,0,277.64,51.61Z"/><path class="cls-3" d="M300.5,51.61a3.31,3.31,0,1,0-3.36-3.3A3.33,3.33,0,0,0,300.5,51.61Z"/><path class="cls-3" d="M323.36,51.61a3.31,3.31,0,1,0-3.36-3.3A3.34,3.34,0,0,0,323.36,51.61Z"/><path class="cls-3" d="M346.22,51.61a3.31,3.31,0,1,0-3.36-3.3A3.34,3.34,0,0,0,346.22,51.61Z"/><path class="cls-3" d="M369.07,51.61a3.31,3.31,0,1,0-3.36-3.3A3.33,3.33,0,0,0,369.07,51.61Z"/><path class="cls-3" d="M391.93,51.61a3.31,3.31,0,1,0-3.36-3.3A3.33,3.33,0,0,0,391.93,51.61Z"/><path class="cls-3" d="M414.79,51.61a3.31,3.31,0,1,0-3.36-3.3A3.34,3.34,0,0,0,414.79,51.61Z"/><path class="cls-3" d="M437.64,51.61a3.31,3.31,0,1,0-3.35-3.3A3.33,3.33,0,0,0,437.64,51.61Z"/><path class="cls-3" d="M3.36,74.11a3.31,3.31,0,1,0,0-6.61,3.31,3.31,0,1,0,0,6.61Z"/><path class="cls-3" d="M26.22,74.11a3.31,3.31,0,1,0-3.36-3.3A3.34,3.34,0,0,0,26.22,74.11Z"/><path class="cls-3" d="M49.07,74.11a3.31,3.31,0,1,0-3.36-3.3A3.33,3.33,0,0,0,49.07,74.11Z"/><path class="cls-3" d="M71.93,74.11a3.31,3.31,0,1,0-3.36-3.3A3.33,3.33,0,0,0,71.93,74.11Z"/><path class="cls-3" d="M94.79,74.11a3.31,3.31,0,1,0-3.36-3.3A3.34,3.34,0,0,0,94.79,74.11Z"/><path class="cls-3" d="M117.64,74.11a3.31,3.31,0,1,0-3.35-3.3A3.33,3.33,0,0,0,117.64,74.11Z"/><path class="cls-3" d="M140.5,74.11a3.31,3.31,0,1,0-3.36-3.3A3.33,3.33,0,0,0,140.5,74.11Z"/><path class="cls-3" d="M163.36,74.11a3.31,3.31,0,1,0-3.36-3.3A3.34,3.34,0,0,0,163.36,74.11Z"/><path class="cls-3" d="M186.22,74.11a3.31,3.31,0,1,0-3.36-3.3A3.34,3.34,0,0,0,186.22,74.11Z"/><path class="cls-3" d="M209.07,74.11a3.31,3.31,0,1,0-3.36-3.3A3.33,3.33,0,0,0,209.07,74.11Z"/><path class="cls-3" d="M231.93,74.11a3.31,3.31,0,1,0-3.36-3.3A3.33,3.33,0,0,0,231.93,74.11Z"/><path class="cls-3" d="M254.79,74.11a3.31,3.31,0,1,0-3.36-3.3A3.34,3.34,0,0,0,254.79,74.11Z"/><path class="cls-3" d="M277.64,74.11a3.31,3.31,0,1,0-3.35-3.3A3.33,3.33,0,0,0,277.64,74.11Z"/><path class="cls-3" d="M300.5,74.11a3.31,3.31,0,1,0-3.36-3.3A3.33,3.33,0,0,0,300.5,74.11Z"/><path class="cls-3" d="M323.36,74.11a3.31,3.31,0,1,0-3.36-3.3A3.34,3.34,0,0,0,323.36,74.11Z"/><path class="cls-3" d="M346.22,74.11a3.31,3.31,0,1,0-3.36-3.3A3.34,3.34,0,0,0,346.22,74.11Z"/><path class="cls-3" d="M369.07,74.11a3.31,3.31,0,1,0-3.36-3.3A3.33,3.33,0,0,0,369.07,74.11Z"/><path class="cls-3" d="M391.93,74.11a3.31,3.31,0,1,0-3.36-3.3A3.33,3.33,0,0,0,391.93,74.11Z"/><path class="cls-3" d="M414.79,74.11a3.31,3.31,0,1,0-3.36-3.3A3.34,3.34,0,0,0,414.79,74.11Z"/><path class="cls-3" d="M437.64,74.11a3.31,3.31,0,1,0-3.35-3.3A3.33,3.33,0,0,0,437.64,74.11Z"/><path class="cls-3" d="M3.36,96.61a3.31,3.31,0,1,0,0-6.61,3.31,3.31,0,1,0,0,6.61Z"/><path class="cls-3" d="M26.22,96.61a3.31,3.31,0,1,0-3.36-3.3A3.34,3.34,0,0,0,26.22,96.61Z"/><path class="cls-3" d="M49.07,96.61a3.31,3.31,0,1,0-3.36-3.3A3.33,3.33,0,0,0,49.07,96.61Z"/><path class="cls-3" d="M71.93,96.61a3.31,3.31,0,1,0-3.36-3.3A3.33,3.33,0,0,0,71.93,96.61Z"/><path class="cls-3" d="M94.79,96.61a3.31,3.31,0,1,0-3.36-3.3A3.34,3.34,0,0,0,94.79,96.61Z"/><path class="cls-3" d="M117.64,96.61a3.31,3.31,0,1,0-3.35-3.3A3.33,3.33,0,0,0,117.64,96.61Z"/><path class="cls-3" d="M140.5,96.61a3.31,3.31,0,1,0-3.36-3.3A3.33,3.33,0,0,0,140.5,96.61Z"/><path class="cls-3" d="M163.36,96.61a3.31,3.31,0,1,0-3.36-3.3A3.34,3.34,0,0,0,163.36,96.61Z"/><path class="cls-3" d="M186.22,96.61a3.31,3.31,0,1,0-3.36-3.3A3.34,3.34,0,0,0,186.22,96.61Z"/><path class="cls-3" d="M209.07,96.61a3.31,3.31,0,1,0-3.36-3.3A3.33,3.33,0,0,0,209.07,96.61Z"/><path class="cls-3" d="M231.93,96.61a3.31,3.31,0,1,0-3.36-3.3A3.33,3.33,0,0,0,231.93,96.61Z"/><path class="cls-3" d="M254.79,96.61a3.31,3.31,0,1,0-3.36-3.3A3.34,3.34,0,0,0,254.79,96.61Z"/><path class="cls-3" d="M277.64,96.61a3.31,3.31,0,1,0-3.35-3.3A3.33,3.33,0,0,0,277.64,96.61Z"/><path class="cls-3" d="M300.5,96.61a3.31,3.31,0,1,0-3.36-3.3A3.33,3.33,0,0,0,300.5,96.61Z"/><path class="cls-3" d="M323.36,96.61a3.31,3.31,0,1,0-3.36-3.3A3.34,3.34,0,0,0,323.36,96.61Z"/><path class="cls-3" d="M346.22,96.61a3.31,3.31,0,1,0-3.36-3.3A3.34,3.34,0,0,0,346.22,96.61Z"/><path class="cls-3" d="M369.07,96.61a3.31,3.31,0,1,0-3.36-3.3A3.33,3.33,0,0,0,369.07,96.61Z"/><path class="cls-3" d="M391.93,96.61a3.31,3.31,0,1,0-3.36-3.3A3.33,3.33,0,0,0,391.93,96.61Z"/><path class="cls-3" d="M414.79,96.61a3.31,3.31,0,1,0-3.36-3.3A3.34,3.34,0,0,0,414.79,96.61Z"/><path class="cls-3" d="M437.64,96.61a3.31,3.31,0,1,0-3.35-3.3A3.33,3.33,0,0,0,437.64,96.61Z"/><path class="cls-3" d="M3.36,119.11a3.31,3.31,0,1,0,0-6.61,3.31,3.31,0,1,0,0,6.61Z"/><path class="cls-3" d="M26.22,119.11a3.31,3.31,0,1,0-3.36-3.3A3.34,3.34,0,0,0,26.22,119.11Z"/><path class="cls-3" d="M49.07,119.11a3.31,3.31,0,1,0-3.36-3.3A3.33,3.33,0,0,0,49.07,119.11Z"/><path class="cls-3" d="M71.93,119.11a3.31,3.31,0,1,0-3.36-3.3A3.33,3.33,0,0,0,71.93,119.11Z"/><path class="cls-3" d="M94.79,119.11a3.31,3.31,0,1,0-3.36-3.3A3.34,3.34,0,0,0,94.79,119.11Z"/><path class="cls-3" d="M117.64,119.11a3.31,3.31,0,1,0-3.35-3.3A3.33,3.33,0,0,0,117.64,119.11Z"/><path class="cls-3" d="M140.5,119.11a3.31,3.31,0,1,0-3.36-3.3A3.33,3.33,0,0,0,140.5,119.11Z"/><path class="cls-3" d="M163.36,119.11a3.31,3.31,0,1,0-3.36-3.3A3.34,3.34,0,0,0,163.36,119.11Z"/><path class="cls-3" d="M186.22,119.11a3.31,3.31,0,1,0-3.36-3.3A3.34,3.34,0,0,0,186.22,119.11Z"/><path class="cls-3" d="M209.07,119.11a3.31,3.31,0,1,0-3.36-3.3A3.33,3.33,0,0,0,209.07,119.11Z"/><path class="cls-3" d="M231.93,119.11a3.31,3.31,0,1,0-3.36-3.3A3.33,3.33,0,0,0,231.93,119.11Z"/><path class="cls-3" d="M254.79,119.11a3.31,3.31,0,1,0-3.36-3.3A3.34,3.34,0,0,0,254.79,119.11Z"/><path class="cls-3" d="M277.64,119.11a3.31,3.31,0,1,0-3.35-3.3A3.33,3.33,0,0,0,277.64,119.11Z"/><path class="cls-3" d="M300.5,119.11a3.31,3.31,0,1,0-3.36-3.3A3.33,3.33,0,0,0,300.5,119.11Z"/><path class="cls-3" d="M323.36,119.11a3.31,3.31,0,1,0-3.36-3.3A3.34,3.34,0,0,0,323.36,119.11Z"/><path class="cls-3" d="M346.22,119.11a3.31,3.31,0,1,0-3.36-3.3A3.34,3.34,0,0,0,346.22,119.11Z"/><path class="cls-3" d="M369.07,119.11a3.31,3.31,0,1,0-3.36-3.3A3.33,3.33,0,0,0,369.07,119.11Z"/><path class="cls-3" d="M391.93,119.11a3.31,3.31,0,1,0-3.36-3.3A3.33,3.33,0,0,0,391.93,119.11Z"/><path class="cls-3" d="M414.79,119.11a3.31,3.31,0,1,0-3.36-3.3A3.34,3.34,0,0,0,414.79,119.11Z"/><path class="cls-3" d="M437.64,119.11a3.31,3.31,0,1,0-3.35-3.3A3.33,3.33,0,0,0,437.64,119.11Z"/></g></g></g></g></svg>