<?xml version="1.0" encoding="utf-8"?>
<!-- Generator: Adobe Illustrator 23.1.0, SVG Export Plug-In . SVG Version: 6.00 Build 0)  -->
<svg version="1.1" id="Layer_1" xmlns="http://www.w3.org/2000/svg" xmlns:xlink="http://www.w3.org/1999/xlink" x="0px" y="0px"
	 viewBox="0 0 2080 469.33" style="enable-background:new 0 0 2080 469.33;" xml:space="preserve">
<style type="text/css">
	.st0{fill:none;stroke:#152A77;stroke-width:2.8368;stroke-linecap:round;stroke-linejoin:round;stroke-miterlimit:10;}
	.st1{fill:none;stroke:#152A77;stroke-width:3.1091;stroke-linecap:round;stroke-linejoin:round;stroke-miterlimit:10;}
	.st2{fill:none;stroke:#152A77;stroke-width:3;stroke-linecap:round;stroke-linejoin:round;stroke-miterlimit:10;}
	.st3{fill:#152A77;}
	.st4{fill:none;stroke:#152A77;stroke-width:3.1578;stroke-linecap:round;stroke-linejoin:round;stroke-miterlimit:10;}
	.st5{fill:#17E3E3;}
	.st6{fill:none;stroke:#152A77;stroke-width:4.7267;stroke-linecap:round;stroke-linejoin:round;stroke-miterlimit:10;}
</style>
<g>
	<path class="st0" d="M51.95,28.22l-3.7-1.3L26.06,89.84l39.93,14.08c0,0-0.11,4.58,3.7,5.93"/>
	<path class="st0" d="M69.45,109.76c3.81,1.35,6.52-2.32,6.52-2.32l38.93,13.73l22.19-62.92l-3.7-1.31"/>
	<path class="st0" d="M71.69,102.52c0,0-13.61-6.12-40.13-16.46c7.14-20.25,15.42-43.73,20.9-59.28c1.72,0.6,2.57,0.96,4.13,1.6"/>
	<path class="st0" d="M71.61,102.49c0,0,15.16,4.02,41.38,12.28c7.14-20.25,15.42-43.73,20.9-59.28c-1.61-0.57-3.17-1.07-4.69-1.53"
		/>
	<path class="st0" d="M72.17,103.67c0,0-8.42-8.58-34.95-18.92c7.14-20.25,15.42-43.73,20.9-59.29c26.84,9.46,33.7,22.44,33.7,22.44
		L72.17,103.67z"/>
	<path class="st0" d="M72.17,103.67c0,0,11.01-1.73,37.23,6.53c7.14-20.25,15.42-43.73,20.9-59.28
		c-24.98-8.81-38.47-3.01-38.47-3.01L72.17,103.67z"/>
</g>
<g>
	<path class="st0" d="M1401.71,397.38l-3.07,2.45l41.6,52.16l33.1-26.4c0,0,3.83,2.52,6.99,0"/>
	<path class="st0" d="M1480.13,425.75c3.16-2.52,1.49-6.76,1.49-6.76l32.27-25.74l-41.6-52.16l-3.07,2.45"/>
	<path class="st0" d="M1475.18,420.01c0,0-12.4,8.3-35.23,25.31c-13.39-16.79-28.91-36.25-39.2-49.14c1.42-1.13,2.18-1.68,3.54-2.65
		"/>
	<path class="st0" d="M1475.11,420.06c0,0,11.45-10.72,32.34-28.58c-13.39-16.79-28.91-36.25-39.2-49.14
		c-1.33,1.06-2.59,2.12-3.78,3.17"/>
	<path class="st0" d="M1476.41,420.22c0,0-11.74,2.6-34.56,19.61c-13.39-16.79-28.91-36.25-39.2-49.15
		c22.25-17.74,36.89-16.69,36.89-16.69L1476.41,420.22z"/>
	<path class="st0" d="M1476.41,420.22c0,0,4.37-10.25,25.27-28.11c-13.39-16.78-28.91-36.25-39.2-49.14
		c-20.71,16.52-22.94,31.03-22.94,31.03L1476.41,420.22z"/>
</g>
<g>
	<path class="st1" d="M727.64,114.76l-3.94,1.72l29.31,67l42.51-18.6c0,0,3.34,3.75,7.4,1.97"/>
	<path class="st1" d="M802.65,166.97c4.06-1.78,3.49-6.74,3.49-6.74l41.45-18.13l-29.31-66.99l-3.94,1.72"/>
	<path class="st1" d="M799.03,159.49c0,0-15.47,5.28-44.46,16.84c-9.44-21.56-20.37-46.56-27.61-63.12c1.83-0.8,2.78-1.16,4.5-1.81"
		/>
	<path class="st1" d="M798.95,159.53c0,0,15.15-8.12,42.33-21.13c-9.43-21.56-20.37-46.56-27.61-63.12
		c-1.71,0.75-3.34,1.51-4.9,2.29"/>
	<path class="st1" d="M800.28,160.06c0,0-13.16-0.57-42.14,11c-9.43-21.56-20.37-46.56-27.61-63.12
		c28.57-12.5,43.78-7.24,43.78-7.24L800.28,160.06z"/>
	<path class="st1" d="M800.28,160.06c0,0,7.53-9.62,34.7-22.63c-9.43-21.56-20.37-46.56-27.61-63.12
		c-26.6,11.64-33.06,26.38-33.06,26.38L800.28,160.06z"/>
</g>
<g>
	<path class="st2" d="M1534.32,109.38c-6.83,31.33-25.59,53.85-41.89,50.3c-16.3-3.55-23.98-31.84-17.15-63.17
		c6.83-31.33,25.58-53.85,41.89-50.3C1533.47,49.76,1541.15,78.05,1534.32,109.38z"/>
	<path class="st2" d="M1513.03,132.27c-30.56,9.4-59.19,4-63.94-12.06c-4.75-16.06,16.18-36.7,46.74-46.1
		c30.56-9.4,59.19-4,63.94,12.06C1564.52,102.22,1543.59,122.87,1513.03,132.27z"/>
	<path class="st2" d="M1484.21,125.66c-23.58-21.76-33.64-49.46-22.48-61.87c11.16-12.41,39.33-4.84,62.91,16.93
		c23.57,21.76,33.64,49.46,22.48,61.87C1535.95,154.99,1507.78,147.42,1484.21,125.66z"/>
	<path class="st3" d="M1518.33,105.89c-1.7,7.81-9.42,12.77-17.24,11.06c-7.81-1.7-12.77-9.42-11.07-17.23
		c1.7-7.81,9.42-12.77,17.23-11.07C1515.07,90.36,1520.03,98.08,1518.33,105.89z"/>
</g>
<g>
	<path class="st0" d="M108.83,261.87c-9.33-2.31-3.7-25.07-13.03-27.38c-9.33-2.31-14.96,20.45-24.3,18.15
		c-9.33-2.31-3.7-25.07-13.04-27.38c-9.33-2.31-14.96,20.45-24.3,18.15c-9.34-2.31-3.71-25.07-13.04-27.38"/>
	<path class="st0" d="M16,238.92c9.33,2.31,14.96-20.46,24.29-18.15c9.33,2.31,3.71,25.07,13.04,27.38
		c9.33,2.31,14.96-20.46,24.3-18.15c9.33,2.31,3.7,25.07,13.04,27.38c9.33,2.31,14.96-20.45,24.3-18.15"/>
</g>
<g>
	<path class="st0" d="M1698.91,416.09c0,4.64-3.76,8.41-8.4,8.41c-4.64,0-8.4-3.76-8.4-8.41c0-4.64,3.76-8.4,8.4-8.4
		C1695.15,407.69,1698.91,411.45,1698.91,416.09z"/>
	<path class="st0" d="M1719.53,439.89c0,4.64-3.76,8.41-8.41,8.41c-4.64,0-8.4-3.76-8.4-8.41c0-4.64,3.76-8.4,8.4-8.4
		C1715.77,431.48,1719.53,435.25,1719.53,439.89z"/>
	<path class="st0" d="M1754.45,403.39c0,4.64-3.76,8.41-8.41,8.41c-4.64,0-8.4-3.76-8.4-8.41c0-4.64,3.76-8.4,8.4-8.4
		C1750.69,394.99,1754.45,398.75,1754.45,403.39z"/>
	<line class="st0" x1="1666.77" y1="425.67" x2="1682.1" y2="419.72"/>
	<line class="st0" x1="1696.45" y1="422.04" x2="1705.96" y2="433.27"/>
	<line class="st0" x1="1717.52" y1="432.43" x2="1742.69" y2="411.1"/>
	<line class="st0" x1="1752.76" y1="408.44" x2="1769.42" y2="420.39"/>
	<g>
		<path class="st0" d="M1698.91,416.09c0,4.64-3.76,8.41-8.4,8.41c-4.64,0-8.4-3.76-8.4-8.41c0-4.64,3.76-8.4,8.4-8.4
			C1695.15,407.69,1698.91,411.45,1698.91,416.09z"/>
		<path class="st0" d="M1719.53,439.89c0,4.64-3.76,8.41-8.41,8.41c-4.64,0-8.4-3.76-8.4-8.41c0-4.64,3.76-8.4,8.4-8.4
			C1715.77,431.48,1719.53,435.25,1719.53,439.89z"/>
		<path class="st0" d="M1754.45,403.39c0,4.64-3.76,8.41-8.41,8.41c-4.64,0-8.4-3.76-8.4-8.41c0-4.64,3.76-8.4,8.4-8.4
			C1750.69,394.99,1754.45,398.75,1754.45,403.39z"/>
		<line class="st0" x1="1666.77" y1="425.67" x2="1682.1" y2="419.72"/>
		<line class="st0" x1="1696.45" y1="422.04" x2="1705.96" y2="433.27"/>
		<line class="st0" x1="1717.52" y1="432.43" x2="1742.69" y2="411.1"/>
		<line class="st0" x1="1752.76" y1="408.44" x2="1769.42" y2="420.39"/>
	</g>
</g>
<g>
	<rect x="119.68" y="345.37" class="st4" width="14.65" height="54.97"/>
	<rect x="141.66" y="371.33" class="st4" width="16.48" height="29.01"/>
	<rect x="165.47" y="357.59" class="st4" width="14.65" height="42.76"/>
	<line class="st4" x1="106.86" y1="400.35" x2="205.76" y2="400.35"/>
	<line class="st4" x1="106.86" y1="400.35" x2="106.86" y2="319.41"/>
</g>
<g>
	<rect x="1984.92" y="212.96" class="st4" width="14.65" height="54.97"/>
	<rect x="2006.9" y="238.92" class="st4" width="16.48" height="29.01"/>
	<rect x="2030.71" y="225.18" class="st4" width="14.65" height="42.76"/>
	<line class="st4" x1="1972.1" y1="267.94" x2="2071" y2="267.94"/>
	<line class="st4" x1="1972.1" y1="267.94" x2="1972.1" y2="187"/>
</g>
<path class="st3" d="M1211.67,130.05l-11.9,5.27l0.51,6.21l-7.65,3.39l-2.15-34.37l9.08-4.02l24.02,24.68l-7.65,3.39L1211.67,130.05
	z M1199.24,129.01l8.09-3.59l-9.24-9.96L1199.24,129.01z"/>
<g>
	<path class="st3" d="M933.45,41.38c3.66,0,6.53,1.06,8.62,3.2c2.09,2.13,3.14,5.05,3.14,8.77c0,3.71-1.05,6.64-3.14,8.78
		c-2.09,2.14-4.96,3.21-8.62,3.21c-3.65,0-6.53-1.07-8.62-3.21c-2.09-2.14-3.14-5.07-3.14-8.78c0-3.71,1.05-6.64,3.14-8.77
		C926.92,42.44,929.8,41.38,933.45,41.38 M933.45,46.33c-1.41,0-2.5,0.61-3.27,1.83c-0.77,1.22-1.15,2.94-1.15,5.19
		c0,2.26,0.38,4,1.15,5.23c0.76,1.23,1.86,1.84,3.27,1.84c1.42,0,2.5-0.61,3.26-1.84c0.76-1.23,1.13-2.97,1.13-5.23
		c0-2.24-0.38-3.97-1.15-5.19C935.92,46.94,934.84,46.33,933.45,46.33 M939.49,87.03h-6.51l27.49-45.65h6.54L939.49,87.03z
		 M966.51,63.06c3.66,0,6.54,1.06,8.64,3.18c2.1,2.12,3.15,5.04,3.15,8.75c0,3.71-1.05,6.65-3.15,8.8c-2.1,2.15-4.98,3.23-8.64,3.23
		c-3.65,0-6.54-1.08-8.65-3.23c-2.11-2.15-3.17-5.08-3.17-8.8c0-3.69,1.05-6.61,3.17-8.74C959.98,64.13,962.86,63.06,966.51,63.06
		 M966.51,68.02c-1.39,0-2.47,0.6-3.24,1.81c-0.76,1.21-1.15,2.93-1.15,5.17c0,2.26,0.38,4,1.13,5.2c0.76,1.21,1.84,1.81,3.26,1.81
		c1.42,0,2.5-0.6,3.24-1.81c0.75-1.21,1.12-2.94,1.12-5.2c0-2.24-0.38-3.96-1.14-5.17C968.98,68.62,967.91,68.02,966.51,68.02"/>
</g>
<g>
	<path class="st5" d="M1151.82,235.14c-15.45-20.77-32.64-27.22-44.35-28.97c-12.83-1.92-21.96,1.19-22.34,1.33
		c-0.74,0.26-1.33,0.74-1.74,1.34c-3.93-2.91-9.35-6.18-16.17-8.58c-13.7-4.81-35.82-6.85-63.88,10.33
		c-11.02-1.09-27.38,0.72-44.28,14.89c-9.87,8.27-16.03,17-18.39,26.02c-3.06,1.72-9.68,5.98-15.8,13.54
		c-7.48,9.23-15.63,25.33-11.98,49.62c0.01,0.09,0.04,0.17,0.06,0.25c-4.55,8.97-7.72,22.66-0.73,40.43
		c6.56,16.67,18.22,24.2,26.86,27.58c7.1,2.78,13.29,3.28,16.01,3.35c0.18,0.3,0.35,0.59,0.54,0.89
		c6.66,10.39,19.45,17.11,38.03,19.98c-1.25,7.33-2.05,15.34-1.44,22.29c0.16,1.83,1.7,3.24,3.53,3.24l9.38-1.13
		c1.44,0,2.74-0.87,3.28-2.2c0.15-0.38,16.55-36.01,41.5-59.47c3.78,1.25,11.94,3.35,21.64,2.12c11.7-1.49,28.12-10.6,39.41-34.03
		c2.34,0.62,4.9,1,7.68,1c5.78,0,12.49-1.62,20.03-6.1c13.72-8.14,17.61-16.1,18.73-23.32c0.44-2.85,0.48-5.64,0.24-8.32
		c1.35-2.53,4.85-9.83,6.31-19.9C1165.6,269.9,1164.83,252.64,1151.82,235.14z"/>
	<g>
		<g>
			<path class="st3" d="M1005.19,435.48H994.3c-1.19,0-2.18-0.91-2.28-2.09c-1.66-18.76,6.82-45.25,7.18-46.36
				c0.39-1.2,1.68-1.86,2.88-1.48c1.2,0.39,1.86,1.68,1.48,2.88c-0.08,0.26-7.91,24.73-7.11,42.46h7.23
				c3.26-7.54,19.15-42.25,44.35-65.01c0.67-0.6,1.63-0.76,2.45-0.4c1.56,0.67,38.42,16.01,58.57-29.32
				c0.51-1.16,1.87-1.68,3.02-1.16c1.16,0.51,1.68,1.87,1.16,3.02c-11.47,25.79-28.41,33.05-40.6,34.6
				c-10.54,1.34-19.26-1.22-22.57-2.4c-26.42,24.48-42.59,63.43-42.75,63.82C1006.95,434.92,1006.12,435.48,1005.19,435.48z"/>
		</g>
		<g>
			<path class="st3" d="M1121.24,340.84c-13.99,0-22.38-9.54-23.55-10.96c-5.47-5.24-7.58-12.38-5.67-19.13
				c1.42-4.99,4.92-8.75,8.91-9.58c2.01-0.41,5.92-0.44,9.6,4.07c0.8,0.98,0.66,2.42-0.32,3.22c-0.98,0.8-2.42,0.65-3.22-0.32
				c-1.13-1.38-2.93-2.94-5.13-2.48c-2.31,0.48-4.5,3.03-5.44,6.34c-1.46,5.12,0.23,10.6,4.52,14.66c0.09,0.09,0.18,0.18,0.25,0.28
				c0.56,0.73,14.11,17.88,37.75,3.86c9.8-5.82,15.48-13.34,16.89-22.37c1.58-10.21-2.79-20.49-7.82-26.14
				c-4.47-5.02-10.74-5.88-14.97-4.52c-2.07,0.67-5.61,2.5-6.1,7.24c-0.28,2.7,0.21,4.75,1.44,6.08c1.93,2.08,5.23,2.01,5.27,2.01
				c1.27-0.05,2.32,0.95,2.36,2.21c0.04,1.26-0.93,2.32-2.19,2.37c-0.21,0.01-5.38,0.17-8.76-3.43c-2.2-2.34-3.1-5.61-2.68-9.71
				c0.54-5.27,4-9.43,9.25-11.13c6.79-2.19,14.74,0.15,19.8,5.83c5.75,6.46,10.74,18.2,8.93,29.89c-1.6,10.3-8.19,19.16-19.08,25.61
				C1133.73,339.22,1127.01,340.84,1121.24,340.84z"/>
		</g>
		<g>
			<path class="st3" d="M1158.27,302.12c-0.4,0-0.81-0.11-1.18-0.33c-1.08-0.65-1.43-2.06-0.78-3.14
				c0.77-1.29,18.24-31.35-5.15-62.79c-28.19-37.91-61.99-26.68-62.33-26.56c-1.2,0.42-2.5-0.21-2.92-1.41
				c-0.42-1.19,0.21-2.5,1.41-2.92c0.38-0.13,9.54-3.25,22.48-1.31c11.87,1.78,29.31,8.33,45.03,29.46
				c25.27,33.97,5.6,67.55,5.4,67.89C1159.8,301.72,1159.04,302.12,1158.27,302.12z"/>
		</g>
		<g>
			<path class="st3" d="M1077.94,256.41c-5.97,0-10.43-1.93-13.27-5.73c-5.94-7.96-2.09-21.14-1.92-21.69
				c0.36-1.21,1.64-1.9,2.85-1.54c1.21,0.36,1.9,1.64,1.54,2.85c-0.03,0.11-3.36,11.54,1.21,17.64c1.95,2.61,5.09,3.88,9.59,3.88
				c0.02,0,0.04,0,0.07,0c7.59-0.02,13.53-3.92,16.32-10.7c3.36-8.16,1.01-18.22-5.83-25.03c-0.05-0.05-0.09-0.1-0.14-0.15
				c-0.08-0.09-7.97-9.29-22.24-14.24c-19.1-6.63-40.01-2.92-62.16,11.03c-1.07,0.67-2.48,0.35-3.16-0.72
				c-0.67-1.07-0.35-2.48,0.72-3.16c29.25-18.42,52.22-16.36,66.34-11.4c14.8,5.2,23.04,14.41,23.94,15.46
				c8.21,8.22,10.87,19.96,6.77,29.95c-3.47,8.45-11.15,13.51-20.54,13.54C1077.99,256.41,1077.97,256.41,1077.94,256.41z"/>
		</g>
		<g>
			<path class="st3" d="M959.96,285.69c-7.13,0-12.81-4.48-15.32-7.68c-0.8-0.91-7.96-9.48-7.06-22.33
				c0.78-11.21,7.37-22.09,19.6-32.33c17.57-14.73,34.54-16.29,45.68-15.02c11.5,1.32,19.18,5.79,20.19,6.4
				c18.14,9.11,22.89,25.85,18.21,37.69c-3.87,9.8-13.16,14.39-23.1,11.43c-4.06-1.21-6.95-3.53-8.59-6.89
				c-3.34-6.87,0.03-15.56,0.17-15.93c0.47-1.18,1.79-1.75,2.97-1.29c1.18,0.47,1.75,1.8,1.29,2.97c-0.03,0.07-2.77,7.2-0.3,12.25
				c1.07,2.18,2.95,3.65,5.77,4.49c9.3,2.77,15.26-2.97,17.53-8.73c3.8-9.62,0.39-23.72-16.09-31.96c-0.07-0.03-0.13-0.07-0.19-0.11
				c-1.19-0.74-29.52-17.86-60.6,8.19c-11.21,9.39-17.25,19.17-17.97,29.06c-0.82,11.36,5.89,19.03,5.95,19.1
				c0.03,0.04,0.07,0.08,0.1,0.12c0.3,0.38,7.64,9.48,17.8,4.49c4.79-2.35,5.96-5.77,6.09-8.22c0.19-3.39-1.5-6.3-3.27-7.42
				c-1.02-0.65-1.99-0.72-2.97-0.19c-1.12,0.6-2.5,0.18-3.1-0.94c-0.6-1.12-0.18-2.5,0.94-3.1c2.42-1.3,5.19-1.16,7.59,0.37
				c3.48,2.22,5.64,6.85,5.38,11.54c-0.17,3.01-1.51,8.58-8.65,12.08C965.2,285.12,962.48,285.69,959.96,285.69z"/>
		</g>
		<g>
			<path class="st3" d="M912.09,316.39c-1.11,0-2.09-0.81-2.26-1.95c-3.71-24.66,4.54-40.97,12.11-50.32
				c8.22-10.15,17.27-14.4,17.65-14.57c1.15-0.53,2.51-0.03,3.04,1.12c0.53,1.15,0.03,2.51-1.12,3.04l0,0
				c-0.09,0.04-8.6,4.07-16.15,13.46c-10.07,12.53-13.78,28.2-11.01,46.59c0.19,1.25-0.67,2.42-1.92,2.61
				C912.32,316.39,912.21,316.39,912.09,316.39z"/>
		</g>
		<g>
			<path class="st3" d="M953.18,387.44c-3.87,0-32.27-1.06-44.12-31.17c-14.89-37.85,15.27-57.78,15.58-57.98
				c0.05-0.03,0.1-0.06,0.16-0.09c5.58-2.99,11.91-3.62,17.36-1.72c5.04,1.76,9.04,5.54,11.25,10.65c2.55,5.9,1,13.39-3.97,19.06
				c-4,4.58-9.08,6.56-13.6,5.28c-1.22-0.34-1.93-1.61-1.59-2.82c0.34-1.22,1.61-1.93,2.83-1.58c2.73,0.77,6.14-0.72,8.91-3.89
				c3.12-3.57,5.32-9.35,3.21-14.23c-1.72-3.98-4.68-6.8-8.56-8.15c-4.22-1.47-9.17-0.96-13.61,1.39c-1.85,1.23-27,18.66-13.72,52.4
				c11.44,29.07,38.93,28.31,40.09,28.26c1.25-0.06,2.33,0.93,2.38,2.19c0.05,1.26-0.92,2.33-2.19,2.39
				C953.59,387.44,953.44,387.44,953.18,387.44z"/>
		</g>
		<g>
			<path class="st3" d="M996.44,409.61c-0.09,0-0.19-0.01-0.28-0.02c-20.93-2.56-35.15-9.49-42.27-20.6
				c-7.84-12.23-3.94-24.84-3.77-25.37c2.16-6.97,8.67-11.66,16.21-11.66c0.01,0,0.02,0,0.02,0c6.56,0.01,14.76,3.9,18.1,14.81
				c1.47,4.78-2.37,10.59-6.88,13.01c-4.24,2.29-8.56,1.5-11.54-2.1c-0.81-0.97-0.67-2.42,0.31-3.22c0.98-0.81,2.42-0.67,3.23,0.31
				c1.57,1.9,3.53,2.23,5.84,0.99c2.98-1.61,5.34-5.46,4.67-7.64c-2.22-7.24-7.35-11.56-13.73-11.57c-0.01,0-0.01,0-0.02,0
				c-5.51,0-10.27,3.39-11.84,8.45c-0.04,0.12-3.39,11.19,3.3,21.58c6.36,9.87,19.46,16.08,38.93,18.46c1.26,0.15,2.15,1.3,2,2.55
				C998.57,408.76,997.59,409.61,996.44,409.61z"/>
		</g>
		<g>
			<path class="st3" d="M976.25,356.6c-5.12,0-8.57-0.52-8.83-0.56c-1.25-0.19-2.1-1.36-1.91-2.61c0.19-1.25,1.36-2.1,2.61-1.91
				c0.11,0.02,11.64,1.73,23.77-1.35c15.83-4.02,25.23-14,27.93-29.66c1.5-8.7-0.88-15.97-6.54-19.96
				c-5.06-3.56-11.78-3.92-17.13-0.9c-3.58,2.02-9.46,7.31-8.57,19.97c0.09,1.26-0.86,2.36-2.12,2.45
				c-1.27,0.08-2.36-0.86-2.45-2.12c-0.78-11.09,3.19-19.94,10.89-24.29c6.88-3.88,15.53-3.43,22.02,1.15
				c7.16,5.05,10.22,13.97,8.41,24.48c-3,17.41-13.88,28.94-31.45,33.35C986.74,356.19,980.83,356.6,976.25,356.6z"/>
		</g>
		<g>
			<path class="st3" d="M1074.69,338.17c-3.57,0-7.22-1.98-9.46-5.45c-2.81-4.35-3.47-11.62,3.94-17.8
				c10.53-8.78,22.26-0.99,26.98,4.36c0.84,0.95,0.75,2.4-0.2,3.23c-0.95,0.84-2.39,0.75-3.23-0.2l0,0
				c-0.44-0.49-10.87-12-20.62-3.88c-6.42,5.35-3.94,10.38-3.03,11.79c1.58,2.44,4.8,4.29,7.65,2.9c1.14-0.55,2.51-0.08,3.06,1.05
				c0.55,1.14,0.08,2.51-1.05,3.06C1077.46,337.87,1076.08,338.17,1074.69,338.17z"/>
		</g>
	</g>
</g>
<g id="idea_1_">
	<g>
		<g>
			<path class="st3" d="M420.07,125.85c-0.63,0-1.14-0.51-1.14-1.14c0-7.04-5.73-12.77-12.77-12.77c-0.63,0-1.14-0.51-1.14-1.14
				c0-0.63,0.51-1.14,1.14-1.14c8.3,0,15.05,6.75,15.05,15.04C421.21,125.34,420.7,125.85,420.07,125.85z"/>
		</g>
	</g>
	<g>
		<g>
			<g>
				<polygon class="st3" points="410.5,154.51 408.78,154.22 412.17,133.68 413.9,133.96 410.5,154.51 				"/>
			</g>
			<g>
				<polygon class="st3" points="401.81,154.51 398.42,133.96 400.14,133.68 403.54,154.22 401.81,154.51 				"/>
			</g>
		</g>
		<g>
			<path class="st3" d="M412.92,136.57c-0.72,0-1.03-0.69-1.25-1.2c-0.09-0.21-0.29-0.65-0.4-0.65c-0.11,0-0.3,0.44-0.4,0.65
				c-0.23,0.51-0.54,1.2-1.25,1.2c-0.72,0-1.02-0.69-1.25-1.2c-0.09-0.21-0.29-0.65-0.4-0.65c-0.12,0-0.31,0.44-0.4,0.65
				c-0.23,0.51-0.54,1.2-1.25,1.2c-0.71,0-1.02-0.69-1.25-1.2c-0.09-0.21-0.29-0.65-0.4-0.65c-0.11,0-0.31,0.44-0.4,0.65
				c-0.22,0.51-0.53,1.2-1.25,1.2c-0.71,0-1.02-0.69-1.25-1.2c-0.1-0.21-0.29-0.65-0.4-0.65c-0.11,0-0.31,0.44-0.4,0.65
				c-0.23,0.51-0.54,1.2-1.25,1.2v-0.93c0.11,0,0.31-0.44,0.4-0.65c0.23-0.51,0.54-1.2,1.25-1.2c0.71,0,1.03,0.69,1.25,1.2
				c0.1,0.21,0.29,0.65,0.4,0.65c0.11,0,0.31-0.44,0.4-0.65c0.22-0.51,0.53-1.2,1.25-1.2c0.71,0,1.02,0.7,1.25,1.2
				c0.09,0.21,0.29,0.65,0.4,0.65c0.11,0,0.31-0.44,0.4-0.65c0.23-0.51,0.53-1.2,1.25-1.2c0.71,0,1.02,0.7,1.24,1.2
				c0.1,0.21,0.29,0.65,0.4,0.65c0.11,0,0.31-0.44,0.4-0.65c0.22-0.51,0.53-1.2,1.25-1.2c0.72,0,1.02,0.7,1.25,1.2
				c0.1,0.21,0.29,0.65,0.4,0.65V136.57L412.92,136.57z"/>
		</g>
	</g>
	<g>
		<path class="st3" d="M406.15,99.5c-0.63,0-1.14-0.51-1.14-1.14V86.4c0-0.63,0.51-1.14,1.14-1.14c0.63,0,1.14,0.51,1.14,1.14v11.96
			C407.29,98.99,406.78,99.5,406.15,99.5z"/>
	</g>
	<g>
		<path class="st3" d="M419.81,103.16c-0.19,0-0.39-0.05-0.57-0.15c-0.54-0.31-0.74-1.01-0.42-1.56l5.98-10.36
			c0.31-0.54,1.01-0.73,1.55-0.42c0.55,0.32,0.74,1.01,0.42,1.56l-5.97,10.36C420.58,102.95,420.2,103.16,419.81,103.16z"/>
	</g>
	<g>
		<path class="st3" d="M429.81,113.15c-0.39,0-0.77-0.2-0.99-0.57c-0.31-0.54-0.13-1.24,0.42-1.56l10.35-5.98
			c0.54-0.31,1.24-0.13,1.56,0.42c0.31,0.54,0.12,1.24-0.42,1.56L430.38,113C430.2,113.1,430.01,113.15,429.81,113.15z"/>
	</g>
	<g>
		<path class="st3" d="M445.81,126.81h-12.34c-0.63,0-1.14-0.51-1.14-1.14c0-0.63,0.52-1.14,1.14-1.14h12.34
			c0.63,0,1.14,0.51,1.14,1.14C446.95,126.3,446.44,126.81,445.81,126.81z"/>
	</g>
	<g>
		<path class="st3" d="M440.18,146.45c-0.2,0-0.39-0.05-0.57-0.15l-10.36-5.98c-0.55-0.32-0.73-1.01-0.42-1.56
			c0.31-0.54,1.01-0.73,1.55-0.42l10.36,5.98c0.54,0.31,0.73,1.01,0.41,1.56C440.95,146.24,440.57,146.45,440.18,146.45z"/>
	</g>
	<g>
		<path class="st3" d="M392.49,103.16c-0.39,0-0.77-0.21-0.99-0.57l-5.98-10.35c-0.31-0.55-0.13-1.24,0.42-1.56
			c0.54-0.31,1.24-0.13,1.56,0.42l5.97,10.36c0.32,0.55,0.13,1.24-0.41,1.56C392.88,103.12,392.69,103.16,392.49,103.16z"/>
	</g>
	<g>
		<path class="st3" d="M382.5,113.17c-0.2,0-0.39-0.05-0.57-0.15l-10.36-5.98c-0.54-0.31-0.73-1.01-0.42-1.56
			c0.32-0.54,1.01-0.73,1.56-0.42l10.36,5.98c0.54,0.31,0.73,1.01,0.42,1.56C383.27,112.96,382.89,113.17,382.5,113.17z"/>
	</g>
	<g>
		<path class="st3" d="M378.84,126.83h-11.95c-0.63,0-1.14-0.51-1.14-1.14c0-0.63,0.51-1.14,1.14-1.14h11.95
			c0.63,0,1.15,0.51,1.15,1.14C379.98,126.32,379.47,126.83,378.84,126.83z"/>
	</g>
	<g>
		<path class="st3" d="M372.15,146.47c-0.39,0-0.77-0.21-0.98-0.57c-0.32-0.55-0.13-1.24,0.41-1.56l10.36-5.98
			c0.54-0.31,1.24-0.13,1.56,0.42c0.32,0.55,0.13,1.24-0.42,1.56l-10.36,5.98C372.54,146.41,372.34,146.47,372.15,146.47z"/>
	</g>
	<g>
		<g>
			<path class="st3" d="M416.26,154.85C416.26,154.85,416.26,154.85,416.26,154.85h-20.26c-1.05,0-1.9-0.85-1.9-1.9
				c0-0.08,0.01-0.17,0.02-0.25c0.11-1.36-0.01-5.52-1.4-7.37c-8.11-10.45-8.34-20.52-8.34-20.62c0-12.01,9.77-21.77,21.77-21.77
				c12.01,0,21.77,9.77,21.77,21.77c0,0.1-0.22,10.17-8.36,20.64c-1.45,1.91-1.51,6.07-1.43,7.27c0.02,0.11,0.03,0.22,0.03,0.32
				C418.16,154,417.32,154.85,416.26,154.85z M396.01,151.05c-1.06,0-1.77,0.81-1.88,1.61
				C394.27,151.76,395.06,151.05,396.01,151.05z M416.58,151.08c0.27,0.05,0.52,0.15,0.73,0.29
				C417.1,151.23,416.86,151.13,416.58,151.08z M397.94,151.05h16.4c0.03-0.86,0.11-1.58,0.11-1.6c0.27-2.76,0.99-4.92,2.1-6.41
				c7.31-9.41,7.58-18.25,7.58-18.33c0-9.91-8.06-17.97-17.98-17.97c-9.91,0-17.97,8.06-17.97,17.98c0,0.08,0.27,8.92,7.56,18.31
				c1.13,1.51,1.83,3.67,2.09,6.43C397.84,149.48,397.91,150.2,397.94,151.05z"/>
		</g>
		<g>
			<path class="st3" d="M415.62,158.92H396.7c-1.05,0-1.9-0.85-1.9-1.9c0-1.05,0.85-1.9,1.9-1.9h18.92c1.05,0,1.9,0.85,1.9,1.9
				C417.52,158.07,416.67,158.92,415.62,158.92z"/>
		</g>
		<g>
			<path class="st3" d="M414.22,162.98H398.1c-1.05,0-1.9-0.85-1.9-1.9c0-1.05,0.85-1.9,1.9-1.9h16.11c1.05,0,1.9,0.85,1.9,1.9
				C416.11,162.13,415.26,162.98,414.22,162.98z"/>
		</g>
		<g>
			<path class="st3" d="M411.85,166.94h-11.38c-1.05,0-1.9-0.85-1.9-1.9c0-1.05,0.85-1.9,1.9-1.9h11.38c1.05,0,1.9,0.85,1.9,1.9
				C413.75,166.08,412.9,166.94,411.85,166.94z"/>
		</g>
	</g>
</g>
<g>
	<path class="st3" d="M1781.75,244.85c-7.87-7.87-20.63-7.87-28.51,0c-7.87,7.87-7.87,20.64,0,28.51c7.87,7.87,20.64,7.87,28.51,0
		C1789.62,265.49,1789.63,252.73,1781.75,244.85z M1756.81,269.8c-5.91-5.9-5.9-15.48,0-21.38c5.9-5.9,15.48-5.9,21.38,0
		c5.9,5.91,5.9,15.48,0,21.38C1772.28,275.7,1762.71,275.7,1756.81,269.8z"/>
	<path class="st3" d="M1736.35,298.03c-2.15,2.15-5.63,2.15-7.77,0l0,0c-2.15-2.15-2.15-5.63,0-7.78l15.09-15.09
		c2.15-2.15,5.63-2.15,7.77,0l0,0c2.15,2.15,2.15,5.63,0,7.78L1736.35,298.03z"/>
	<path class="st3" d="M1745.64,283.67c-0.75,0.74-1.96,0.74-2.7,0l0,0c-0.75-0.75-0.75-1.95,0-2.7l10.97-10.97
		c0.74-0.75,1.96-0.75,2.7,0l0,0c0.75,0.75,0.75,1.96,0,2.7L1745.64,283.67z"/>
	<path class="st3" d="M1775.33,251.28c5.15,5.15,5.41,13.32,0.82,18.79c0.31-0.26,0.61-0.53,0.9-0.81c5.44-5.44,5.44-14.26,0-19.69
		c-5.44-5.44-14.26-5.44-19.69,0c-0.29,0.29-0.56,0.59-0.82,0.9C1762.01,245.86,1770.18,246.13,1775.33,251.28z"/>
</g>
<g>
	<polyline class="st4" points="527.96,240.93 529.57,231.22 566.5,205.6 600.73,254.94 	"/>
	<polyline class="st4" points="529.26,240.04 530.65,231.91 566.21,207.24 599.81,255.68 600.13,262.35 	"/>
	
		<rect x="541.21" y="222.05" transform="matrix(0.8217 -0.5699 0.5699 0.8217 -43.3009 366.9252)" class="st4" width="47.09" height="61.22"/>
	<line class="st4" x1="538.76" y1="242.04" x2="564.88" y2="223.92"/>
	<line class="st4" x1="543.68" y1="242.93" x2="562.06" y2="230.18"/>
	<line class="st4" x1="565.6" y1="280.74" x2="591.72" y2="262.62"/>
	
		<rect x="549.79" y="243.14" transform="matrix(0.8217 -0.57 0.57 0.8217 -43.5112 367.2332)" class="st4" width="30.61" height="20.02"/>
</g>
<path class="st0" d="M1375.68,268.61l0-6.3h-5c-0.27-2.04-0.79-3.99-1.54-5.83l4.31-2.49l-3.15-5.46l-4.33,2.5
	c-1.23-1.6-2.66-3.03-4.26-4.26l2.5-4.33l-5.46-3.15l-2.49,4.31c-1.84-0.75-3.79-1.27-5.83-1.54v-5h-6.3v5
	c-2.04,0.27-3.99,0.79-5.83,1.54l-2.49-4.31l-5.46,3.15l2.5,4.33c-1.6,1.23-3.03,2.66-4.26,4.26l-4.33-2.5l-3.15,5.46l4.31,2.49
	c-0.76,1.84-1.27,3.79-1.54,5.83h-5v6.3h5c0.27,2.04,0.79,3.99,1.54,5.83l-4.31,2.49l3.15,5.46l4.33-2.5
	c1.23,1.6,2.66,3.03,4.26,4.26l-2.5,4.33l5.46,3.15l2.49-4.31c1.84,0.76,3.79,1.27,5.83,1.54v5l6.3,0v-5
	c2.04-0.27,3.99-0.79,5.83-1.54l2.49,4.31l5.46-3.15l-2.5-4.33c1.6-1.23,3.02-2.66,4.26-4.26l4.33,2.5l3.15-5.46l-4.31-2.49
	c0.76-1.84,1.27-3.79,1.54-5.83H1375.68z M1332.99,265.46c0-7.9,6.4-14.3,14.3-14.3c7.9,0,14.3,6.4,14.3,14.3
	c0,7.9-6.4,14.3-14.3,14.3C1339.39,279.75,1332.99,273.35,1332.99,265.46z"/>
<g>
	<g>
		<path class="st3" d="M1048.63,122.36h0.02v-13.2v-4.81c0-0.32-0.15-0.62-0.4-0.82c-0.25-0.2-0.58-0.27-0.89-0.19l-15.3,3.72
			c-0.47,0.11-0.79,0.53-0.79,1.01v4.81v11.16c-0.23-0.04-0.46-0.08-0.72-0.08c-0.83,0-1.76,0.23-2.69,0.67
			c-2.08,0.98-4.09,3.07-3.73,5.01c0.23,1.2,1.28,1.94,2.75,1.94c0.83,0,1.76-0.23,2.69-0.67c2.02-0.95,3.96-2.94,3.76-4.83h0.02
			v-12.39l13.23-3.21v9.84c-0.23-0.04-0.47-0.07-0.72-0.07c-0.83,0-1.76,0.23-2.69,0.67c-2.08,0.98-4.09,3.07-3.73,5.01
			c0.22,1.2,1.28,1.94,2.75,1.94c0.83,0,1.76-0.23,2.69-0.67C1046.89,126.25,1048.83,124.25,1048.63,122.36z"/>
	</g>
</g>
<g>
	<g>
		<path class="st3" d="M1138.27,419.49h0.02v-13.2v-4.81c0-0.32-0.15-0.62-0.4-0.82c-0.25-0.2-0.58-0.27-0.89-0.19l-15.3,3.72
			c-0.47,0.11-0.79,0.53-0.79,1.01V410v11.16c-0.23-0.04-0.46-0.08-0.72-0.08c-0.83,0-1.76,0.23-2.69,0.67
			c-2.08,0.98-4.09,3.07-3.73,5.01c0.23,1.2,1.28,1.94,2.75,1.94c0.83,0,1.76-0.23,2.69-0.67c2.02-0.95,3.96-2.94,3.76-4.83h0.02
			v-12.39l13.23-3.21v9.84c-0.23-0.04-0.47-0.07-0.72-0.07c-0.83,0-1.76,0.23-2.69,0.67c-2.08,0.98-4.09,3.07-3.73,5.01
			c0.22,1.2,1.28,1.94,2.75,1.94c0.83,0,1.76-0.23,2.69-0.67C1136.53,423.37,1138.48,421.38,1138.27,419.49z"/>
	</g>
</g>
<polygon class="st3" points="1984.71,371.43 1977.76,375.34 1974.06,368.76 1970.75,370.62 1974.45,377.2 1967.87,380.91 
	1969.73,384.21 1976.32,380.51 1980.23,387.46 1983.53,385.6 1979.62,378.65 1986.57,374.74 "/>
<polygon class="st3" points="319.68,13.34 312.72,17.25 309.02,10.67 305.71,12.53 309.42,19.11 302.83,22.82 304.69,26.12 
	311.28,22.42 315.19,29.37 318.5,27.51 314.59,20.56 321.54,16.65 "/>
<polygon class="st3" points="1246.94,420.97 1239.99,424.89 1236.29,418.3 1232.98,420.16 1236.68,426.75 1230.1,430.45 
	1231.96,433.76 1238.55,430.06 1242.46,437.01 1245.77,435.15 1241.85,428.19 1248.8,424.28 "/>
<polygon class="st3" points="1613.12,206.85 1606.17,210.76 1602.46,204.17 1599.15,206.03 1602.86,212.62 1596.27,216.32 
	1598.13,219.63 1604.72,215.93 1608.63,222.88 1611.94,221.02 1608.03,214.06 1614.98,210.15 "/>
<g>
	<polyline class="st6" points="386.25,373.31 397.2,373.33 407.25,407.94 411.45,348.28 483.73,348.45 	"/>
</g>
<path class="st3" d="M1915.57,62.82l-5.46,2.26l-4.38-7.05c-0.13-0.21-0.34-0.36-0.59-0.41c-0.24-0.05-0.5,0-0.71,0.15l-1.83,1.27
	l-8.31-8.87c-0.19-0.2-0.47-0.31-0.74-0.29c-0.28,0.02-0.53,0.18-0.69,0.41l-1.02,1.56l-10.03-5.92c-0.25-0.14-0.56-0.17-0.83-0.05
	c-0.27,0.12-0.46,0.35-0.53,0.64l-5.72,25.44l-0.32-26.08c0-0.3-0.16-0.59-0.41-0.75c-0.25-0.17-0.57-0.2-0.85-0.08l-10.53,4.31
	l-0.73-1.86c-0.1-0.25-0.33-0.47-0.56-0.54c-0.25-0.08-0.53-0.05-0.76,0.09l-9.97,6.07l-1.28-1.38c-0.31-0.34-0.83-0.39-1.21-0.12
	l-9.03,6.56c-0.21,0.15-0.33,0.38-0.36,0.62l-3.42-2.04l-1.28,50.36l33.02,22.53l42.9-16.94L1915.57,62.82z M1893.76,52.27
	l7.34,7.83l-23.01,16.04L1893.76,52.27z M1890.83,53.38l-15.28,23.25l6.4-28.49L1890.83,53.38z M1872.6,47.24l0.36,28.52
	l-9.66-24.71L1872.6,47.24z M1860.59,49.17l0.67,1.72c0,0,0,0,0,0.01c0,0,0,0,0,0l9.29,23.76l-18.69-20.18L1860.59,49.17z
	 M1840.16,59.65C1840.16,59.65,1840.16,59.65,1840.16,59.65l8.37-6.09l22.89,24.72L1840.16,59.65z M1878.15,78.31l26.54-18.5
	l3.71,5.97L1878.15,78.31z"/>
<path class="st3" d="M332.37,254.87l-4.94,2.8l-5.56-5.73c-0.17-0.18-0.4-0.28-0.66-0.29c-0.25-0.01-0.49,0.07-0.67,0.23l-1.56,1.4
	l-9.75-6.82c-0.23-0.16-0.52-0.21-0.78-0.15c-0.27,0.06-0.49,0.23-0.6,0.46l-0.72,1.55l-10.9-3.93c-0.28-0.09-0.58-0.07-0.82,0.07
	c-0.24,0.14-0.39,0.38-0.4,0.65L294,268.81l-5.03-23.44c-0.06-0.27-0.26-0.5-0.54-0.62c-0.28-0.12-0.6-0.1-0.85,0.04l-9.54,5.36
	l-1.05-1.58c-0.14-0.22-0.41-0.37-0.65-0.4c-0.27-0.04-0.53,0.03-0.73,0.19l-8.67,6.86l-1.5-1.06c-0.37-0.26-0.89-0.24-1.21,0.06
	l-7.66,7.17c-0.18,0.17-0.26,0.39-0.25,0.61l-3.72-1.36l7.84,45.53l36.43,15.67l38.99-21.27L332.37,254.87z M309.09,248.42l8.6,6.02
	l-19.66,17.67L309.09,248.42z M306.42,249.83l-10.77,23.09l1.13-26.56L306.42,249.83z M287.44,246.86l5.5,25.64l-13.93-20.91
	L287.44,246.86z M276.02,250.28l0.97,1.45c0,0,0,0,0,0.01c0,0,0,0,0,0l13.39,20.1l-21.96-15.56L276.02,250.28z M257.89,262.58
	C257.89,262.58,257.89,262.58,257.89,262.58l7.11-6.65l26.9,19.06L257.89,262.58z M298.49,274.07l22.67-20.38l4.71,4.86
	L298.49,274.07z"/>
</svg>
